<svg xmlns="http://www.w3.org/2000/svg" width="100" height="100" viewBox="0 0 100 100" version="1.1"><path d="M 72 12 C 72 13.333, 72.667 14, 74 14 C 75.879 14, 76 14.667, 76 25 C 76 34.111, 76.258 36, 77.500 36 C 78.756 36, 79 33.889, 79 23 L 79 10 75.500 10 C 72.667 10, 72 10.381, 72 12 M 24.581 50.267 C 19.126 65.245, 13.617 80.313, 12.340 83.750 L 10.017 90 12.259 89.994 C 14.287 89.989, 15.536 87.143, 25.390 60.077 C 31.380 43.625, 36.557 29.717, 36.895 29.169 C 37.363 28.413, 53.803 62.101, 65.479 87.742 C 66.452 89.879, 67.051 89.985, 78.250 89.992 C 84.713 89.996, 90 89.867, 90 89.704 C 90 89.541, 84.238 77.279, 77.195 62.454 C 70.152 47.629, 63.098 32.688, 61.519 29.250 L 58.649 23 46.574 23.017 L 34.500 23.035 24.581 50.267" stroke="none" fill="#0a68c6" fill-rule="evenodd"/><path d="M 0 50.009 L 0 100.018 50.250 99.759 L 100.500 99.500 100.759 49.750 L 101.019 -0 50.509 -0 L 0 0 0 50.009 M 0.464 50.500 C 0.464 78, 0.592 89.106, 0.749 75.180 C 0.906 61.255, 0.906 38.755, 0.749 25.180 C 0.592 11.606, 0.464 23, 0.464 50.500 M 72 12 C 72 13.333, 72.667 14, 74 14 C 75.879 14, 76 14.667, 76 25 C 76 34.111, 76.258 36, 77.500 36 C 78.756 36, 79 33.889, 79 23 L 79 10 75.500 10 C 72.667 10, 72 10.381, 72 12 M 24.581 50.267 C 19.126 65.245, 13.617 80.313, 12.340 83.750 L 10.017 90 12.259 89.994 C 14.287 89.989, 15.536 87.143, 25.390 60.077 C 31.380 43.625, 36.557 29.717, 36.895 29.169 C 37.363 28.413, 53.803 62.101, 65.479 87.742 C 66.452 89.879, 67.051 89.985, 78.250 89.992 C 84.713 89.996, 90 89.867, 90 89.704 C 90 89.541, 84.238 77.279, 77.195 62.454 C 70.152 47.629, 63.098 32.688, 61.519 29.250 L 58.649 23 46.574 23.017 L 34.500 23.035 24.581 50.267" stroke="none" fill="#fafbfb" fill-rule="evenodd"/></svg>