<?xml version="1.0" standalone="no"?>
<!DOCTYPE svg PUBLIC "-//W3C//DTD SVG 20010904//EN"
 "http://www.w3.org/TR/2001/REC-SVG-20010904/DTD/svg10.dtd">
<svg version="1.0" xmlns="http://www.w3.org/2000/svg"
 width="100.000000pt" height="100.000000pt" viewBox="0 0 100.000000 100.000000"
 preserveAspectRatio="xMidYMid meet">

<g transform="translate(0.000000,100.000000) scale(0.100000,-0.100000)"
fill="#000000" stroke="none">
<path d="M720 880 c0 -13 7 -20 20 -20 19 0 20 -7 20 -110 0 -91 3 -110 15
-110 13 0 15 21 15 130 l0 130 -35 0 c-28 0 -35 -4 -35 -20z"/>
<path d="M342 753 c-60 -149 -237 -649 -230 -651 5 -2 14 -2 21 1 8 3 62 139
122 303 59 165 111 303 115 307 4 4 71 -129 149 -295 79 -167 146 -307 150
-311 4 -4 57 -6 118 -5 l110 3 -156 330 -157 330 -117 3 c-105 2 -118 1 -125
-15z"/>
</g>
</svg>
