<?xml version="1.0" standalone="no"?>
<!DOCTYPE svg PUBLIC "-//W3C//DTD SVG 20010904//EN"
 "http://www.w3.org/TR/2001/REC-SVG-20010904/DTD/svg10.dtd">
<svg version="1.0" xmlns="http://www.w3.org/2000/svg"
 width="100.000000pt" height="100.000000pt" viewBox="0 0 100.000000 100.000000"
 preserveAspectRatio="xMidYMid meet">

<g transform="translate(0.000000,100.000000) scale(0.100000,-0.100000)"
fill="#000000" stroke="none">
<path d="M320 822 c0 -20 69 -92 87 -92 29 0 22 25 -18 66 -46 47 -69 55 -69
26z"/>
<path d="M616 798 c-40 -46 -43 -56 -20 -65 19 -7 94 63 94 89 0 32 -37 20
-74 -24z"/>
<path d="M473 730 c-18 -4 -40 -13 -49 -20 -19 -17 -44 -64 -44 -85 0 -26 34
-16 55 18 39 61 115 59 138 -3 8 -21 18 -30 34 -30 27 0 27 1 9 43 -25 60 -81
90 -143 77z"/>
<path d="M204 559 c-25 -13 -54 -60 -54 -89 0 -37 30 -81 67 -96 61 -26 92 -7
162 96 34 50 61 92 61 95 0 9 -215 4 -236 -6z"/>
<path d="M433 477 c-34 -50 -64 -102 -68 -115 -10 -35 4 -80 37 -118 37 -42
58 -44 58 -6 0 56 10 72 45 72 31 0 33 -2 38 -45 6 -56 9 -60 37 -45 33 18 60
70 60 117 0 36 -10 57 -63 135 -34 50 -67 93 -72 95 -6 1 -38 -39 -72 -90z
m87 -34 c0 -16 3 -38 6 -50 5 -20 2 -23 -20 -23 -22 0 -26 4 -26 28 0 42 11
72 26 72 9 0 14 -11 14 -27z"/>
<path d="M586 543 c94 -145 108 -163 139 -173 85 -28 164 64 124 143 -25 49
-47 57 -168 57 l-113 0 18 -27z"/>
<path d="M475 171 c22 -44 31 -45 54 -6 l20 35 -45 0 -45 0 16 -29z"/>
</g>
</svg>
