<svg xmlns="http://www.w3.org/2000/svg" width="100" height="100" viewBox="0 0 100 100" version="1.1"><path d="M 32 17.797 C 32 19.756, 38.874 27, 40.733 27 C 43.589 27, 42.887 24.460, 38.908 20.407 C 34.318 15.729, 32 14.854, 32 17.797 M 61.687 20.526 C 58.069 24.756, 57.608 27, 60.356 27 C 62.194 27, 69 19.684, 69 17.708 C 69 14.643, 65.595 15.955, 61.687 20.526 M 43.763 28.565 C 40.970 30.081, 38 34.660, 38 37.450 C 38 39.743, 41.757 39.340, 42.511 36.966 C 43.525 33.769, 47.110 31, 50.234 31 C 53.338 31, 58 34.874, 58 37.455 C 58 38.333, 58.863 39, 60 39 C 63.307 39, 62.550 34.350, 58.600 30.400 C 55.754 27.554, 54.491 27.007, 50.850 27.040 C 48.458 27.062, 45.268 27.748, 43.763 28.565 M 19.111 45.560 C 13.121 50.600, 14.465 59.625, 21.652 62.628 C 27.676 65.145, 30.644 63.371, 37.802 52.971 C 41.211 48.019, 44 43.749, 44 43.483 C 44 43.218, 39.085 43, 33.077 43 C 22.816 43, 21.969 43.155, 19.111 45.560 M 43.347 52.280 C 39.963 57.351, 36.935 62.663, 36.619 64.085 C 35.801 67.765, 37.516 72.885, 40.667 76.175 C 44.330 79.998, 46 79.812, 46 75.582 C 46 70.246, 46.848 69, 50.478 69 C 53.640 69, 53.763 69.157, 54.406 74 C 54.770 76.750, 55.403 79, 55.812 79 C 57.440 79, 61.094 75.719, 62.506 72.989 C 65.314 67.558, 64.463 62.803, 59.340 55.313 C 52.852 45.827, 50.713 42.995, 50.062 43.030 C 49.753 43.047, 46.731 47.209, 43.347 52.280 M 57.618 44.250 C 60.947 49.904, 68.638 60.693, 69.916 61.500 C 74.613 64.466, 80.264 63.552, 83.745 59.265 C 87.609 54.506, 85.934 46.658, 80.528 44.195 C 76.818 42.504, 56.619 42.553, 57.618 44.250 M 50.079 45.583 C 50.127 46.748, 50.364 46.985, 50.683 46.188 C 50.972 45.466, 50.936 44.603, 50.604 44.271 C 50.272 43.939, 50.036 44.529, 50.079 45.583 M 48.607 54.582 C 48.273 55.452, 48 57.927, 48 60.082 C 48 63.644, 48.238 64, 50.625 64 C 53.032 64, 53.198 63.740, 52.625 60.875 C 52.281 59.156, 52 56.681, 52 55.375 C 52 52.693, 49.551 52.121, 48.607 54.582 M 47.467 82.937 C 49.670 87.196, 50.723 87.437, 52.457 84.082 C 54.556 80.025, 54.541 80, 49.974 80 L 45.949 80 47.467 82.937" stroke="none" fill="#0e0b06" fill-rule="evenodd"/><path d="M 0 50.009 L 0 100.018 50.250 99.759 L 100.500 99.500 100.759 49.750 L 101.019 -0 50.509 -0 L 0 0 0 50.009 M 0.464 50.500 C 0.464 78, 0.592 89.106, 0.749 75.180 C 0.906 61.255, 0.906 38.755, 0.749 25.180 C 0.592 11.606, 0.464 23, 0.464 50.500 M 32 17.797 C 32 19.756, 38.874 27, 40.733 27 C 43.589 27, 42.887 24.460, 38.908 20.407 C 34.318 15.729, 32 14.854, 32 17.797 M 61.687 20.526 C 58.069 24.756, 57.608 27, 60.356 27 C 62.194 27, 69 19.684, 69 17.708 C 69 14.643, 65.595 15.955, 61.687 20.526 M 43.763 28.565 C 40.970 30.081, 38 34.660, 38 37.450 C 38 39.743, 41.757 39.340, 42.511 36.966 C 43.525 33.769, 47.110 31, 50.234 31 C 53.338 31, 58 34.874, 58 37.455 C 58 38.333, 58.863 39, 60 39 C 63.307 39, 62.550 34.350, 58.600 30.400 C 55.754 27.554, 54.491 27.007, 50.850 27.040 C 48.458 27.062, 45.268 27.748, 43.763 28.565 M 19.111 45.560 C 13.121 50.600, 14.465 59.625, 21.652 62.628 C 27.676 65.145, 30.644 63.371, 37.802 52.971 C 41.211 48.019, 44 43.749, 44 43.483 C 44 43.218, 39.085 43, 33.077 43 C 22.816 43, 21.969 43.155, 19.111 45.560 M 43.347 52.280 C 39.963 57.351, 36.935 62.663, 36.619 64.085 C 35.801 67.765, 37.516 72.885, 40.667 76.175 C 44.330 79.998, 46 79.812, 46 75.582 C 46 70.246, 46.848 69, 50.478 69 C 53.640 69, 53.763 69.157, 54.406 74 C 54.770 76.750, 55.403 79, 55.812 79 C 57.440 79, 61.094 75.719, 62.506 72.989 C 65.314 67.558, 64.463 62.803, 59.340 55.313 C 52.852 45.827, 50.713 42.995, 50.062 43.030 C 49.753 43.047, 46.731 47.209, 43.347 52.280 M 57.618 44.250 C 60.947 49.904, 68.638 60.693, 69.916 61.500 C 74.613 64.466, 80.264 63.552, 83.745 59.265 C 87.609 54.506, 85.934 46.658, 80.528 44.195 C 76.818 42.504, 56.619 42.553, 57.618 44.250 M 50.079 45.583 C 50.127 46.748, 50.364 46.985, 50.683 46.188 C 50.972 45.466, 50.936 44.603, 50.604 44.271 C 50.272 43.939, 50.036 44.529, 50.079 45.583 M 48.607 54.582 C 48.273 55.452, 48 57.927, 48 60.082 C 48 63.644, 48.238 64, 50.625 64 C 53.032 64, 53.198 63.740, 52.625 60.875 C 52.281 59.156, 52 56.681, 52 55.375 C 52 52.693, 49.551 52.121, 48.607 54.582 M 47.467 82.937 C 49.670 87.196, 50.723 87.437, 52.457 84.082 C 54.556 80.025, 54.541 80, 49.974 80 L 45.949 80 47.467 82.937" stroke="none" fill="#f9ca35" fill-rule="evenodd"/></svg>