<svg xmlns="http://www.w3.org/2000/svg" width="100" height="100" viewBox="0 0 100 100" version="1.1"><path d="M 0 50.009 L 0 100.018 50.250 99.759 L 100.500 99.500 100.759 49.750 L 101.019 -0 50.509 -0 L 0 0 0 50.009 M 0.464 50.500 C 0.464 78, 0.592 89.106, 0.749 75.180 C 0.906 61.255, 0.906 38.755, 0.749 25.180 C 0.592 11.606, 0.464 23, 0.464 50.500 M 7.461 8.240 C 7.195 8.934, 7.095 28.176, 7.239 51.001 L 7.500 92.500 42.465 92.763 L 77.429 93.026 85.227 85.274 L 93.025 77.522 92.763 42.511 L 92.500 7.500 50.223 7.239 C 16.925 7.034, 7.843 7.246, 7.461 8.240 M 29 50.083 C 29 57.702, 29.305 60.066, 30.250 59.756 C 30.938 59.530, 31.640 57.693, 31.810 55.673 C 32.092 52.346, 32.397 52, 35.060 52 C 37.324 52, 38 51.544, 38 50.020 C 38 48.408, 37.441 48.104, 35 48.388 C 32.283 48.705, 32 48.467, 32 45.869 C 32 43.257, 32.313 43, 35.500 43 C 37.944 43, 39 42.548, 39 41.500 C 39 40.367, 37.778 40, 34 40 L 29 40 29 50.083 M 43.527 43.273 C 38.350 48.450, 39.034 54.817, 45.156 58.433 C 50.821 61.779, 58.821 57.846, 59.293 51.482 C 59.488 48.847, 59.253 48.675, 55.259 48.528 C 52.926 48.442, 50.506 48.688, 49.880 49.074 C 48 50.236, 49.917 52, 53.059 52 C 56.656 52, 56.832 53.409, 53.507 55.587 C 50.345 57.659, 46.563 56.789, 44.402 53.491 C 40.898 48.143, 46.058 41.779, 52.170 43.909 C 55.718 45.146, 57.915 44.004, 55.632 42.109 C 54.832 41.446, 52.575 40.643, 50.616 40.325 C 47.498 39.819, 46.613 40.187, 43.527 43.273 M 61 50 C 61 58.222, 61.267 60, 62.500 60 C 63.583 60, 64 58.889, 64 56 C 64 52.240, 64.177 52, 66.941 52 C 69.671 52, 71.834 50.500, 70.716 49.382 C 70.449 49.116, 68.942 48.801, 67.366 48.683 C 65.053 48.509, 64.439 47.940, 64.184 45.734 C 63.891 43.207, 64.138 43, 67.434 43 C 69.937 43, 71 42.553, 71 41.500 C 71 40.367, 69.778 40, 66 40 L 61 40 61 50" stroke="none" fill="#f8fbf4" fill-rule="evenodd"/><path d="M 7.461 8.240 C 7.195 8.934, 7.095 28.176, 7.239 51.001 L 7.500 92.500 42.465 92.763 L 77.429 93.026 85.227 85.274 L 93.025 77.522 92.763 42.511 L 92.500 7.500 50.223 7.239 C 16.925 7.034, 7.843 7.246, 7.461 8.240 M 29 50.083 C 29 57.702, 29.305 60.066, 30.250 59.756 C 30.938 59.530, 31.640 57.693, 31.810 55.673 C 32.092 52.346, 32.397 52, 35.060 52 C 37.324 52, 38 51.544, 38 50.020 C 38 48.408, 37.441 48.104, 35 48.388 C 32.283 48.705, 32 48.467, 32 45.869 C 32 43.257, 32.313 43, 35.500 43 C 37.944 43, 39 42.548, 39 41.500 C 39 40.367, 37.778 40, 34 40 L 29 40 29 50.083 M 43.527 43.273 C 38.350 48.450, 39.034 54.817, 45.156 58.433 C 50.821 61.779, 58.821 57.846, 59.293 51.482 C 59.488 48.847, 59.253 48.675, 55.259 48.528 C 52.926 48.442, 50.506 48.688, 49.880 49.074 C 48 50.236, 49.917 52, 53.059 52 C 56.656 52, 56.832 53.409, 53.507 55.587 C 50.345 57.659, 46.563 56.789, 44.402 53.491 C 40.898 48.143, 46.058 41.779, 52.170 43.909 C 55.718 45.146, 57.915 44.004, 55.632 42.109 C 54.832 41.446, 52.575 40.643, 50.616 40.325 C 47.498 39.819, 46.613 40.187, 43.527 43.273 M 61 50 C 61 58.222, 61.267 60, 62.500 60 C 63.583 60, 64 58.889, 64 56 C 64 52.240, 64.177 52, 66.941 52 C 69.671 52, 71.834 50.500, 70.716 49.382 C 70.449 49.116, 68.942 48.801, 67.366 48.683 C 65.053 48.509, 64.439 47.940, 64.184 45.734 C 63.891 43.207, 64.138 43, 67.434 43 C 69.937 43, 71 42.553, 71 41.500 C 71 40.367, 69.778 40, 66 40 L 61 40 61 50" stroke="none" fill="#7cc245" fill-rule="evenodd"/></svg>