<svg version="1.1" id="Layer_1" xmlns="http://www.w3.org/2000/svg" xmlns:xlink="http://www.w3.org/1999/xlink" x="0px" y="0px"
	 width="100%" viewBox="0 0 100 100" enable-background="new 0 0 100 100" xml:space="preserve">
<path fill="#FDFEFB" opacity="1.000000" stroke="none" 
	d="
M1.000000,36.000000 
	C1.000000,24.361134 1.000000,12.722267 1.000000,1.041700 
	C34.226063,1.041700 67.452187,1.041700 101.000000,1.041700 
	C101.000000,17.019459 101.000000,33.041073 100.696106,49.398022 
	C98.558655,47.871365 96.725105,46.009373 94.852135,43.771614 
	C92.925133,42.869442 91.037552,42.343033 89.017944,41.690647 
	C88.595581,41.646572 88.305244,41.728474 87.973701,41.854221 
	C87.932487,41.898067 88.004463,41.994522 87.698807,42.027267 
	C86.984055,42.085152 86.574951,42.110294 85.799194,42.205296 
	C84.779633,42.663029 84.126740,43.050903 83.359604,43.232136 
	C83.137848,42.729641 83.031776,42.433277 82.772903,41.849144 
	C81.749985,42.040554 80.881302,42.519215 80.007355,42.999989 
	C80.002090,43.002102 80.007362,43.013199 79.644264,43.005653 
	C78.800110,43.048618 78.319061,43.099125 77.492340,43.120277 
	C76.082077,44.016335 75.017471,44.941746 73.643585,45.790405 
	C72.186127,46.133675 71.037956,46.553692 69.652298,47.133667 
	C69.256973,47.634712 69.099152,47.975803 68.598160,48.286087 
	C64.142860,51.117599 65.299255,54.993244 66.173431,59.202034 
	C66.856827,61.307991 67.589066,63.035912 68.525215,64.953217 
	C69.163872,65.459908 69.598610,65.777206 70.020203,66.373337 
	C70.281967,67.112579 70.556870,67.572990 70.886627,68.250992 
	C70.941467,68.468575 71.046021,68.905022 71.118622,69.159370 
	C71.483307,69.590469 71.775391,69.767212 72.033173,69.967041 
	C71.998856,69.990112 72.044312,69.920982 72.203354,70.211090 
	C73.634521,71.301125 74.906647,72.101051 76.426384,72.970093 
	C77.465309,73.031914 78.256615,73.024635 79.384506,73.021545 
	C80.393684,73.030746 81.066269,73.035767 81.796150,73.296608 
	C81.907913,73.718491 81.962387,73.884552 82.244385,74.344528 
	C84.308128,74.386993 86.144348,74.135551 88.275917,73.702148 
	C93.580452,71.760262 97.756332,69.151665 99.220184,63.549477 
	C99.384438,62.920879 100.386475,62.511200 101.000000,62.000000 
	C101.000000,74.970314 101.000000,87.940620 101.000000,100.955467 
	C67.772530,100.955467 34.544991,100.955467 1.000000,100.955467 
	C1.000000,83.647064 1.000000,66.292191 1.336457,48.544518 
	C6.125810,53.755611 10.794317,59.010136 19.224888,58.819557 
	C21.117077,58.939796 22.644978,58.999512 24.522163,59.008179 
	C28.124689,57.215881 31.505188,55.570576 31.110542,50.613281 
	C31.631405,47.161243 35.471077,44.008919 31.215717,40.569855 
	C31.738449,38.876366 32.287823,37.520397 32.797043,35.806694 
	C31.506607,33.951447 30.256325,32.453934 28.926216,30.747902 
	C28.693104,30.263771 28.464800,30.082777 28.127331,29.759451 
	C28.093180,29.522501 27.907921,29.080992 27.672863,28.779097 
	C23.631245,28.328781 19.824686,28.180359 15.770073,28.138748 
	C15.169939,28.313301 14.817856,28.381046 14.183115,28.369596 
	C13.595023,28.507484 13.289589,28.724566 12.797400,29.023876 
	C12.610645,29.106104 12.204564,29.146761 11.868844,29.098484 
	C11.065216,29.450039 10.597309,29.849867 9.940516,30.434933 
	C9.262111,30.813223 8.772593,31.006275 8.002666,31.198112 
	C7.480882,31.462934 7.239510,31.728971 6.814353,32.217690 
	C5.869717,33.034344 5.108865,33.628319 4.043209,34.265972 
	C3.574151,34.661201 3.409898,35.012753 3.194912,35.531109 
	C3.144181,35.697918 2.922724,35.967274 2.602185,35.963249 
	C1.854431,35.972816 1.427216,35.986408 1.000000,36.000000 
M45.476173,7.110215 
	C45.173607,7.300609 45.003681,7.573579 44.718151,8.376081 
	C44.439396,8.566203 44.160637,8.756325 43.426003,9.107153 
	C43.137325,9.302285 42.981319,9.573686 42.775307,10.371646 
	C42.613541,10.663593 42.386181,10.889544 41.561195,11.261561 
	C41.445885,11.608103 41.330574,11.954644 41.120487,12.663308 
	C41.120487,12.663308 40.895638,12.962573 40.129364,13.006006 
	C39.494320,14.431416 38.859272,15.856826 38.166126,17.659069 
	C38.166126,17.659069 38.004131,18.004230 37.633335,18.112677 
	C37.554478,18.212532 37.388653,18.347780 37.412315,18.405916 
	C37.499569,18.620335 37.649536,18.809235 37.873417,19.522869 
	C37.919956,19.691319 37.966496,19.859768 37.832840,20.722748 
	C37.300789,21.319937 36.735577,21.891048 36.242123,22.518585 
	C33.245903,26.328938 34.719849,33.296955 39.486034,35.311626 
	C39.913696,35.407028 40.341362,35.502430 40.890472,36.179569 
	C41.366230,36.724422 41.841984,37.269276 42.834915,38.246990 
	C47.746742,40.098484 52.554592,42.362385 57.611759,43.637383 
	C60.376083,44.334316 64.185226,44.607677 65.553757,40.185196 
	C65.998764,40.415401 66.443771,40.645607 67.639168,40.839581 
	C68.419899,39.449684 69.200630,38.059788 70.529305,36.792927 
	C70.893349,36.708359 71.257393,36.623795 72.257751,36.526512 
	C72.432144,35.962093 72.606544,35.397675 72.881721,34.153370 
	C72.753250,33.485657 72.624786,32.817944 73.184631,31.931133 
	C73.760223,31.239458 74.335823,30.547783 74.943939,29.427382 
	C74.943939,29.427382 75.055206,29.012066 75.371696,28.846437 
	C75.433067,28.745533 75.568314,28.615379 75.542091,28.549152 
	C75.460411,28.342867 75.317581,28.160799 75.181694,27.313633 
	C75.190529,26.876488 75.199364,26.439344 75.683113,25.364761 
	C75.202347,22.217583 74.721581,19.070404 73.890190,15.302839 
	C71.890991,12.265414 69.891785,9.227989 67.717125,5.625031 
	C67.363441,5.497538 67.009750,5.370044 66.084534,5.091862 
	C65.389725,4.723995 64.694908,4.356127 63.650681,3.303855 
	C60.435596,3.210390 57.220512,3.116925 53.631794,3.167432 
	C53.631794,3.167432 53.231716,3.183825 52.467430,3.026610 
	C51.295837,3.645101 50.124241,4.263593 48.661697,5.112440 
	C48.661697,5.112440 48.308014,5.224811 47.621178,5.129175 
	C47.069889,5.737620 46.518597,6.346065 45.997437,7.001812 
	C45.997437,7.001812 45.952019,6.968506 45.476173,7.110215 
M28.499086,64.003662 
	C28.499086,64.003662 28.001465,64.026115 27.432487,64.345413 
	C26.591360,65.593849 25.750233,66.842285 24.198950,67.929955 
	C17.825611,72.864548 16.980011,80.070023 22.182695,86.518234 
	C27.201843,92.738960 34.145321,95.882683 41.610096,97.953056 
	C51.923859,100.813599 57.904129,98.593285 64.550522,89.464622 
	C64.661720,87.574211 64.772919,85.683807 65.327477,83.446213 
	C65.606247,82.967155 65.885017,82.488091 66.700867,81.928841 
	C66.607132,81.252457 66.513405,80.576073 66.229706,79.426651 
	C66.146683,79.278397 66.063652,79.130142 65.969933,78.270569 
	C65.934227,77.797493 65.898521,77.324417 65.966423,76.085930 
	C65.263512,74.468643 64.560608,72.851349 64.003105,70.569473 
	C64.275871,69.780701 64.548637,68.991928 64.821968,67.678360 
	C64.581718,67.437576 64.341469,67.196785 63.803192,66.534729 
	C63.524815,66.336845 63.246441,66.138969 62.900928,65.303116 
	C62.208588,64.582947 61.516251,63.862782 60.229446,62.802391 
	C54.281090,58.474487 47.650169,57.011311 40.480213,58.438187 
	C39.187523,58.695442 38.109459,60.031185 36.213032,60.922226 
	C35.493263,60.962208 34.773491,61.002190 33.352684,61.039501 
	C32.233624,61.359734 31.114567,61.679966 29.501778,62.328171 
	C29.333551,62.883114 29.165325,63.438053 28.499086,64.003662 
z"/>
<path fill="#EB9511" opacity="1.000000" stroke="none" 
	d="
M94.891556,44.147377 
	C96.725105,46.009373 98.558655,47.871365 100.696106,49.866680 
	C101.000000,53.692909 101.000000,57.385818 101.000000,61.539364 
	C100.386475,62.511200 99.384438,62.920879 99.220184,63.549477 
	C97.756332,69.151665 93.580452,71.760262 87.850136,73.665245 
	C85.424950,73.890404 83.720901,73.970512 82.016853,74.050613 
	C81.962387,73.884552 81.907913,73.718491 82.032440,73.007088 
	C82.994041,70.510292 84.079582,68.620674 84.493393,66.593910 
	C85.252121,62.877777 85.614555,59.080730 86.286552,55.148243 
	C86.615158,54.693821 86.602058,54.418179 86.516869,53.743484 
	C86.483391,49.601704 86.324623,45.868568 86.165855,42.135437 
	C86.574951,42.110294 86.984055,42.085152 87.971306,42.261322 
	C90.663490,43.024212 92.777527,43.585796 94.891556,44.147377 
z"/>
<path fill="#CDCE14" opacity="1.000000" stroke="none" 
	d="
M14.465774,28.448792 
	C14.817856,28.381046 15.169939,28.313301 16.136372,28.184952 
	C17.931522,28.188019 19.112322,28.251690 21.243788,28.366623 
	C13.849325,35.245041 13.710395,42.881138 16.065598,51.336357 
	C17.007267,54.045353 17.933933,56.402195 18.860600,58.759033 
	C10.794317,59.010136 6.125810,53.755611 1.336457,48.075859 
	C1.000000,45.299988 1.000000,42.599972 1.250284,39.272083 
	C1.974620,37.751896 2.448672,36.859585 2.922724,35.967274 
	C2.922724,35.967274 3.144181,35.697918 3.445820,35.413868 
	C3.947645,34.827309 4.147830,34.524799 4.348014,34.222290 
	C5.108865,33.628319 5.869717,33.034344 7.082612,32.190571 
	C7.784129,31.693621 8.033603,31.446474 8.283077,31.199326 
	C8.772593,31.006275 9.262111,30.813223 10.246171,30.405872 
	C11.228663,29.843302 11.716614,29.495031 12.204564,29.146761 
	C12.204564,29.146761 12.610645,29.106104 13.071845,29.049061 
	C13.843954,28.810942 14.154864,28.629866 14.465774,28.448792 
z"/>
<path fill="#FAFAB9" opacity="1.000000" stroke="none" 
	d="
M2.602185,35.963249 
	C2.448672,36.859585 1.974620,37.751896 1.250284,38.822105 
	C1.000000,38.250000 1.000000,37.500000 1.000000,36.375000 
	C1.427216,35.986408 1.854431,35.972816 2.602185,35.963249 
z"/>
<path fill="#0CA3A5" opacity="1.000000" stroke="none" 
	d="
M63.918694,89.960075 
	C57.904129,98.593285 51.923859,100.813599 41.610096,97.953056 
	C34.145321,95.882683 27.201843,92.738960 22.182695,86.518234 
	C16.980011,80.070023 17.825611,72.864548 24.634363,68.338058 
	C34.105164,80.667900 45.218533,88.538521 61.054173,86.990982 
	C63.538654,86.748184 64.451492,87.532555 63.918694,89.960075 
z"/>
<path fill="#EDB811" opacity="1.000000" stroke="none" 
	d="
M53.231716,3.183825 
	C53.231716,3.183825 53.631794,3.167432 54.246719,3.151142 
	C57.907795,3.419321 60.953945,3.703790 64.000099,3.988259 
	C64.694908,4.356127 65.389725,4.723995 66.501785,5.409974 
	C67.243553,5.882246 67.568069,6.036405 67.892586,6.190563 
	C69.891785,9.227989 71.890991,12.265414 74.017548,15.981186 
	C74.353897,18.019011 74.562889,19.378490 74.877289,21.423630 
	C71.965019,20.179279 69.923149,19.151075 67.780357,18.417805 
	C57.655937,14.953197 47.848755,17.854937 38.013031,20.028217 
	C37.966496,19.859768 37.919956,19.691319 37.972748,19.035137 
	C38.049431,18.366346 38.026779,18.185289 38.004131,18.004230 
	C38.004131,18.004230 38.166126,17.659069 38.471840,17.297827 
	C39.483585,15.611914 40.189610,14.287244 40.895638,12.962573 
	C40.895638,12.962573 41.120487,12.663308 41.403458,12.345994 
	C41.822033,11.702285 41.957630,11.375890 42.093231,11.049496 
	C42.386181,10.889544 42.613541,10.663593 43.101723,10.076664 
	C43.720104,9.579731 43.871353,9.301319 43.881882,8.946445 
	C44.160637,8.756325 44.439396,8.566203 45.086349,8.090893 
	C45.620373,7.526639 45.786194,7.247573 45.952019,6.968507 
	C45.952019,6.968506 45.997437,7.001812 46.295357,6.956705 
	C47.164860,6.349336 47.736435,5.787073 48.308014,5.224811 
	C48.308014,5.224811 48.661697,5.112440 49.144939,5.002795 
	C50.829357,4.323375 52.030537,3.753599 53.231716,3.183825 
z"/>
<path fill="#FDF3B8" opacity="1.000000" stroke="none" 
	d="
M37.922935,20.375483 
	C47.848755,17.854937 57.655937,14.953197 67.780357,18.417805 
	C69.923149,19.151075 71.965019,20.179279 74.877289,21.423630 
	C74.562889,19.378490 74.353897,18.019011 74.192856,16.291378 
	C74.721581,19.070404 75.202347,22.217583 75.142212,25.504942 
	C65.230019,17.503635 54.566074,19.525068 43.920010,21.844223 
	C41.080811,22.462719 41.608543,23.443649 44.000969,24.468647 
	C43.999767,25.507763 44.001110,26.200584 43.633617,26.947985 
	C41.842052,27.294979 40.419315,27.587395 38.992393,27.548496 
	C38.616238,26.634375 38.244270,26.051567 37.872307,25.468760 
	C37.952969,26.335413 38.033627,27.202068 38.085922,28.268843 
	C38.057552,28.468964 38.056526,28.873205 38.042511,29.211926 
	C38.646595,30.608421 39.264687,31.666201 39.630104,32.936672 
	C39.211906,33.783997 39.046379,34.418625 38.880852,35.053253 
	C34.719849,33.296955 33.245903,26.328938 36.242123,22.518585 
	C36.735577,21.891048 37.300789,21.319937 37.922935,20.375483 
z"/>
<path fill="#1CA1A0" opacity="1.000000" stroke="none" 
	d="
M62.968063,65.941086 
	C63.246441,66.138969 63.524815,66.336845 63.954582,67.007782 
	C64.344444,67.721619 64.582924,67.962387 64.821404,68.203156 
	C64.548637,68.991928 64.275871,69.780701 63.720718,70.983284 
	C62.856220,71.038849 62.274113,70.680595 60.723728,69.726440 
	C62.127472,72.764488 63.061031,74.784950 63.723328,76.914032 
	C63.066280,77.048279 62.680508,77.073883 61.816216,77.068710 
	C57.617317,77.198219 53.896935,77.358498 49.836876,77.515694 
	C47.999050,76.952499 46.500904,76.392395 45.003426,75.433792 
	C45.035416,74.234489 45.066742,73.433693 45.428932,72.707016 
	C46.818745,73.137642 47.877682,73.494156 49.212852,74.169937 
	C50.287212,74.658218 51.118023,75.059601 51.877377,74.952820 
	C54.187458,74.627991 56.473656,74.122581 58.744698,73.584297 
	C58.810406,73.568718 58.612827,71.845398 58.519676,71.843552 
	C56.026176,71.794144 53.530266,71.866234 50.665943,71.850052 
	C48.281822,71.150612 45.931343,70.976059 44.319363,69.794220 
	C40.702663,67.142601 37.452888,63.990501 34.053722,61.042175 
	C34.773491,61.002190 35.493263,60.962208 36.746227,61.169678 
	C38.524956,62.279675 39.770485,63.142220 41.159340,64.342865 
	C48.346333,68.163651 55.576706,68.436287 62.968063,65.941086 
z"/>
<path fill="#C2F5F5" opacity="1.000000" stroke="none" 
	d="
M64.234604,89.712349 
	C64.451492,87.532555 63.538654,86.748184 61.054173,86.990982 
	C45.218533,88.538521 34.105164,80.667900 24.989441,68.418442 
	C25.750233,66.842285 26.591360,65.593849 27.712330,64.545715 
	C28.309685,66.386642 28.627195,68.027275 28.944706,69.667900 
	C29.634958,68.442101 30.325212,67.216293 31.266167,65.997498 
	C31.684061,66.005516 31.851255,66.006546 32.067070,66.325050 
	C33.109776,67.750610 34.103863,68.858696 34.806297,70.101372 
	C31.410978,72.817451 34.640652,73.419693 35.644882,74.857361 
	C36.439671,76.191826 37.342995,77.492050 38.543995,78.397377 
	C46.450775,84.357597 55.462330,85.120628 64.884125,83.793396 
	C64.772919,85.683807 64.661720,87.574211 64.234604,89.712349 
z"/>
<path fill="#1BA2A3" opacity="1.000000" stroke="none" 
	d="
M41.016018,64.004761 
	C39.770485,63.142220 38.524956,62.279675 37.105865,61.143070 
	C38.109459,60.031185 39.187523,58.695442 40.480213,58.438187 
	C47.650169,57.011311 54.281090,58.474487 60.512989,63.344669 
	C57.087086,64.406509 53.384617,65.260170 49.665943,65.337830 
	C46.793167,65.397827 43.900078,64.485054 41.016018,64.004761 
z"/>
<path fill="#E9B924" opacity="1.000000" stroke="none" 
	d="
M38.996582,27.879810 
	C40.419315,27.587395 41.842052,27.294979 44.030518,26.960251 
	C55.020603,23.415644 64.224243,25.317062 72.496323,32.150230 
	C72.624786,32.817944 72.753250,33.485657 72.602158,34.634148 
	C72.088875,35.589691 71.855156,36.064457 71.621429,36.539227 
	C71.257393,36.623795 70.893349,36.708359 70.130753,36.439804 
	C66.150497,34.068146 62.568802,32.049610 58.616112,29.839230 
	C53.201748,29.634665 48.157139,29.681242 43.115700,29.576014 
	C41.425152,29.540726 39.742687,29.118542 38.056526,28.873203 
	C38.056526,28.873205 38.057552,28.468964 38.307884,28.228271 
	C38.558216,27.987581 38.996582,27.879810 38.996582,27.879810 
z"/>
<path fill="#E9BC28" opacity="1.000000" stroke="none" 
	d="
M65.033966,40.079906 
	C64.185226,44.607677 60.376083,44.334316 57.611759,43.637383 
	C52.554592,42.362385 47.746742,40.098484 42.879028,37.794670 
	C44.851746,37.206081 46.783249,37.101635 48.708298,36.926281 
	C51.801376,36.644527 54.890186,36.315899 58.356453,36.002068 
	C60.832722,37.358002 62.933346,38.718956 65.033966,40.079906 
z"/>
<path fill="#E6B929" opacity="1.000000" stroke="none" 
	d="
M44.003510,24.122351 
	C41.608543,23.443649 41.080811,22.462719 43.920010,21.844223 
	C54.566074,19.525068 65.230019,17.503635 74.904755,25.823662 
	C75.199364,26.439344 75.190529,26.876488 75.087006,27.892906 
	C75.013283,28.652142 75.034248,28.832104 75.055206,29.012066 
	C75.055206,29.012066 74.943939,29.427382 74.576324,29.679945 
	C65.058563,23.222061 54.996685,21.251457 44.003510,24.122351 
z"/>
<path fill="#27A2A4" opacity="1.000000" stroke="none" 
	d="
M65.105797,83.619804 
	C55.462330,85.120628 46.450775,84.357597 38.543995,78.397377 
	C37.342995,77.492050 36.439671,76.191826 36.015884,74.977959 
	C45.942993,79.631210 55.481174,82.746666 65.980614,78.981888 
	C66.063652,79.130142 66.146683,79.278397 66.189644,79.999725 
	C66.154320,81.051544 66.159050,81.530281 66.163788,82.009026 
	C65.885017,82.488091 65.606247,82.967155 65.105797,83.619804 
z"/>
<path fill="#E39C35" opacity="1.000000" stroke="none" 
	d="
M71.046021,68.905022 
	C71.046021,68.905022 70.941467,68.468575 70.996185,68.057182 
	C71.050903,67.645790 71.132217,67.208450 71.420914,66.998848 
	C74.753548,63.067902 75.657578,58.796825 74.976227,53.688362 
	C74.642334,50.796413 74.297600,48.331783 73.952866,45.867157 
	C75.017471,44.941746 76.082077,44.016335 77.558296,43.524288 
	C79.905380,51.087627 79.091164,58.128147 76.655098,64.906487 
	C75.947289,66.875961 73.625992,68.265564 72.044312,69.920982 
	C72.044312,69.920982 71.998856,69.990112 71.953354,69.719765 
	C71.620575,69.267952 71.333298,69.086487 71.046021,68.905022 
z"/>
<path fill="#FBFAB7" opacity="1.000000" stroke="none" 
	d="
M30.919662,50.935081 
	C31.505188,55.570576 28.124689,57.215881 24.330410,58.691399 
	C22.201752,54.276875 20.614128,50.128086 19.027332,45.570259 
	C18.776524,38.121151 22.718000,33.606468 28.161480,29.996401 
	C28.464800,30.082777 28.693104,30.263771 28.924332,31.032528 
	C28.990816,31.904051 28.979361,32.282425 28.629250,32.776840 
	C22.980846,36.038292 20.795069,40.801128 21.209953,47.138828 
	C22.567608,48.957962 23.785742,50.476482 24.828863,52.267357 
	C24.254396,53.031242 23.854940,53.522770 23.455486,54.014294 
	C24.778677,54.306442 26.101868,54.598595 27.425060,54.890743 
	C27.518517,54.521446 27.611973,54.152149 27.705429,53.782852 
	C26.801882,53.188522 25.898335,52.594196 25.029331,51.683708 
	C25.458920,50.919151 25.853962,50.470760 26.445965,50.310898 
	C28.068504,50.711315 29.494083,50.823200 30.919662,50.935081 
z"/>
<path fill="#DF9D37" opacity="1.000000" stroke="none" 
	d="
M82.927147,42.136395 
	C83.031776,42.433277 83.137848,42.729641 83.385674,43.657692 
	C84.559860,54.259552 83.547752,63.910286 79.047920,73.017349 
	C78.256615,73.024635 77.465309,73.031914 76.392136,72.610313 
	C76.691475,70.832138 77.258072,69.476326 77.856270,68.134613 
	C81.479279,60.008488 82.144562,51.631401 80.007362,43.013199 
	C80.007362,43.013199 80.002090,43.002102 80.288689,42.869003 
	C81.359238,42.536068 82.143196,42.336231 82.927147,42.136395 
z"/>
<path fill="#EAB70D" opacity="1.000000" stroke="none" 
	d="
M65.293861,40.132553 
	C62.933346,38.718956 60.832722,37.358002 57.934669,35.977730 
	C51.681164,35.838219 46.225094,35.718025 40.769024,35.597832 
	C40.341362,35.502430 39.913696,35.407028 39.183445,35.182442 
	C39.046379,34.418625 39.211906,33.783997 40.054581,33.040283 
	C46.500854,32.585236 52.269974,32.239273 58.194530,32.209316 
	C60.910633,33.839844 63.668995,34.892208 65.933296,36.599735 
	C66.821533,37.269566 66.603172,39.406837 66.888779,40.875813 
	C66.443771,40.645607 65.998764,40.415401 65.293861,40.132553 
z"/>
<path fill="#C2F7F8" opacity="1.000000" stroke="none" 
	d="
M65.975273,78.626228 
	C55.481174,82.746666 45.942993,79.631210 36.262112,74.761063 
	C34.640652,73.419693 31.410978,72.817451 35.087982,70.233391 
	C36.775513,71.107895 37.889702,71.984955 39.304420,73.020065 
	C41.404221,74.062828 43.203487,74.947556 45.002754,75.832291 
	C46.500904,76.392395 47.999050,76.952499 50.258011,77.665657 
	C54.777454,77.578972 58.536095,77.339233 62.294731,77.099487 
	C62.680508,77.073883 63.066280,77.048279 64.033630,76.950500 
	C65.031075,76.869347 65.446945,76.860344 65.862816,76.851341 
	C65.898521,77.324417 65.934227,77.797493 65.975273,78.626228 
z"/>
<path fill="#FEF8BA" opacity="1.000000" stroke="none" 
	d="
M44.000969,24.468647 
	C54.996685,21.251457 65.058563,23.222061 74.560066,29.894310 
	C74.335823,30.547783 73.760223,31.239458 72.840477,32.040680 
	C64.224243,25.317062 55.020603,23.415644 44.399349,26.905674 
	C44.001110,26.200584 43.999767,25.507763 44.000969,24.468647 
z"/>
<path fill="#DD9C2F" opacity="1.000000" stroke="none" 
	d="
M73.643585,45.790405 
	C74.297600,48.331783 74.642334,50.796413 74.647331,53.846310 
	C72.855545,58.260456 71.403511,62.089333 69.938942,65.977615 
	C69.926407,66.037018 70.033348,66.094505 70.033348,66.094505 
	C69.598610,65.777206 69.163872,65.459908 68.478241,64.585716 
	C68.492355,62.347694 68.757355,60.666561 69.009827,58.992981 
	C68.997299,59.000530 68.989670,59.028770 69.299042,58.807682 
	C69.702209,54.715633 69.795998,50.844677 69.889786,46.973717 
	C71.037956,46.553692 72.186127,46.133675 73.643585,45.790405 
z"/>
<path fill="#FAFAB9" opacity="1.000000" stroke="none" 
	d="
M16.050594,50.984203 
	C13.710395,42.881138 13.849325,35.245041 21.243788,28.366623 
	C19.112322,28.251690 17.931522,28.188019 16.384422,28.078144 
	C19.824686,28.180359 23.631245,28.328781 27.300373,28.761679 
	C20.185724,30.410065 15.915190,38.267971 17.897923,46.486912 
	C17.283226,48.245922 16.666910,49.615063 16.050594,50.984203 
z"/>
<path fill="#FDF1C1" opacity="1.000000" stroke="none" 
	d="
M79.384506,73.021538 
	C83.547752,63.910286 84.559860,54.259552 83.499908,43.864334 
	C84.126740,43.050903 84.779633,42.663029 85.799194,42.205296 
	C86.324623,45.868568 86.483391,49.601704 86.411392,53.916676 
	C86.080711,54.767326 86.067909,55.040295 86.142227,55.317421 
	C85.614555,59.080730 85.252121,62.877777 84.493393,66.593910 
	C84.079582,68.620674 82.994041,70.510292 81.975143,72.751274 
	C81.066269,73.035767 80.393684,73.030746 79.384506,73.021538 
z"/>
<path fill="#FDEFBD" opacity="1.000000" stroke="none" 
	d="
M79.644264,43.005653 
	C82.144562,51.631401 81.479279,60.008488 77.856270,68.134613 
	C77.258072,69.476326 76.691475,70.832138 76.144516,72.541206 
	C74.906647,72.101051 73.634521,71.301125 72.203354,70.211090 
	C73.625992,68.265564 75.947289,66.875961 76.655098,64.906487 
	C79.091164,58.128147 79.905380,51.087627 77.903961,43.553642 
	C78.319061,43.099125 78.800110,43.048618 79.644264,43.005653 
z"/>
<path fill="#AEF1F2" opacity="1.000000" stroke="none" 
	d="
M32.018452,66.007584 
	C31.851255,66.006546 31.684061,66.005516 31.241272,65.701027 
	C30.641932,64.932014 30.318186,64.466461 29.992287,63.667442 
	C29.991926,62.889381 29.993719,62.444790 29.995510,62.000198 
	C31.114567,61.679966 32.233624,61.359734 33.703201,61.040840 
	C37.452888,63.990501 40.702663,67.142601 44.319363,69.794220 
	C45.931343,70.976059 48.281822,71.150612 50.650665,72.182701 
	C50.315014,73.005592 49.625816,73.428131 48.936623,73.850670 
	C47.877682,73.494156 46.818745,73.137642 45.170883,72.503197 
	C43.084915,71.799904 41.587872,71.374550 39.956573,70.624817 
	C37.221031,68.869492 34.619740,67.438538 32.018452,66.007584 
z"/>
<path fill="#DBDB7A" opacity="1.000000" stroke="none" 
	d="
M16.065598,51.336357 
	C16.666910,49.615063 17.283226,48.245922 18.181244,46.460938 
	C18.650795,46.023159 18.838650,46.001228 19.026503,45.979301 
	C20.614128,50.128086 22.201752,54.276875 23.981129,58.742443 
	C22.644978,58.999512 21.117077,58.939796 19.224888,58.819557 
	C17.933933,56.402195 17.007267,54.045353 16.065598,51.336357 
z"/>
<path fill="#CCCF4D" opacity="1.000000" stroke="none" 
	d="
M19.027332,45.570259 
	C18.838650,46.001228 18.650795,46.023159 18.179621,46.071068 
	C15.915190,38.267971 20.185724,30.410065 27.535431,29.063574 
	C27.907921,29.080992 28.093180,29.522501 28.127331,29.759451 
	C22.718000,33.606468 18.776524,38.121151 19.027332,45.570259 
z"/>
<path fill="#D6D653" opacity="1.000000" stroke="none" 
	d="
M31.110542,50.613281 
	C29.494083,50.823200 28.068504,50.711315 26.712196,50.293900 
	C26.844156,49.047398 26.906843,48.106422 27.093178,46.838120 
	C28.558668,44.642982 29.900513,42.775181 31.242355,40.907379 
	C35.471077,44.008919 31.631405,47.161243 31.110542,50.613281 
z"/>
<path fill="#FBEC97" opacity="1.000000" stroke="none" 
	d="
M67.263977,40.857697 
	C66.603172,39.406837 66.821533,37.269566 65.933296,36.599735 
	C63.668995,34.892208 60.910633,33.839844 58.290131,31.965803 
	C58.482567,30.947882 58.734837,30.489479 58.987106,30.031075 
	C62.568802,32.049610 66.150497,34.068146 69.856773,36.378284 
	C69.200630,38.059788 68.419899,39.449684 67.263977,40.857697 
z"/>
<path fill="#A4EFEF" opacity="1.000000" stroke="none" 
	d="
M41.159340,64.342865 
	C43.900078,64.485054 46.793167,65.397827 49.665943,65.337830 
	C53.384617,65.260170 57.087086,64.406509 60.810219,63.514782 
	C61.516251,63.862782 62.208588,64.582947 62.934494,65.622101 
	C55.576706,68.436287 48.346333,68.163651 41.159340,64.342865 
z"/>
<path fill="#C9CA32" opacity="1.000000" stroke="none" 
	d="
M31.215717,40.569855 
	C29.900513,42.775181 28.558668,44.642982 26.773563,46.677620 
	C26.559429,43.892746 26.788559,40.941044 27.006569,37.990887 
	C26.995447,37.992432 26.986876,38.012741 27.337284,38.113300 
	C29.404192,37.530716 31.120693,36.847572 32.837193,36.164429 
	C32.287823,37.520397 31.738449,38.876366 31.215717,40.569855 
z"/>
<path fill="#E19B31" opacity="1.000000" stroke="none" 
	d="
M66.222267,58.823997 
	C65.299255,54.993244 64.142860,51.117599 68.576454,48.717957 
	C68.928497,52.463345 68.959084,55.746059 68.989670,59.028770 
	C68.989670,59.028770 68.997299,59.000530 68.662643,58.914864 
	C67.626083,58.827465 66.924171,58.825733 66.222267,58.823997 
z"/>
<path fill="#FAEBA0" opacity="1.000000" stroke="none" 
	d="
M40.829750,35.888702 
	C46.225094,35.718025 51.681164,35.838219 57.559017,35.982746 
	C54.890186,36.315899 51.801376,36.644527 48.708298,36.926281 
	C46.783249,37.101635 44.851746,37.206081 42.620438,37.578239 
	C41.841984,37.269276 41.366230,36.724422 40.829750,35.888702 
z"/>
<path fill="#FAE0A2" opacity="1.000000" stroke="none" 
	d="
M69.299042,58.807682 
	C68.959084,55.746059 68.928497,52.463345 68.919617,48.748764 
	C69.099152,47.975803 69.256973,47.634712 69.652298,47.133667 
	C69.795998,50.844677 69.702209,54.715633 69.299042,58.807682 
z"/>
<path fill="#1E9FA0" opacity="1.000000" stroke="none" 
	d="
M65.914619,76.468636 
	C65.446945,76.860344 65.031075,76.869347 64.304901,76.841873 
	C63.061031,74.784950 62.127472,72.764488 60.723728,69.726440 
	C62.274113,70.680595 62.856220,71.038849 63.648018,71.315582 
	C64.560608,72.851349 65.263512,74.468643 65.914619,76.468636 
z"/>
<path fill="#C2F7F8" opacity="1.000000" stroke="none" 
	d="
M29.994440,64.000916 
	C30.318186,64.466461 30.641932,64.932014 30.990570,65.694031 
	C30.325212,67.216293 29.634958,68.442101 28.944706,69.667900 
	C28.627195,68.027275 28.309685,66.386642 27.996819,64.386063 
	C28.001465,64.026115 28.499086,64.003662 28.997437,64.000778 
	C29.495789,63.997898 29.994440,64.000916 29.994440,64.000916 
z"/>
<path fill="#F9F999" opacity="1.000000" stroke="none" 
	d="
M32.797043,35.806694 
	C31.120693,36.847572 29.404192,37.530716 27.429558,37.789452 
	C27.770252,35.796963 28.369081,34.228882 28.967907,32.660797 
	C28.979361,32.282425 28.990816,31.904051 29.004156,31.241051 
	C30.256325,32.453934 31.506607,33.951447 32.797043,35.806694 
z"/>
<path fill="#FDF3B8" opacity="1.000000" stroke="none" 
	d="
M63.825390,3.646057 
	C60.953945,3.703790 57.907795,3.419321 54.433533,3.079156 
	C57.220512,3.116925 60.435596,3.210390 63.825390,3.646057 
z"/>
<path fill="#FAE0A2" opacity="1.000000" stroke="none" 
	d="
M66.173431,59.202034 
	C66.924171,58.825733 67.626083,58.827465 68.675171,58.907318 
	C68.757355,60.666561 68.492355,62.347694 68.274330,64.396332 
	C67.589066,63.035912 66.856827,61.307991 66.173431,59.202034 
z"/>
<path fill="#FBE6B0" opacity="1.000000" stroke="none" 
	d="
M94.852135,43.771614 
	C92.777527,43.585796 90.663490,43.024212 88.276962,42.228577 
	C88.004463,41.994522 87.932487,41.898067 88.257141,41.882462 
	C88.771187,41.850113 88.960579,41.833366 89.149971,41.816624 
	C91.037552,42.343033 92.925133,42.869442 94.852135,43.771614 
z"/>
<path fill="#FDF3B8" opacity="1.000000" stroke="none" 
	d="
M40.512501,12.984289 
	C40.189610,14.287244 39.483585,15.611914 38.500893,17.109409 
	C38.859272,15.856826 39.494320,14.431416 40.512501,12.984289 
z"/>
<path fill="#FDF1C1" opacity="1.000000" stroke="none" 
	d="
M82.244385,74.344528 
	C83.720901,73.970512 85.424950,73.890404 87.554779,73.847198 
	C86.144348,74.135551 84.308128,74.386993 82.244385,74.344528 
z"/>
<path fill="#FDF3B8" opacity="1.000000" stroke="none" 
	d="
M52.849571,3.105217 
	C52.030537,3.753599 50.829357,4.323375 49.290413,4.887618 
	C50.124241,4.263593 51.295837,3.645101 52.849571,3.105217 
z"/>
<path fill="#C2F7F8" opacity="1.000000" stroke="none" 
	d="
M66.432327,81.968933 
	C66.159050,81.530281 66.154320,81.051544 66.284630,80.236244 
	C66.513405,80.576073 66.607132,81.252457 66.432327,81.968933 
z"/>
<path fill="#FDF3B8" opacity="1.000000" stroke="none" 
	d="
M47.964596,5.176993 
	C47.736435,5.787073 47.164860,6.349336 46.280293,6.933054 
	C46.518597,6.346065 47.069889,5.737620 47.964596,5.176993 
z"/>
<path fill="#FDEFBD" opacity="1.000000" stroke="none" 
	d="
M82.772903,41.849144 
	C82.143196,42.336231 81.359238,42.536068 80.293961,42.866890 
	C80.881302,42.519215 81.749985,42.040554 82.772903,41.849144 
z"/>
<path fill="#FAFAB9" opacity="1.000000" stroke="none" 
	d="
M11.868844,29.098484 
	C11.716614,29.495031 11.228663,29.843302 10.435059,30.220634 
	C10.597309,29.849867 11.065216,29.450039 11.868844,29.098484 
z"/>
<path fill="#FDEFBD" opacity="1.000000" stroke="none" 
	d="
M71.132217,67.208450 
	C71.132217,67.208450 71.050903,67.645790 70.941345,67.839600 
	C70.556870,67.572990 70.281967,67.112579 70.020203,66.373337 
	C70.033348,66.094505 69.926407,66.037018 70.189293,66.139183 
	C70.678856,66.563713 70.905540,66.886086 71.132217,67.208450 
z"/>
<path fill="#FBEC97" opacity="1.000000" stroke="none" 
	d="
M71.939590,36.532867 
	C71.855156,36.064457 72.088875,35.589691 72.551773,34.974091 
	C72.606544,35.397675 72.432144,35.962093 71.939590,36.532867 
z"/>
<path fill="#C2F5F5" opacity="1.000000" stroke="none" 
	d="
M29.992287,63.667442 
	C29.994440,64.000916 29.495789,63.997898 29.246445,63.995445 
	C29.165325,63.438053 29.333551,62.883114 29.748644,62.164185 
	C29.993719,62.444790 29.991926,62.889381 29.992287,63.667442 
z"/>
<path fill="#FAFAB9" opacity="1.000000" stroke="none" 
	d="
M4.043209,34.265972 
	C4.147830,34.524799 3.947645,34.827309 3.496552,35.247059 
	C3.409898,35.012753 3.574151,34.661201 4.043209,34.265972 
z"/>
<path fill="#FAFAB9" opacity="1.000000" stroke="none" 
	d="
M8.002666,31.198112 
	C8.033603,31.446474 7.784129,31.693621 7.266396,31.967888 
	C7.239510,31.728971 7.480882,31.462934 8.002666,31.198112 
z"/>
<path fill="#FDF1C1" opacity="1.000000" stroke="none" 
	d="
M89.017944,41.690647 
	C88.960579,41.833366 88.771187,41.850113 88.298355,41.838615 
	C88.305244,41.728474 88.595581,41.646572 89.017944,41.690647 
z"/>
<path fill="#A4EFEF" opacity="1.000000" stroke="none" 
	d="
M64.821686,67.940758 
	C64.582924,67.962387 64.344444,67.721619 64.103592,67.218422 
	C64.341469,67.196785 64.581718,67.437576 64.821686,67.940758 
z"/>
<path fill="#FDEFBD" opacity="1.000000" stroke="none" 
	d="
M71.118622,69.159370 
	C71.333298,69.086487 71.620575,69.267952 71.987671,69.696686 
	C71.775391,69.767212 71.483307,69.590469 71.118622,69.159370 
z"/>
<path fill="#FDF3B8" opacity="1.000000" stroke="none" 
	d="
M75.213455,28.929253 
	C75.034248,28.832104 75.013283,28.652142 75.095390,28.220760 
	C75.317581,28.160799 75.460411,28.342867 75.542091,28.549152 
	C75.568314,28.615379 75.433067,28.745533 75.213455,28.929253 
z"/>
<path fill="#FAFAB9" opacity="1.000000" stroke="none" 
	d="
M14.183115,28.369596 
	C14.154864,28.629866 13.843954,28.810942 13.258600,28.966831 
	C13.289589,28.724566 13.595023,28.507484 14.183115,28.369596 
z"/>
<path fill="#FDF3B8" opacity="1.000000" stroke="none" 
	d="
M37.818733,18.058453 
	C38.026779,18.185289 38.049431,18.366346 37.924000,18.777569 
	C37.649536,18.809235 37.499569,18.620335 37.412315,18.405916 
	C37.388653,18.347780 37.554478,18.212532 37.818733,18.058453 
z"/>
<path fill="#FDF3B8" opacity="1.000000" stroke="none" 
	d="
M41.827209,11.155528 
	C41.957630,11.375890 41.822033,11.702285 41.450848,12.164932 
	C41.330574,11.954644 41.445885,11.608103 41.827209,11.155528 
z"/>
<path fill="#FDF3B8" opacity="1.000000" stroke="none" 
	d="
M43.653942,9.026800 
	C43.871353,9.301319 43.720104,9.579731 43.193062,9.851518 
	C42.981319,9.573686 43.137325,9.302285 43.653942,9.026800 
z"/>
<path fill="#FDF3B8" opacity="1.000000" stroke="none" 
	d="
M45.714096,7.039361 
	C45.786194,7.247573 45.620373,7.526639 45.210472,7.867415 
	C45.003681,7.573579 45.173607,7.300609 45.714096,7.039361 
z"/>
<path fill="#FDF3B8" opacity="1.000000" stroke="none" 
	d="
M67.804855,5.907797 
	C67.568069,6.036405 67.243553,5.882246 66.787552,5.485319 
	C67.009750,5.370044 67.363441,5.497538 67.804855,5.907797 
z"/>
<path fill="#FBE6B0" opacity="1.000000" stroke="none" 
	d="
M86.286552,55.148243 
	C86.067909,55.040295 86.080711,54.767326 86.286110,54.325325 
	C86.602058,54.418179 86.615158,54.693821 86.286552,55.148243 
z"/>
<path fill="#FDF2AC" opacity="1.000000" stroke="none" 
	d="
M58.616112,29.839230 
	C58.734837,30.489479 58.482567,30.947882 58.134697,31.649797 
	C52.269974,32.239273 46.500854,32.585236 40.307255,32.827591 
	C39.264687,31.666201 38.646595,30.608421 38.042511,29.211924 
	C39.742687,29.118542 41.425152,29.540726 43.115700,29.576014 
	C48.157139,29.681242 53.201748,29.634665 58.616112,29.839230 
z"/>
<path fill="#FEF8BA" opacity="1.000000" stroke="none" 
	d="
M38.992393,27.548496 
	C38.996582,27.879810 38.558216,27.987581 38.336250,28.028152 
	C38.033627,27.202068 37.952969,26.335413 37.872307,25.468760 
	C38.244270,26.051567 38.616238,26.634375 38.992393,27.548496 
z"/>
<path fill="#1E9FA0" opacity="1.000000" stroke="none" 
	d="
M49.212852,74.169937 
	C49.625816,73.428131 50.315014,73.005592 51.019489,72.250412 
	C53.530266,71.866234 56.026176,71.794144 58.519676,71.843552 
	C58.612827,71.845398 58.810406,73.568718 58.744698,73.584297 
	C56.473656,74.122581 54.187458,74.627991 51.877377,74.952820 
	C51.118023,75.059601 50.287212,74.658218 49.212852,74.169937 
z"/>
<path fill="#1E9FA0" opacity="1.000000" stroke="none" 
	d="
M40.090828,70.949188 
	C41.587872,71.374550 43.084915,71.799904 44.840012,72.429077 
	C45.066742,73.433693 45.035416,74.234489 45.003426,75.433792 
	C43.203487,74.947556 41.404221,74.062828 39.333214,72.727501 
	C39.404591,71.834335 39.747711,71.391762 40.090828,70.949188 
z"/>
<path fill="#1E9FA0" opacity="1.000000" stroke="none" 
	d="
M61.816216,77.068710 
	C58.536095,77.339233 54.777454,77.578972 50.597687,77.668747 
	C53.896935,77.358498 57.617317,77.198219 61.816216,77.068710 
z"/>
<path fill="#229BA0" opacity="1.000000" stroke="none" 
	d="
M39.956577,70.624817 
	C39.747711,71.391762 39.404591,71.834335 39.032681,72.569458 
	C37.889702,71.984955 36.775513,71.107895 35.379639,70.098808 
	C34.103863,68.858696 33.109776,67.750610 32.067070,66.325050 
	C34.619740,67.438538 37.221031,68.869492 39.956577,70.624817 
z"/>
<path fill="#FCEBAD" opacity="1.000000" stroke="none" 
	d="
M71.420914,66.998848 
	C70.905540,66.886086 70.678856,66.563713 70.201828,66.079781 
	C71.403511,62.089333 72.855545,58.260456 74.636482,54.273632 
	C75.657578,58.796825 74.753548,63.067902 71.420914,66.998848 
z"/>
<path fill="#C9CA39" opacity="1.000000" stroke="none" 
	d="
M28.629251,32.776840 
	C28.369081,34.228882 27.770252,35.796963 27.079151,37.688896 
	C26.986876,38.012741 26.995447,37.992432 26.671034,38.107368 
	C25.267120,39.780582 24.126343,41.300823 23.127798,42.909363 
	C22.350201,44.161987 21.749662,45.524525 21.070435,46.838215 
	C20.795069,40.801128 22.980846,36.038292 28.629251,32.776840 
z"/>
<path fill="#F9F999" opacity="1.000000" stroke="none" 
	d="
M21.209953,47.138828 
	C21.749662,45.524525 22.350201,44.161987 23.127798,42.909363 
	C24.126343,41.300823 25.267120,39.780582 26.682156,38.105820 
	C26.788559,40.941044 26.559429,43.892746 26.649916,47.004951 
	C26.906843,48.106422 26.844156,49.047398 26.515236,50.005371 
	C25.853962,50.470760 25.458920,50.919151 25.032028,51.683865 
	C25.000179,52.000183 25.003876,51.995003 25.003876,51.995003 
	C23.785742,50.476482 22.567608,48.957962 21.209953,47.138828 
z"/>
<path fill="#F1F5A3" opacity="1.000000" stroke="none" 
	d="
M24.997482,52.000023 
	C25.898335,52.594196 26.801882,53.188522 27.705429,53.782852 
	C27.611973,54.152149 27.518517,54.521446 27.425060,54.890743 
	C26.101868,54.598595 24.778677,54.306442 23.455486,54.014294 
	C23.854940,53.522770 24.254396,53.031242 24.828863,52.267357 
	C25.003876,51.995003 25.000179,52.000183 24.997482,52.000023 
z"/>
</svg>