<?xml version="1.0" standalone="no"?>
<!DOCTYPE svg PUBLIC "-//W3C//DTD SVG 20010904//EN"
 "http://www.w3.org/TR/2001/REC-SVG-20010904/DTD/svg10.dtd">
<svg version="1.0" xmlns="http://www.w3.org/2000/svg"
 width="100.000000pt" height="100.000000pt" viewBox="0 0 100.000000 100.000000"
 preserveAspectRatio="xMidYMid meet">

<g transform="translate(0.000000,100.000000) scale(0.100000,-0.100000)"
fill="#000000" stroke="none">
<path d="M440 404 c6 -14 6 -24 0 -24 -5 0 -11 8 -14 18 -3 9 -17 18 -31 18
-23 2 -22 0 11 -22 34 -23 62 -24 48 -2 -4 6 -1 14 6 18 8 5 5 9 -8 13 -18 4
-20 2 -12 -19z"/>
<path d="M530 400 c0 -5 5 -10 11 -10 5 0 7 5 4 10 -3 6 -8 10 -11 10 -2 0 -4
-4 -4 -10z"/>
<path d="M337 389 c7 -7 15 -10 18 -7 3 3 -2 9 -12 12 -14 6 -15 5 -6 -5z"/>
<path d="M499 381 c11 -7 11 -9 0 -13 -8 -3 5 -5 28 -6 28 -1 43 3 47 13 4 13
2 13 -14 5 -14 -7 -26 -8 -39 0 -24 12 -42 13 -22 1z"/>
<path d="M312 356 c15 -13 24 -27 20 -32 -4 -4 -2 -4 4 -1 6 3 16 -3 24 -13 8
-10 17 -17 22 -14 4 3 -7 17 -24 32 -18 15 -37 32 -41 39 -4 7 -13 13 -20 13
-7 0 0 -11 15 -24z"/>
<path d="M373 365 c0 -8 4 -12 9 -9 5 3 6 10 3 15 -9 13 -12 11 -12 -6z"/>
<path d="M465 370 c-3 -5 -1 -10 4 -10 6 0 11 5 11 10 0 6 -2 10 -4 10 -3 0
-8 -4 -11 -10z"/>
<path d="M396 339 c3 -6 13 -8 21 -5 8 3 11 2 8 -3 -9 -16 9 -20 23 -5 7 8 9
15 5 15 -48 7 -63 7 -57 -2z"/>
<path d="M610 340 c0 -6 -8 -10 -17 -8 -10 2 -19 -4 -21 -14 -2 -12 3 -18 15
-17 10 0 13 3 6 6 -19 7 -16 19 6 19 11 0 17 -5 14 -13 -4 -9 0 -11 11 -7 12
5 13 10 5 25 -11 21 -19 25 -19 9z"/>
<path d="M521 314 c12 -15 11 -16 -11 -10 -19 6 -21 5 -10 -3 16 -12 60 -15
60 -5 0 9 -32 33 -44 34 -5 0 -2 -7 5 -16z"/>
<path d="M220 310 c-12 -7 -10 -9 7 -7 12 0 19 5 17 9 -6 10 -6 10 -24 -2z"/>
<path d="M308 294 c24 -36 52 -61 52 -47 0 5 -16 25 -37 44 l-36 34 21 -31z"/>
<path d="M394 289 c-4 -8 -3 -9 4 -5 7 4 12 3 12 -1 0 -7 43 -29 75 -38 6 -2
19 -7 29 -11 14 -5 17 -4 12 4 -4 7 -1 12 8 12 9 0 16 -4 16 -10 0 -13 37 -13
45 0 4 6 12 10 18 9 27 -3 37 2 37 20 0 14 -5 18 -21 14 -11 -3 -16 -9 -10
-12 5 -4 -6 -11 -25 -17 -23 -8 -37 -8 -41 -1 -3 6 -1 7 5 3 6 -3 13 -3 16 2
2 4 -24 9 -60 10 -38 1 -73 8 -88 17 -18 12 -26 13 -32 4z m123 -35 c-3 -3
-12 -4 -19 -1 -8 3 -5 6 6 6 11 1 17 -2 13 -5z"/>
<path d="M210 279 c0 -5 -4 -7 -10 -4 -18 11 -10 -10 10 -28 11 -9 20 -12 20
-6 0 5 5 7 10 4 6 -4 8 -10 5 -15 -3 -4 3 -14 13 -21 15 -13 16 -12 3 4 -9 11
-10 17 -2 17 6 0 2 9 -9 20 -11 11 -20 25 -20 30 0 6 -4 10 -10 10 -5 0 -10
-5 -10 -11z"/>
<path d="M251 274 c0 -11 3 -14 6 -6 3 7 2 16 -1 19 -3 4 -6 -2 -5 -13z"/>
<path d="M394 225 c17 -13 33 -22 37 -19 4 2 10 -2 12 -8 3 -8 6 -5 6 6 1 12
-4 16 -14 12 -8 -3 -15 -2 -15 2 0 4 -12 13 -28 19 l-27 12 29 -24z"/>
<path d="M280 218 c0 -12 3 -18 7 -14 11 10 12 36 2 36 -5 0 -9 -10 -9 -22z"/>
<path d="M207 206 c4 -13 3 -17 -5 -12 -7 4 -12 2 -12 -3 0 -10 7 -13 26 -10
4 0 11 -5 15 -13 5 -7 9 -8 9 -3 0 6 -9 21 -20 35 -15 18 -18 20 -13 6z"/>
<path d="M460 198 c0 -9 8 -17 18 -17 9 0 37 -2 62 -5 31 -4 39 -3 25 4 -19 8
-19 9 2 9 12 1 24 -5 26 -11 4 -9 6 -9 6 -1 1 6 9 9 20 6 18 -4 39 13 28 23
-2 3 -35 0 -72 -6 -50 -8 -71 -8 -81 1 -11 9 -14 8 -14 -2 0 -11 -2 -11 -10 1
-8 13 -10 13 -10 -2z"/>
<path d="M351 193 c-1 -19 10 -43 21 -43 5 0 6 5 2 11 -4 7 -1 10 7 7 8 -3 13
-10 12 -15 -2 -12 35 -14 42 -2 4 5 -2 6 -11 2 -13 -5 -15 -3 -9 8 4 8 4 11 0
6 -5 -4 -17 0 -27 10 -14 13 -18 13 -19 2 0 -8 -4 -6 -9 6 -5 11 -9 15 -9 8z"/>
<path d="M325 149 c-1 -31 7 -30 12 1 1 10 -1 21 -5 24 -4 2 -7 -9 -7 -25z"/>
<path d="M217 149 c7 -7 15 -10 18 -7 3 3 -2 9 -12 12 -14 6 -15 5 -6 -5z"/>
<path d="M444 139 c-8 -14 11 -17 51 -10 l40 7 -43 5 c-24 3 -45 1 -48 -2z"/>
<path d="M596 132 c-2 -4 4 -8 15 -8 10 0 19 4 19 8 0 4 -6 8 -14 8 -8 0 -17
-4 -20 -8z"/>
<path d="M567 124 c-3 -3 -3 -17 -1 -31 3 -15 1 -22 -6 -18 -5 3 -10 1 -10 -5
0 -7 7 -9 16 -6 9 3 18 6 21 6 3 0 0 7 -7 15 -13 15 -2 21 16 8 5 -5 2 -1 -8
8 -9 9 -14 19 -11 23 4 3 4 6 1 6 -2 0 -7 -3 -11 -6z"/>
<path d="M288 103 c6 -2 10 -8 7 -13 -3 -4 2 -10 10 -14 8 -3 14 0 12 7 -2 14
-18 27 -32 26 -5 0 -4 -3 3 -6z"/>
<path d="M375 93 c17 -5 15 -7 -10 -17 -25 -10 -26 -13 -12 -19 10 -4 16 -3
13 2 -3 5 3 11 14 14 27 7 25 27 -2 26 -20 -1 -21 -2 -3 -6z"/>
<path d="M520 40 c0 -13 11 -13 30 0 12 8 11 10 -7 10 -13 0 -23 -4 -23 -10z"/>
<path d="M468 23 c7 -3 16 -2 19 1 4 3 -2 6 -13 5 -11 0 -14 -3 -6 -6z"/>
</g>
</svg>
