<svg version="1.1" id="Layer_1" xmlns="http://www.w3.org/2000/svg" xmlns:xlink="http://www.w3.org/1999/xlink" x="0px" y="0px"
	 width="100%" viewBox="0 0 100 100" enable-background="new 0 0 100 100" xml:space="preserve">
<path fill="#037D42" opacity="1.000000" stroke="none" 
	d="
M62.000000,101.000000 
	C41.333336,101.000000 21.166674,101.000000 1.000008,101.000000 
	C1.000005,67.666679 1.000005,34.333351 1.000003,1.000021 
	C34.333317,1.000014 67.666634,1.000014 100.999969,1.000007 
	C100.999977,34.333313 100.999977,67.666626 100.999985,100.999969 
	C88.166664,101.000000 75.333336,101.000000 62.000000,101.000000 
M77.822365,21.185135 
	C77.822365,21.185135 77.538445,21.072874 77.437637,20.782867 
	C77.316940,20.599586 77.147743,20.494064 76.818794,20.184566 
	C76.818794,20.184566 76.537369,20.072519 76.463989,19.803883 
	C76.356194,19.632257 76.201057,19.541821 75.734993,19.078405 
	C75.577576,19.001875 75.420151,18.925344 75.007423,18.252316 
	C74.044350,17.403006 73.081268,16.553694 71.892197,15.218266 
	C71.349777,14.763759 70.807358,14.309251 70.015579,13.256828 
	C69.003899,12.542003 67.992218,11.827178 66.055046,10.971264 
	C56.754566,10.964538 47.451267,10.836071 38.155945,11.051741 
	C36.250961,11.095940 33.928234,11.955964 32.563164,13.248174 
	C26.053776,19.410112 19.715254,25.762506 13.543562,32.263241 
	C12.231883,33.644848 11.233499,35.910385 11.179814,37.799625 
	C10.929889,46.594952 10.902504,55.406139 11.177394,64.199715 
	C11.241135,66.238724 12.340221,68.666824 13.755610,70.168953 
	C19.788141,76.571190 26.083132,82.728966 32.376938,88.879135 
	C33.327625,89.808128 34.778587,90.225159 36.924343,91.035393 
	C46.043678,91.041817 55.165077,91.150429 64.280563,90.966347 
	C66.052040,90.930580 68.252220,90.221336 69.484879,89.027748 
	C76.501411,82.233658 83.284546,75.198524 90.731247,67.917290 
	C90.796730,67.276474 90.862213,66.635651 91.008965,65.499046 
	C90.960968,65.338608 90.912964,65.178162 91.005783,64.087509 
	C91.009789,57.688633 91.111084,51.287769 90.980263,44.891651 
	C90.905167,41.219456 90.453598,37.554958 90.005203,33.373009 
	C89.860001,33.266510 89.714798,33.160011 89.333969,32.644676 
	C88.866333,32.245872 88.398697,31.847071 87.511467,30.888941 
	C85.832680,29.257866 84.153885,27.626789 82.409035,25.709248 
	C82.303307,25.519775 82.141975,25.422544 81.848442,25.188911 
	C81.848442,25.188911 81.615799,25.125483 81.345627,24.684525 
	C80.952065,24.378180 80.558502,24.071833 80.147202,23.842173 
	C80.147202,23.842173 80.224449,23.827076 80.045464,23.307617 
	C79.743103,23.113089 79.440742,22.918558 78.925339,22.258059 
	C78.778809,22.170324 78.632278,22.082592 78.404732,21.729422 
	C78.294815,21.559605 78.138718,21.472572 77.822365,21.185135 
z"/>
<path fill="#D7F9EB" opacity="1.000000" stroke="none" 
	d="
M35.998138,90.878998 
	C34.778587,90.225159 33.327625,89.808128 32.376938,88.879135 
	C26.083132,82.728966 19.788141,76.571190 13.755610,70.168953 
	C12.340221,68.666824 11.241135,66.238724 11.177394,64.199715 
	C10.902504,55.406139 10.929889,46.594952 11.179814,37.799625 
	C11.233499,35.910385 12.231883,33.644848 13.543562,32.263241 
	C19.715254,25.762506 26.053776,19.410112 32.563164,13.248174 
	C33.928234,11.955964 36.250961,11.095940 38.155945,11.051741 
	C47.451267,10.836071 56.754566,10.964538 66.546638,11.389319 
	C67.020447,12.504031 67.002663,13.200686 66.522034,13.823702 
	C57.071331,13.722829 48.082214,13.610852 39.096764,13.744635 
	C37.432873,13.769408 35.327888,14.320028 34.202953,15.421185 
	C27.677008,21.809179 21.383375,28.434500 14.655628,35.226692 
	C14.202853,44.952438 14.064445,54.430996 14.054652,63.909691 
	C14.053251,65.265053 14.673954,66.621063 15.123489,68.291916 
	C18.481415,71.741982 21.722597,74.876892 25.037071,78.263580 
	C25.412876,78.613808 25.715389,78.712265 26.325562,78.959000 
	C29.710274,81.815338 32.787327,84.523399 35.842831,87.522339 
	C35.885750,88.194885 35.950214,88.576561 36.011833,89.278366 
	C36.005367,90.025330 36.001751,90.452164 35.998138,90.878998 
z"/>
<path fill="#D7F8EA" opacity="1.000000" stroke="none" 
	d="
M36.461243,90.957199 
	C36.001751,90.452164 36.005367,90.025330 36.443893,89.270935 
	C37.719280,88.781708 38.559757,88.620041 39.815086,88.439972 
	C43.502132,88.409813 46.774326,88.398056 50.198566,88.558685 
	C50.891922,88.586731 51.433224,88.442398 52.438301,88.341980 
	C57.651028,87.741814 62.936604,88.178284 67.002617,86.159035 
	C71.333061,84.008446 74.509483,79.534103 78.432388,75.997620 
	C78.866493,75.647217 79.057991,75.373528 79.521957,74.976364 
	C79.952606,74.291908 80.110802,73.730919 80.463715,73.150589 
	C80.658447,73.131241 80.998260,72.937065 81.319000,72.920532 
	C82.485725,71.958435 83.331711,71.012856 84.459396,69.964828 
	C85.518517,68.970970 86.295952,68.079559 87.333466,67.063156 
	C87.839355,66.643623 88.085175,66.349083 88.549164,66.056061 
	C88.767342,66.057587 89.198517,65.990555 89.442352,66.057487 
	C89.848801,66.168861 90.011414,66.213310 90.167923,66.586250 
	C90.156906,67.358276 90.151970,67.801811 90.147041,68.245346 
	C83.284546,75.198524 76.501411,82.233658 69.484879,89.027748 
	C68.252220,90.221336 66.052040,90.930580 64.280563,90.966347 
	C55.165077,91.150429 46.043678,91.041817 36.461243,90.957199 
z"/>
<path fill="#E8FFF7" opacity="1.000000" stroke="none" 
	d="
M90.174019,66.257759 
	C90.011414,66.213310 89.848801,66.168861 89.401642,65.788956 
	C88.914246,64.964317 88.711403,64.475143 88.460709,63.657776 
	C88.443321,62.889488 88.473785,62.449406 88.674988,61.792763 
	C88.734268,60.715096 88.622818,59.853985 88.449844,58.582169 
	C88.416870,56.790058 88.445435,55.408653 88.610413,53.925289 
	C88.653671,53.538757 88.560516,53.254192 88.414764,52.560116 
	C88.396545,50.777615 88.430931,49.404629 88.605469,47.932289 
	C88.780418,47.723984 88.873482,47.588764 88.838531,47.511242 
	C88.750824,47.316692 88.605225,47.148235 88.418915,46.589741 
	C88.359528,45.441334 88.364075,44.672497 88.578125,43.573654 
	C88.842880,40.514008 88.898117,37.784370 89.132507,34.836456 
	C89.598267,34.374451 89.884888,34.130726 90.171501,33.886997 
	C90.453598,37.554958 90.905167,41.219456 90.980263,44.891651 
	C91.111084,51.287769 91.009789,57.688633 90.780106,64.707611 
	C90.365166,65.556892 90.227226,65.813660 90.157661,66.136116 
	C90.174698,66.174240 90.174019,66.257759 90.174019,66.257759 
z"/>
<path fill="#D7F9EB" opacity="1.000000" stroke="none" 
	d="
M90.088348,33.630005 
	C89.884888,34.130726 89.598267,34.374451 88.841721,34.808640 
	C87.981918,34.986778 87.592033,34.974449 87.044197,34.660023 
	C82.087082,29.289549 77.287933,24.221172 72.948341,19.078709 
	C74.026176,18.952682 74.644455,18.900747 75.262726,18.848812 
	C75.420151,18.925344 75.577576,19.001875 75.901077,19.441132 
	C76.175095,19.978817 76.331833,20.068371 76.537369,20.072519 
	C76.537369,20.072519 76.818794,20.184566 76.919342,20.474064 
	C77.140923,20.953543 77.313774,21.056646 77.538445,21.072874 
	C77.538445,21.072874 77.822365,21.185135 77.916183,21.461601 
	C78.121155,21.911526 78.279739,21.997124 78.485748,21.994862 
	C78.632278,22.082592 78.778809,22.170324 79.148148,22.731264 
	C79.655449,23.412006 79.939949,23.619541 80.224449,23.827076 
	C80.224449,23.827076 80.147202,23.842173 80.254532,24.048000 
	C80.779839,24.544380 81.197823,24.834932 81.615799,25.125483 
	C81.615799,25.125483 81.848442,25.188911 81.922050,25.444550 
	C82.102379,25.884846 82.262192,25.983356 82.475098,25.995714 
	C84.153885,27.626789 85.832680,29.257866 87.780304,31.408478 
	C88.555954,32.303181 89.062775,32.678349 89.569588,33.053513 
	C89.714798,33.160011 89.860001,33.266510 90.088348,33.630005 
z"/>
<path fill="#D7F9EB" opacity="1.000000" stroke="none" 
	d="
M70.264938,13.854743 
	C70.807358,14.309251 71.349777,14.763759 71.981277,15.947069 
	C71.997086,17.320211 71.923813,17.964552 71.565170,18.408928 
	C69.996887,16.876909 68.713982,15.544856 67.900177,14.129492 
	C69.001167,13.982368 69.633057,13.918555 70.264938,13.854743 
z"/>
<path fill="#B8E8D3" opacity="1.000000" stroke="none" 
	d="
M71.850548,18.608892 
	C71.923813,17.964552 71.997086,17.320211 72.094269,16.190126 
	C73.081268,16.553694 74.044350,17.403006 75.135071,18.550564 
	C74.644455,18.900747 74.026176,18.952682 72.784897,19.073067 
	C71.932846,19.037191 71.829063,18.859650 71.850548,18.608892 
z"/>
<path fill="#B8E8D3" opacity="1.000000" stroke="none" 
	d="
M70.140259,13.555786 
	C69.633057,13.918555 69.001167,13.982368 67.744171,14.113423 
	C67.119064,14.180666 66.984879,13.897343 66.984879,13.897343 
	C67.002663,13.200686 67.020447,12.504031 67.009384,11.459864 
	C67.992218,11.827178 69.003899,12.542003 70.140259,13.555786 
z"/>
<path fill="#B8E8D3" opacity="1.000000" stroke="none" 
	d="
M89.451782,32.849094 
	C89.062775,32.678349 88.555954,32.303181 87.990097,31.688141 
	C88.398697,31.847071 88.866333,32.245872 89.451782,32.849094 
z"/>
<path fill="#B8E8D3" opacity="1.000000" stroke="none" 
	d="
M81.480713,24.905003 
	C81.197823,24.834932 80.779839,24.544380 80.263397,24.009659 
	C80.558502,24.071833 80.952065,24.378180 81.480713,24.905003 
z"/>
<path fill="#B8E8D3" opacity="1.000000" stroke="none" 
	d="
M90.439148,68.081314 
	C90.151970,67.801811 90.156906,67.358276 90.167923,66.586250 
	C90.174019,66.257759 90.174698,66.174240 90.355057,66.119530 
	C90.535416,66.064819 90.927696,65.994835 90.927696,65.994835 
	C90.862213,66.635651 90.796730,67.276474 90.439148,68.081314 
z"/>
<path fill="#B8E8D3" opacity="1.000000" stroke="none" 
	d="
M76.500679,19.938202 
	C76.331833,20.068371 76.175095,19.978817 76.032867,19.668213 
	C76.201057,19.541821 76.356194,19.632257 76.500679,19.938202 
z"/>
<path fill="#B8E8D3" opacity="1.000000" stroke="none" 
	d="
M77.488037,20.927872 
	C77.313774,21.056646 77.140923,20.953543 76.974960,20.614933 
	C77.147743,20.494064 77.316940,20.599586 77.488037,20.927872 
z"/>
<path fill="#B8E8D3" opacity="1.000000" stroke="none" 
	d="
M82.442062,25.852482 
	C82.262192,25.983356 82.102379,25.884846 81.960342,25.558872 
	C82.141975,25.422544 82.303307,25.519775 82.442062,25.852482 
z"/>
<path fill="#B8E8D3" opacity="1.000000" stroke="none" 
	d="
M80.134956,23.567347 
	C79.939949,23.619541 79.655449,23.412006 79.254669,22.964249 
	C79.440742,22.918558 79.743103,23.113089 80.134956,23.567347 
z"/>
<path fill="#B8E8D3" opacity="1.000000" stroke="none" 
	d="
M78.445236,21.862141 
	C78.279739,21.997124 78.121155,21.911526 77.973228,21.603197 
	C78.138718,21.472572 78.294815,21.559605 78.445236,21.862141 
z"/>
<path fill="#D7F8EA" opacity="1.000000" stroke="none" 
	d="
M90.968330,65.746941 
	C90.927696,65.994835 90.535416,66.064819 90.338020,66.081406 
	C90.227226,65.813660 90.365166,65.556892 90.709702,65.172714 
	C90.912964,65.178162 90.960968,65.338608 90.968330,65.746941 
z"/>
<path fill="#127C49" opacity="1.000000" stroke="none" 
	d="
M66.522034,13.823702 
	C66.984879,13.897343 67.119064,14.180666 67.275070,14.196733 
	C68.713982,15.544856 69.996887,16.876909 71.565170,18.408928 
	C71.829063,18.859650 71.932846,19.037191 72.325333,19.147156 
	C77.287933,24.221172 82.087082,29.289549 87.012100,35.102749 
	C87.129295,38.484402 87.120636,41.121235 87.089828,44.241409 
	C87.069588,52.212559 87.071487,59.700356 87.073387,67.188156 
	C86.295952,68.079559 85.518517,68.970970 84.127289,70.017006 
	C82.675079,71.093437 81.836670,72.015251 80.998260,72.937065 
	C80.998260,72.937065 80.658447,73.131241 80.226463,72.932205 
	C79.527306,72.156326 79.260132,71.579468 79.239563,70.851845 
	C79.991966,70.130264 80.497772,69.559448 81.207451,68.716904 
	C81.922256,66.932335 82.433182,65.419487 83.082642,63.595253 
	C83.531883,60.347721 83.842598,57.411572 84.133469,54.492233 
	C84.113632,54.509048 84.154877,54.540531 84.453232,54.434929 
	C84.915009,53.664722 85.078438,53.000118 85.241859,52.335510 
	C83.812775,52.490128 82.383682,52.644749 80.640968,52.770363 
	C79.886559,52.309113 79.445770,51.876869 79.178864,51.157684 
	C79.858315,50.437679 80.363884,50.004616 81.154083,49.686832 
	C82.248390,48.638168 83.058067,47.474228 83.887100,45.906647 
	C83.920364,44.964745 83.934280,44.426483 83.896088,43.618290 
	C83.568275,43.115887 83.292564,42.883408 82.797737,42.487808 
	C81.794708,41.584229 81.010803,40.843769 80.241829,39.731701 
	C79.861053,37.932804 79.465347,36.505512 79.053497,34.884182 
	C79.016113,34.431152 78.992653,34.172363 79.057617,33.666405 
	C78.770790,32.939465 78.393311,32.459892 77.926376,31.721497 
	C76.931938,31.202356 76.026939,30.942041 75.096581,30.424725 
	C75.041725,29.822411 75.012238,29.477100 74.881264,28.818398 
	C72.518066,26.721390 70.343086,24.810905 67.970627,23.189333 
	C65.528175,21.519926 63.050770,19.603193 60.294521,18.782301 
	C57.931339,18.078474 55.143272,18.677801 52.567692,18.941181 
	C52.172894,18.981554 51.910641,20.318089 51.273022,21.113811 
	C50.299122,22.442207 49.639286,23.711946 48.632553,25.018848 
	C47.523563,26.034948 46.761475,27.013887 45.974319,28.325745 
	C45.277660,29.379446 44.606068,30.100229 43.864574,30.488998 
	C41.567135,25.496489 38.341209,24.959793 34.320972,28.745806 
	C31.490871,31.411022 28.836540,34.262886 25.935640,37.010826 
	C25.767553,36.990234 25.431366,36.974728 25.351826,36.647705 
	C22.841631,34.232948 22.230431,35.685181 21.763857,38.161991 
	C20.893406,41.272373 20.271765,44.191589 19.824747,47.137310 
	C19.799294,47.305027 21.203138,47.689644 22.149393,48.227203 
	C22.574249,49.318214 22.791481,50.155334 22.644436,51.002174 
	C21.171467,51.382740 20.062777,51.753586 18.579041,52.130726 
	C18.185261,54.440647 18.166533,56.744274 18.146141,59.323700 
	C18.416929,59.758316 18.689377,59.917130 18.863319,60.098274 
	C18.764811,60.120609 18.805212,60.318542 18.908794,60.557159 
	C19.325710,60.950047 19.639046,61.104321 19.963577,61.572929 
	C20.023478,62.303699 20.072182,62.720139 20.120987,63.466454 
	C22.055330,65.964699 23.989576,68.133072 25.927418,70.573051 
	C25.938805,71.206688 25.946592,71.568703 25.826153,72.173256 
	C26.157949,73.517242 26.617977,74.618690 26.952311,76.007996 
	C26.552145,76.860962 26.277674,77.426064 25.743290,77.993523 
	C25.310177,78.001183 25.136978,78.006493 24.963778,78.011810 
	C21.722597,74.876892 18.481415,71.741982 15.133873,67.824905 
	C15.022061,56.355007 15.016611,45.667278 15.011162,34.979546 
	C21.383375,28.434500 27.677008,21.809179 34.202953,15.421185 
	C35.327888,14.320028 37.432873,13.769408 39.096764,13.744635 
	C48.082214,13.610852 57.071331,13.722829 66.522034,13.823702 
z"/>
<path fill="#0D7A45" opacity="1.000000" stroke="none" 
	d="
M26.003201,77.991173 
	C26.277674,77.426064 26.552145,76.860962 27.268492,76.088425 
	C28.142168,75.919281 28.573971,75.957565 29.256224,76.136703 
	C29.668859,76.379501 29.831041,76.481461 29.982065,76.758362 
	C30.099634,77.151909 30.290239,77.273102 30.679907,77.623299 
	C32.197891,78.667122 33.578690,79.384552 35.054176,80.254753 
	C35.280857,80.605324 35.426830,80.792198 35.827503,81.204742 
	C36.872383,81.657364 37.676533,81.873383 38.539158,82.399765 
	C38.797970,82.774849 38.998310,82.839592 39.306412,82.951294 
	C39.414177,82.998260 39.878338,83.055344 40.190937,83.109482 
	C40.712677,83.132118 40.921822,83.100616 41.277332,83.090248 
	C41.423702,83.111374 41.720009,83.106628 41.879341,83.252449 
	C42.400555,83.266449 42.762444,83.134636 43.488224,82.987495 
	C44.336781,82.928490 44.821442,82.884796 45.656418,82.893616 
	C47.547604,83.921333 49.088474,84.896561 50.629349,85.871788 
	C51.355110,84.334602 52.141617,82.822083 52.780125,81.249466 
	C53.083836,80.501427 53.105633,79.638939 53.432125,78.763504 
	C53.685410,78.601135 53.846912,78.454659 53.823685,78.414185 
	C53.704899,78.207207 53.538464,78.027573 53.325729,77.921150 
	C53.262768,78.003922 53.054844,77.998672 53.378784,77.680695 
	C54.801105,76.907654 55.899487,76.452606 56.996719,76.348373 
	C56.983334,77.396156 56.971096,78.093117 56.749901,79.036819 
	C56.296936,81.939819 56.472340,84.177696 60.447475,83.080162 
	C60.903580,83.392754 61.072418,83.536903 61.335945,83.734436 
	C61.685555,83.791229 61.867130,83.676849 62.201210,83.304138 
	C62.590641,83.095146 62.754230,83.026680 63.125038,82.849518 
	C63.581520,82.551430 63.811306,82.340790 64.379974,82.031540 
	C66.267517,80.663651 67.796715,79.373108 69.452972,78.214157 
	C69.898567,78.332657 70.217094,78.319565 70.867569,78.065376 
	C72.081062,77.185738 72.962585,76.547195 74.154877,75.900620 
	C75.011986,75.622368 75.558350,75.352150 76.366867,75.200500 
	C77.149269,75.570816 77.669518,75.822571 78.189766,76.074326 
	C74.509483,79.534103 71.333061,84.008446 67.002617,86.159035 
	C62.936604,88.178284 57.651028,87.741814 52.362835,88.022568 
	C51.231236,87.901604 50.638874,88.143951 50.046516,88.386299 
	C46.774326,88.398056 43.502132,88.409813 39.644508,88.139252 
	C37.994175,87.648438 36.929276,87.439957 35.864380,87.231476 
	C32.787327,84.523399 29.710274,81.815338 26.319901,78.754158 
	C26.006580,78.401039 26.003201,77.991173 26.003201,77.991173 
z"/>
<path fill="#217950" opacity="1.000000" stroke="none" 
	d="
M14.655627,35.226692 
	C15.016611,45.667278 15.022061,56.355007 15.017127,67.509758 
	C14.673954,66.621063 14.053251,65.265053 14.054652,63.909691 
	C14.064445,54.430996 14.202853,44.952438 14.655627,35.226692 
z"/>
<path fill="#83C3A8" opacity="1.000000" stroke="none" 
	d="
M35.842831,87.522339 
	C36.929276,87.439957 37.994175,87.648438 39.229652,88.157654 
	C38.559757,88.620041 37.719280,88.781708 36.446739,88.950806 
	C35.950214,88.576561 35.885750,88.194885 35.842831,87.522339 
z"/>
<path fill="#217950" opacity="1.000000" stroke="none" 
	d="
M25.743290,77.993523 
	C26.003201,77.991173 26.006580,78.401039 26.012241,78.605881 
	C25.715389,78.712265 25.412876,78.613808 25.037071,78.263580 
	C25.136978,78.006493 25.310177,78.001183 25.743290,77.993523 
z"/>
<path fill="#2B855A" opacity="1.000000" stroke="none" 
	d="
M76.104713,75.081940 
	C75.558350,75.352150 75.011986,75.622368 74.317871,75.657333 
	C74.130096,74.569969 74.090073,73.717857 73.936325,72.587318 
	C73.184349,71.884995 72.546089,71.461098 71.698631,71.064285 
	C71.489426,71.091370 71.109612,71.275085 70.751892,71.235504 
	C69.923065,71.109108 69.451973,71.022285 69.115906,70.701233 
	C69.511993,69.993744 69.773041,69.520485 70.364677,69.034111 
	C71.768616,68.638802 72.841965,68.256599 73.915314,67.874405 
	C73.620567,67.581337 73.325821,67.288277 73.081520,66.696274 
	C73.469582,65.915428 73.807190,65.433525 74.496178,64.905457 
	C75.549828,64.926987 76.252106,64.994675 77.130646,65.305817 
	C77.882828,65.685127 78.458733,65.820992 79.348007,65.886215 
	C80.755623,65.179260 81.849869,64.542953 82.944107,63.906639 
	C82.433182,65.419487 81.922256,66.932335 80.917152,68.740425 
	C79.946304,69.691322 79.469635,70.346970 78.992958,71.002617 
	C79.260132,71.579468 79.527306,72.156326 80.031738,72.951553 
	C80.110802,73.730919 79.952606,74.291908 79.252182,74.857376 
	C77.841530,74.935219 76.973122,75.008575 76.104713,75.081940 
z"/>
<path fill="#167B4B" opacity="1.000000" stroke="none" 
	d="
M87.333466,67.063156 
	C87.071487,59.700356 87.069588,52.212559 87.400314,44.309311 
	C87.944847,43.897133 88.156738,43.900398 88.368622,43.903660 
	C88.364075,44.672497 88.359528,45.441334 88.316216,46.853737 
	C88.340065,47.675411 88.402687,47.853523 88.465309,48.031639 
	C88.430931,49.404629 88.396545,50.777615 88.316147,52.825161 
	C88.338074,53.675564 88.406036,53.851406 88.473991,54.027252 
	C88.445435,55.408653 88.416870,56.790058 88.318390,58.947979 
	C88.333725,60.486107 88.418983,61.247711 88.504242,62.009319 
	C88.473785,62.449406 88.443321,62.889488 88.330124,63.987431 
	C88.275253,65.115036 88.303123,65.584793 88.330994,66.054543 
	C88.085175,66.349083 87.839355,66.643623 87.333466,67.063156 
z"/>
<path fill="#167B4B" opacity="1.000000" stroke="none" 
	d="
M81.319000,72.920532 
	C81.836670,72.015251 82.675079,71.093437 83.845596,70.119461 
	C83.331711,71.012856 82.485725,71.958435 81.319000,72.920532 
z"/>
<path fill="#167B4B" opacity="1.000000" stroke="none" 
	d="
M76.366867,75.200500 
	C76.973122,75.008575 77.841530,74.935219 78.979713,74.980850 
	C79.057991,75.373528 78.866493,75.647217 78.432388,75.997620 
	C77.669518,75.822571 77.149269,75.570816 76.366867,75.200500 
z"/>
<path fill="#83C3A8" opacity="1.000000" stroke="none" 
	d="
M50.198566,88.558685 
	C50.638874,88.143951 51.231236,87.901604 51.899063,87.978661 
	C51.433224,88.442398 50.891922,88.586731 50.198566,88.558685 
z"/>
<path fill="#B8E8D3" opacity="1.000000" stroke="none" 
	d="
M88.549171,66.056061 
	C88.303123,65.584793 88.275253,65.115036 88.377975,64.315628 
	C88.711403,64.475143 88.914246,64.964317 89.157799,65.722023 
	C89.198517,65.990555 88.767342,66.057587 88.549171,66.056061 
z"/>
<path fill="#B8E8D3" opacity="1.000000" stroke="none" 
	d="
M88.578125,43.573654 
	C88.156738,43.900398 87.944847,43.897133 87.422455,43.825966 
	C87.120636,41.121235 87.129295,38.484402 87.170059,35.404846 
	C87.592033,34.974449 87.981918,34.986778 88.662582,35.026917 
	C88.898117,37.784370 88.842880,40.514008 88.578125,43.573654 
z"/>
<path fill="#B8E8D3" opacity="1.000000" stroke="none" 
	d="
M88.674980,61.792763 
	C88.418983,61.247711 88.333725,60.486107 88.379913,59.358688 
	C88.622818,59.853985 88.734268,60.715096 88.674980,61.792763 
z"/>
<path fill="#B8E8D3" opacity="1.000000" stroke="none" 
	d="
M88.610413,53.925289 
	C88.406036,53.851406 88.338074,53.675564 88.368744,53.234673 
	C88.560516,53.254192 88.653671,53.538757 88.610413,53.925289 
z"/>
<path fill="#B8E8D3" opacity="1.000000" stroke="none" 
	d="
M88.605469,47.932289 
	C88.402687,47.853523 88.340065,47.675411 88.380150,47.233307 
	C88.605225,47.148235 88.750824,47.316692 88.838531,47.511242 
	C88.873482,47.588764 88.780418,47.723984 88.605469,47.932289 
z"/>
<path fill="#067D43" opacity="1.000000" stroke="none" 
	d="
M26.103727,37.031414 
	C28.836540,34.262886 31.490871,31.411022 34.320972,28.745806 
	C38.341209,24.959793 41.567135,25.496489 43.611595,30.525421 
	C43.259594,30.917404 43.090672,30.940945 42.695702,30.970818 
	C42.469662,30.977150 42.017567,30.989594 41.813938,31.126865 
	C41.350777,31.468510 41.128433,31.707481 40.574104,32.062634 
	C37.561962,32.794621 34.918983,33.445023 31.541876,34.276081 
	C34.068268,36.677670 35.979935,38.494900 37.686047,40.116726 
	C39.786400,37.715534 41.389900,35.882362 43.323952,33.952679 
	C45.581264,33.171997 47.963585,29.751686 48.704391,34.971336 
	C48.672848,36.480000 48.883270,37.754562 49.060661,39.252422 
	C49.027634,39.475716 49.124893,39.916607 49.128960,40.165558 
	C49.275558,40.747437 49.524208,40.950325 49.881847,41.435993 
	C49.572906,45.233738 49.261093,48.618668 48.783192,52.227547 
	C48.727985,53.300385 48.838863,54.149273 48.998371,55.329945 
	C49.012543,56.106255 48.978085,56.550777 48.710823,57.272652 
	C47.950993,59.161156 47.423969,60.772301 46.605110,62.324028 
	C45.916931,62.278156 45.520588,62.291706 45.087284,61.895805 
	C43.962166,60.340721 42.977528,58.402275 41.760532,58.243370 
	C40.114330,58.028423 38.289753,59.179607 36.541702,59.744678 
	C36.617172,60.236828 36.692642,60.728977 36.768108,61.221127 
	C38.341526,62.188496 39.914944,63.155865 41.282116,63.996433 
	C40.819584,66.588387 40.420609,68.824196 40.016281,71.383331 
	C40.006866,72.137787 40.002804,72.568924 39.622757,73.000443 
	C38.494705,73.001373 37.742638,73.001923 36.665207,72.931587 
	C34.890076,71.809929 33.440304,70.759148 31.847198,69.414948 
	C30.148987,66.748306 28.594110,64.375092 26.979288,61.732101 
	C26.612329,61.305744 26.305317,61.149170 25.771149,60.940453 
	C25.543993,60.888309 25.085407,60.804817 25.079618,60.618771 
	C25.073830,60.432724 25.033123,60.062683 25.153618,59.655891 
	C25.241488,57.844082 25.208860,56.439064 25.246613,54.903416 
	C25.377871,54.457478 25.287037,54.193451 24.956703,53.672424 
	C24.260561,52.825127 23.652206,52.286110 23.037933,51.558304 
	C23.032011,51.369507 23.008715,50.992455 23.008715,50.992455 
	C22.791481,50.155334 22.574249,49.318214 22.247782,47.879242 
	C22.781378,44.931683 23.424208,42.585972 24.053215,40.180779 
	C24.039392,40.121292 24.144548,40.059162 24.321226,40.002106 
	C24.615082,39.842979 24.842054,39.723991 24.829407,39.641933 
	C24.786882,39.366043 24.659018,39.103298 24.653595,38.612896 
	C24.743387,38.390266 25.042934,38.015068 25.235497,37.869270 
	C25.668839,37.507973 25.894062,37.277287 26.103727,37.031414 
z"/>
<path fill="#268254" opacity="1.000000" stroke="none" 
	d="
M51.587082,21.055157 
	C51.910641,20.318089 52.172894,18.981554 52.567692,18.941181 
	C55.143272,18.677801 57.931339,18.078474 60.294521,18.782301 
	C63.050770,19.603193 65.528175,21.519926 67.970627,23.189333 
	C70.343086,24.810905 72.518066,26.721390 74.590157,28.867205 
	C73.935143,29.817089 73.469749,30.404774 72.755760,30.990938 
	C72.507164,30.989416 72.010056,30.988745 71.815926,30.779419 
	C71.068657,30.048958 70.515526,29.527821 69.829575,28.840893 
	C69.497444,28.469397 69.265900,28.310745 68.750542,28.185337 
	C68.332054,28.152662 68.165146,28.133802 67.815582,27.880646 
	C67.055641,27.110880 66.478355,26.575409 65.908218,25.768005 
	C65.235260,25.115145 64.555153,24.734219 63.564392,24.289377 
	C62.834846,24.167233 62.415962,24.109001 61.791161,23.845253 
	C61.047096,23.445143 60.508949,23.250547 59.597862,23.052204 
	C58.479130,23.035387 57.733341,23.022318 56.879631,22.910963 
	C56.476696,22.683422 56.223209,22.749382 55.860306,23.206490 
	C55.489567,23.650480 55.249973,23.877657 54.739136,24.068596 
	C54.320492,24.037546 54.153286,24.021852 53.960045,23.681282 
	C53.300343,22.651188 52.666679,21.945969 51.919777,21.198563 
	C51.806541,21.156374 51.587082,21.055155 51.587082,21.055157 
z"/>
<path fill="#80C2A2" opacity="1.000000" stroke="none" 
	d="
M83.082634,63.595253 
	C81.849869,64.542953 80.755623,65.179260 79.277344,65.664276 
	C78.246986,65.362785 77.600685,65.212570 76.954376,65.062363 
	C76.252106,64.994675 75.549828,64.926987 74.602783,64.696793 
	C74.562492,64.296974 74.775627,64.067680 75.269417,63.761116 
	C75.626770,63.136375 75.712097,62.596928 75.867523,61.679264 
	C76.358940,59.568295 76.780266,57.835545 77.438797,55.916454 
	C77.840195,55.156471 78.004379,54.582825 78.488571,54.068661 
	C79.020866,54.173145 79.233162,54.218151 79.506531,54.287689 
	C79.567612,54.312222 79.718971,54.508656 80.147957,54.661968 
	C81.769066,54.701996 82.961189,54.588711 84.153313,54.475422 
	C83.842598,57.411572 83.531883,60.347721 83.082634,63.595253 
z"/>
<path fill="#047B42" opacity="1.000000" stroke="none" 
	d="
M61.997082,24.050768 
	C62.415962,24.109001 62.834846,24.167233 63.598282,24.556995 
	C63.969711,25.251381 63.996590,25.614233 63.995110,26.332951 
	C62.371952,28.457556 60.777153,30.226295 59.068447,31.735870 
	C58.621254,31.024796 58.287975,30.572880 57.888649,29.847391 
	C56.882927,29.382433 55.943245,29.191050 54.669868,28.980820 
	C53.892353,28.923841 53.448528,28.885706 52.902943,28.595217 
	C51.536491,28.557575 50.271809,28.772285 48.698235,28.916233 
	C47.592693,28.561253 46.796040,28.277039 45.999382,27.992826 
	C46.761475,27.013887 47.523563,26.034948 48.990429,25.019712 
	C50.797020,24.657135 51.898838,24.330853 53.247013,24.004993 
	C53.493370,24.005419 53.986080,24.006159 53.986080,24.006159 
	C54.153286,24.021852 54.320492,24.037546 54.769455,24.374992 
	C56.482975,28.488693 58.339161,25.150679 60.281025,24.934879 
	C61.036324,24.602295 61.516705,24.326530 61.997082,24.050768 
z"/>
<path fill="#238756" opacity="1.000000" stroke="none" 
	d="
M53.004707,28.847570 
	C53.448528,28.885706 53.892353,28.923841 54.895142,29.188070 
	C56.017929,29.640608 56.581753,29.867050 56.998798,30.317696 
	C56.582100,31.140137 56.312172,31.738373 56.027016,32.658630 
	C55.959423,33.620399 55.907055,34.260147 55.603935,34.932831 
	C55.186069,34.988171 55.018963,35.010586 54.517166,34.963917 
	C52.437107,34.842304 50.691734,34.789776 48.946362,34.737244 
	C47.963585,29.751686 45.581264,33.171997 43.030880,33.851730 
	C41.919262,33.225208 41.431267,32.603130 40.943272,31.981050 
	C41.128433,31.707481 41.350777,31.468510 41.916435,31.218800 
	C42.222557,31.173460 42.607853,31.211430 42.607853,31.211430 
	C42.607853,31.211430 42.921745,30.964485 42.921745,30.964485 
	C43.090672,30.940945 43.259594,30.917404 43.681496,30.857437 
	C44.606068,30.100229 45.277660,29.379446 45.974319,28.325745 
	C46.796040,28.277039 47.592693,28.561253 48.935555,29.089922 
	C50.656078,29.172108 51.830391,29.009840 53.004707,28.847570 
z"/>
<path fill="#77C09E" opacity="1.000000" stroke="none" 
	d="
M23.043854,51.747097 
	C23.652206,52.286110 24.260561,52.825127 24.942108,53.941769 
	C25.068947,54.690945 25.122589,54.862499 25.176231,55.034050 
	C25.208860,56.439064 25.241488,57.844082 24.829807,59.568993 
	C22.986942,59.895031 21.588385,59.901176 19.839226,59.995163 
	C19.260822,60.161514 19.033016,60.240028 18.805212,60.318542 
	C18.805212,60.318542 18.764811,60.120609 18.751942,59.908363 
	C18.575005,59.449921 18.377914,59.233849 18.147802,59.047901 
	C18.166533,56.744274 18.185261,54.440647 18.775612,52.402092 
	C20.579441,52.360477 21.811646,52.053787 23.043854,51.747097 
z"/>
<path fill="#087D45" opacity="1.000000" stroke="none" 
	d="
M78.168564,54.009182 
	C78.004379,54.582825 77.840195,55.156471 77.155525,55.730408 
	C76.966309,51.200710 77.295555,46.670563 77.647285,42.142166 
	C77.652794,42.071217 77.934868,42.021748 78.315910,42.174477 
	C79.403351,42.906944 80.262749,43.427189 81.338638,43.991600 
	C81.555122,44.035767 81.970924,44.185276 81.991562,44.540775 
	C82.051857,45.370152 82.091515,45.844032 81.970207,46.502518 
	C81.357628,46.866314 80.906021,47.045502 80.363800,47.152157 
	C80.273186,47.079628 80.009560,47.109646 80.009560,47.109646 
	C80.009560,47.109646 80.356682,47.342167 80.512741,47.589050 
	C80.735680,48.414471 80.802567,48.993011 80.869453,49.571552 
	C80.363884,50.004616 79.858315,50.437679 78.887833,51.383591 
	C78.338135,52.600685 78.253349,53.304932 78.168564,54.009182 
z"/>
<path fill="#339064" opacity="1.000000" stroke="none" 
	d="
M27.039234,62.001881 
	C28.594110,64.375092 30.148987,66.748306 31.834686,69.623306 
	C31.965509,70.125092 31.969282,70.542389 31.651670,70.667496 
	C30.439625,71.488617 29.545191,72.184616 28.326550,72.734238 
	C27.780600,72.503769 27.558855,72.419693 27.490343,72.092323 
	C27.781750,71.719643 27.919920,71.590263 28.067799,71.495605 
	C28.077507,71.530319 27.984434,71.607178 27.474293,71.671585 
	C26.627562,71.800903 26.290972,71.865814 25.954380,71.930725 
	C25.946592,71.568703 25.938805,71.206688 26.213886,70.323242 
	C27.129343,69.023537 27.761929,68.245255 28.415810,67.472702 
	C28.437103,67.478424 28.405268,67.495918 28.136063,67.421745 
	C27.540295,66.924026 27.213730,66.500481 26.824205,65.794922 
	C26.490915,65.003242 26.220585,64.493584 25.960867,63.750942 
	C25.971481,63.517956 25.875254,63.061535 25.918221,62.814415 
	C25.983522,62.401577 26.005857,62.235855 26.281305,62.058285 
	C26.702692,62.031586 26.870964,62.016731 27.039234,62.001881 
z"/>
<path fill="#73BC99" opacity="1.000000" stroke="none" 
	d="
M26.028193,62.070129 
	C26.005857,62.235855 25.983522,62.401577 25.649366,62.864826 
	C24.889893,63.452988 24.442242,63.743618 23.999493,64.009094 
	C24.004395,63.983944 24.045649,64.014359 23.803747,64.051224 
	C23.277456,64.396332 22.993069,64.704575 22.708679,65.012810 
	C23.265898,64.981323 23.823118,64.949837 24.617367,65.068169 
	C25.531988,65.504295 26.209578,65.790619 26.887165,66.076935 
	C27.213730,66.500481 27.540295,66.924026 28.098789,67.434036 
	C28.330719,67.520500 28.394516,67.466980 28.394516,67.466980 
	C27.761929,68.245255 27.129343,69.023537 26.210289,70.051620 
	C23.989576,68.133072 22.055330,65.964699 20.400257,63.271088 
	C22.148087,62.098835 23.616747,61.451828 25.085407,60.804817 
	C25.085407,60.804817 25.543993,60.888309 25.775169,61.209984 
	C26.013628,61.711151 26.020910,61.890640 26.028193,62.070129 
z"/>
<path fill="#1D7F51" opacity="1.000000" stroke="none" 
	d="
M24.067036,40.240265 
	C23.424208,42.585972 22.781378,44.931683 22.040159,47.625351 
	C21.203138,47.689644 19.799294,47.305027 19.824747,47.137310 
	C20.271765,44.191589 20.893406,41.272373 22.013447,38.400753 
	C23.055494,39.049488 23.561264,39.644878 24.067036,40.240265 
z"/>
<path fill="#83D0AA" opacity="1.000000" stroke="none" 
	d="
M78.015831,31.980324 
	C78.393311,32.459892 78.770790,32.939465 78.846298,33.763344 
	C78.719437,34.431171 78.894539,34.754696 79.069641,35.078220 
	C79.465347,36.505512 79.861053,37.932804 79.923218,39.669525 
	C79.104324,39.560940 78.618958,39.142918 78.064072,38.517612 
	C77.994545,38.310326 77.745697,37.950764 77.728935,37.721748 
	C77.582771,37.187725 77.358101,36.992096 77.037788,36.940182 
	C77.037415,36.974514 77.095695,36.938190 77.036461,36.628742 
	C76.375717,35.484169 75.774208,34.649048 75.187744,33.852165 
	C75.202789,33.890400 75.242241,33.818306 75.219757,33.538403 
	C75.160149,32.886581 75.123024,32.514660 75.448639,32.080032 
	C76.546196,32.004990 77.281013,31.992657 78.015831,31.980324 
z"/>
<path fill="#087D45" opacity="1.000000" stroke="none" 
	d="
M53.000656,24.004570 
	C51.898838,24.330853 50.797020,24.657135 49.337326,24.982552 
	C49.639286,23.711946 50.299122,22.442207 51.273018,21.113811 
	C51.587082,21.055155 51.806541,21.156374 51.976109,21.482628 
	C52.430668,22.540777 52.715660,23.272675 53.000656,24.004570 
z"/>
<path fill="#6DBF98" opacity="1.000000" stroke="none" 
	d="
M81.154083,49.686832 
	C80.802567,48.993011 80.735680,48.414471 80.528854,47.552757 
	C80.388908,47.269581 80.454422,47.224689 80.454422,47.224686 
	C80.906021,47.045502 81.357628,46.866314 82.258972,46.468231 
	C83.095047,46.269650 83.481392,46.289970 83.867737,46.310287 
	C83.058067,47.474228 82.248390,48.638168 81.154083,49.686832 
z"/>
<path fill="#1E7F4D" opacity="1.000000" stroke="none" 
	d="
M78.133598,38.724899 
	C78.618958,39.142918 79.104324,39.560940 79.908295,40.041130 
	C81.010803,40.843769 81.794708,41.584229 82.502838,42.604862 
	C81.992088,43.239162 81.557114,43.593296 81.122147,43.947430 
	C80.262749,43.427189 79.403351,42.906944 78.300873,41.770889 
	C78.083054,40.345016 78.108322,39.534958 78.133598,38.724899 
z"/>
<path fill="#8FD8B4" opacity="1.000000" stroke="none" 
	d="
M24.053215,40.180779 
	C23.561264,39.644878 23.055494,39.049488 22.300133,38.215340 
	C22.230431,35.685181 22.841631,34.232948 25.195312,36.885620 
	C25.093204,37.638729 25.068069,37.826900 25.042934,38.015068 
	C25.042934,38.015068 24.743387,38.390266 24.511454,38.786663 
	C24.156261,39.463047 24.111271,39.755081 24.144548,40.059162 
	C24.144548,40.059162 24.039392,40.121292 24.053215,40.180779 
z"/>
<path fill="#2C845D" opacity="1.000000" stroke="none" 
	d="
M25.079618,60.618771 
	C23.616747,61.451828 22.148087,62.098835 20.400156,62.941208 
	C20.072182,62.720139 20.023478,62.303699 20.135818,61.426979 
	C20.401081,60.859055 20.613224,60.711845 20.590788,60.650654 
	C20.494860,60.389042 20.329721,60.152813 20.189825,59.907326 
	C21.588385,59.901176 22.986942,59.895031 24.709312,59.975784 
	C25.033123,60.062683 25.073830,60.432724 25.079618,60.618771 
z"/>
<path fill="#6EB38F" opacity="1.000000" stroke="none" 
	d="
M27.337109,72.335617 
	C27.558855,72.419693 27.780600,72.503769 28.554089,72.967697 
	C29.402914,73.912582 29.699995,74.477600 29.994555,75.017555 
	C29.992033,74.992485 30.035275,74.966583 29.809059,75.074562 
	C29.390484,75.453644 29.198126,75.724747 29.005770,75.995857 
	C28.573971,75.957565 28.142168,75.919281 27.394186,75.800568 
	C26.617977,74.618690 26.157949,73.517242 25.826153,72.173256 
	C26.290972,71.865814 26.627562,71.800903 27.370998,71.898094 
	C27.777845,72.060196 27.527920,72.490829 27.480804,72.486221 
	C27.433689,72.481621 27.337109,72.335617 27.337109,72.335617 
z"/>
<path fill="#63BF92" opacity="1.000000" stroke="none" 
	d="
M80.954597,52.799370 
	C82.383682,52.644749 83.812775,52.490128 85.241859,52.335510 
	C85.078438,53.000118 84.915009,53.664722 84.217720,54.256859 
	C82.776939,54.060505 81.870033,53.936630 80.955559,53.559456 
	C80.950195,53.137226 80.952393,52.968296 80.954597,52.799370 
z"/>
<path fill="#1D7F51" opacity="1.000000" stroke="none" 
	d="
M23.037931,51.558304 
	C21.811646,52.053787 20.579441,52.360477 19.150661,52.395798 
	C20.062777,51.753586 21.171467,51.382740 22.644436,51.002174 
	C23.008715,50.992455 23.032011,51.369507 23.037931,51.558304 
z"/>
<path fill="#167B4B" opacity="1.000000" stroke="none" 
	d="
M79.239563,70.851845 
	C79.469635,70.346970 79.946304,69.691322 80.713272,69.012161 
	C80.497772,69.559448 79.991966,70.130264 79.239563,70.851845 
z"/>
<path fill="#3C8260" opacity="1.000000" stroke="none" 
	d="
M80.963120,53.812752 
	C81.870033,53.936630 82.776939,54.060505 83.919365,54.362457 
	C84.154877,54.540531 84.113632,54.509048 84.133469,54.492233 
	C82.961189,54.588711 81.769066,54.701996 80.175522,54.674606 
	C79.774094,54.533932 79.718086,54.541283 80.023254,54.348732 
	C80.539986,54.041706 80.751549,53.927227 80.963120,53.812752 
z"/>
<path fill="#268254" opacity="1.000000" stroke="none" 
	d="
M77.926376,31.721497 
	C77.281013,31.992657 76.546196,32.004990 75.380348,31.812710 
	C74.894150,31.432617 74.838974,31.257141 74.864838,30.978720 
	C74.945877,30.875774 75.121948,30.681728 75.121948,30.681728 
	C76.026939,30.942041 76.931938,31.202356 77.926376,31.721497 
z"/>
<path fill="#1E7F4D" opacity="1.000000" stroke="none" 
	d="
M83.887100,45.906647 
	C83.481392,46.289970 83.095047,46.269650 82.419937,46.283623 
	C82.091515,45.844032 82.051857,45.370152 82.318367,44.470810 
	C83.065758,43.992973 83.506973,43.940598 83.948196,43.888218 
	C83.934280,44.426483 83.920364,44.964745 83.887100,45.906647 
z"/>
<path fill="#286C4A" opacity="1.000000" stroke="none" 
	d="
M73.004356,30.992462 
	C73.469749,30.404774 73.935143,29.817089 74.691650,29.180595 
	C75.012238,29.477100 75.041725,29.822411 75.096581,30.424725 
	C75.121948,30.681728 74.945877,30.875774 74.570168,30.958191 
	C73.797760,31.024559 73.401054,31.008511 73.004356,30.992462 
z"/>
<path fill="#7CD0A7" opacity="1.000000" stroke="none" 
	d="
M80.955559,53.559452 
	C80.751549,53.927227 80.539986,54.041706 79.946510,54.287788 
	C79.564606,54.419392 79.445457,54.263157 79.445457,54.263157 
	C79.233162,54.218151 79.020866,54.173145 78.488571,54.068661 
	C78.253349,53.304932 78.338135,52.600685 78.713959,51.670528 
	C79.445770,51.876869 79.886559,52.309113 80.640968,52.770363 
	C80.952393,52.968296 80.950195,53.137226 80.955559,53.559452 
z"/>
<path fill="#96EAC0" opacity="1.000000" stroke="none" 
	d="
M83.896088,43.618290 
	C83.506973,43.940598 83.065758,43.992973 82.297729,44.115311 
	C81.970924,44.185276 81.555122,44.035767 81.338638,43.991600 
	C81.557114,43.593296 81.992088,43.239162 82.721962,42.767982 
	C83.292564,42.883408 83.568275,43.115887 83.896088,43.618290 
z"/>
<path fill="#1D7C50" opacity="1.000000" stroke="none" 
	d="
M79.053497,34.884182 
	C78.894539,34.754696 78.719437,34.431171 78.755653,34.010712 
	C78.992653,34.172363 79.016113,34.431152 79.053497,34.884182 
z"/>
<path fill="#7AD1A8" opacity="1.000000" stroke="none" 
	d="
M19.839226,59.995163 
	C20.329721,60.152813 20.494860,60.389042 20.590788,60.650654 
	C20.613224,60.711845 20.401081,60.859055 20.124624,61.112640 
	C19.639046,61.104321 19.325710,60.950047 18.908794,60.557159 
	C19.033016,60.240028 19.260822,60.161514 19.839226,59.995163 
z"/>
<path fill="#7AD1A8" opacity="1.000000" stroke="none" 
	d="
M18.146141,59.323700 
	C18.377914,59.233849 18.575005,59.449921 18.850449,59.886028 
	C18.689377,59.917130 18.416929,59.758316 18.146141,59.323700 
z"/>
<path fill="#1D7F51" opacity="1.000000" stroke="none" 
	d="
M25.235497,37.869270 
	C25.068069,37.826900 25.093204,37.638729 25.274853,37.212646 
	C25.431366,36.974728 25.767553,36.990234 25.935640,37.010826 
	C25.894062,37.277287 25.668839,37.507973 25.235497,37.869270 
z"/>
<path fill="#087D45" opacity="1.000000" stroke="none" 
	d="
M39.998741,73.000053 
	C40.002804,72.568924 40.006866,72.137787 40.253876,71.367279 
	C40.496822,71.027893 40.971279,70.981728 41.313126,71.018707 
	C42.109188,71.108932 42.563404,71.162170 43.384968,71.394936 
	C48.169483,71.719025 52.585899,71.933319 57.004120,71.981415 
	C59.559002,72.009224 61.154030,72.812233 60.687805,75.780899 
	C60.014122,75.965317 59.619087,76.034531 58.853592,76.074409 
	C57.988045,76.029236 57.492954,76.013397 56.997868,75.997559 
	C55.899487,76.452606 54.801105,76.907654 53.065876,77.546219 
	C49.285652,77.139839 46.142273,76.549957 42.895157,75.669662 
	C41.860523,74.586182 40.929634,73.793121 39.998741,73.000053 
z"/>
<path fill="#64BB90" opacity="1.000000" stroke="none" 
	d="
M42.998898,75.960075 
	C46.142273,76.549957 49.285652,77.139839 52.741936,77.864197 
	C53.054844,77.998672 53.262768,78.003922 53.236942,78.161423 
	C53.225792,78.488701 53.240463,78.658493 53.255138,78.828293 
	C53.105633,79.638939 53.083836,80.501427 52.780125,81.249466 
	C52.141617,82.822083 51.355110,84.334602 50.629349,85.871788 
	C49.088474,84.896561 47.547604,83.921333 45.614010,82.641830 
	C45.227177,82.167130 45.233067,81.996712 45.387947,81.699516 
	C45.714661,81.381371 45.882557,81.181747 46.184361,80.804825 
	C46.250351,80.106911 46.172619,79.578026 45.934952,78.851929 
	C45.516346,78.436432 45.257675,78.218147 44.734016,78.150543 
	C44.019817,78.955894 43.570610,79.610565 43.066414,79.889008 
	C42.328888,78.208237 41.646355,76.903702 41.298168,75.687195 
	C42.087975,75.836853 42.543438,75.898460 42.998898,75.960075 
M50.794827,81.383972 
	C50.491196,80.991447 50.187569,80.598915 49.883945,80.206383 
	C49.692375,80.607002 49.500805,81.007614 49.309231,81.408226 
	C49.745724,81.546646 50.182213,81.685066 50.794827,81.383972 
z"/>
<path fill="#82C5A6" opacity="1.000000" stroke="none" 
	d="
M59.224052,76.103745 
	C59.619087,76.034531 60.014122,75.965317 60.982944,75.714897 
	C62.090054,75.248756 62.623379,74.963814 63.426231,74.694031 
	C64.160400,74.492882 64.625038,74.276581 65.107155,74.103363 
	C65.124626,74.146439 65.217255,74.138481 65.533478,74.071548 
	C66.274323,73.976929 66.698929,73.949257 67.062012,74.195236 
	C66.973808,74.653580 66.947136,74.838272 66.758995,75.260780 
	C67.224396,76.327126 67.851257,77.155670 68.688370,78.023384 
	C68.898621,78.062561 69.325905,78.082565 69.325905,78.082565 
	C67.796715,79.373108 66.267517,80.663651 64.134857,81.994247 
	C63.531395,82.034302 63.036701,82.068596 62.934059,81.892456 
	C62.685894,81.486938 62.527077,81.267166 62.019699,81.021515 
	C61.460564,81.005951 61.236694,81.025902 60.838493,80.852150 
	C60.380783,80.459160 60.097408,80.259880 59.570179,80.019974 
	C59.326324,79.979347 58.833607,79.938217 58.856979,79.625771 
	C58.853661,78.897339 58.826965,78.481354 58.884602,77.741409 
	C59.053974,76.979553 59.139015,76.541649 59.224052,76.103745 
z"/>
<path fill="#60AD86" opacity="1.000000" stroke="none" 
	d="
M34.959488,80.101974 
	C33.578690,79.384552 32.197891,78.667122 30.935856,77.445068 
	C31.361538,76.663284 31.668461,76.386124 32.330254,76.133186 
	C33.692390,76.778458 34.699657,77.399506 35.552906,78.088516 
	C35.679325,78.535843 35.959763,78.915207 36.149540,79.619560 
	C35.976215,80.153748 35.893543,80.362946 35.618629,80.417290 
	C35.426392,80.262436 34.959484,80.101982 34.959488,80.101974 
z"/>
<path fill="#328C60" opacity="1.000000" stroke="none" 
	d="
M58.833607,79.938217 
	C58.833607,79.938217 59.326324,79.979347 59.644501,80.371918 
	C60.028519,81.480240 60.094360,82.195984 60.160206,82.911728 
	C56.472340,84.177696 56.296936,81.939819 57.025253,79.064583 
	C57.693470,78.856087 57.877377,78.866577 58.173096,79.066452 
	C58.457279,79.491753 58.640179,79.719215 58.833607,79.938217 
z"/>
<path fill="#7FC2A3" opacity="1.000000" stroke="none" 
	d="
M74.050056,72.865753 
	C74.090073,73.717857 74.130096,74.569969 74.007111,75.665367 
	C72.962585,76.547195 72.081062,77.185738 71.015671,77.706528 
	C70.914246,77.343452 70.996674,77.098122 71.071587,76.515656 
	C71.025604,75.498291 70.987144,74.818047 71.294891,74.073151 
	C72.186539,73.597343 72.731995,73.186195 73.471664,72.788666 
	C73.665886,72.802292 74.050056,72.865753 74.050056,72.865753 
z"/>
<path fill="#4B9775" opacity="1.000000" stroke="none" 
	d="
M35.810871,80.572144 
	C35.893543,80.362946 35.976215,80.153748 36.295845,79.578415 
	C36.532810,79.212273 36.833706,79.161240 37.094208,79.098640 
	C37.994186,79.011513 38.633656,78.986984 39.209949,79.363312 
	C38.924740,80.539246 38.702713,81.314323 38.480682,82.089409 
	C37.676533,81.873383 36.872383,81.657364 35.893517,81.110779 
	C35.718803,80.780205 35.810871,80.572144 35.810871,80.572144 
z"/>
<path fill="#20734D" opacity="1.000000" stroke="none" 
	d="
M43.121407,80.265236 
	C43.570610,79.610565 44.019817,78.955894 44.752594,78.535538 
	C45.103760,79.788658 45.171356,80.807472 45.238953,81.826286 
	C45.233067,81.996712 45.227177,82.167130 45.263695,82.589325 
	C44.821442,82.884796 44.336781,82.928490 43.462036,82.653946 
	C43.052311,81.890045 43.032669,81.444382 43.070198,80.819786 
	C43.127369,80.640854 43.121407,80.265236 43.121407,80.265236 
z"/>
<path fill="#7ECCA9" opacity="1.000000" stroke="none" 
	d="
M38.539158,82.399765 
	C38.702713,81.314323 38.924740,80.539246 39.340641,79.296249 
	C39.712440,78.742134 39.879333,78.638214 40.149551,78.740753 
	C40.476425,79.591774 40.688942,80.218613 40.940327,81.216019 
	C41.029781,82.080765 41.080372,82.574944 41.130962,83.069122 
	C40.921822,83.100616 40.712677,83.132118 40.116539,82.964447 
	C39.729542,82.765259 39.420254,82.667557 39.420254,82.667557 
	C39.420254,82.667557 39.198650,82.904335 39.198650,82.904335 
	C38.998310,82.839592 38.797970,82.774849 38.539158,82.399765 
z"/>
<path fill="#67A987" opacity="1.000000" stroke="none" 
	d="
M31.975384,76.108963 
	C31.668461,76.386124 31.361538,76.663284 30.798668,77.118683 
	C30.290239,77.273102 30.099634,77.151909 29.971363,76.353531 
	C29.992971,75.504700 30.014122,75.235641 30.035275,74.966583 
	C30.035275,74.966583 29.992033,74.992485 30.266924,74.897964 
	C31.017570,74.442749 31.493324,74.082047 31.980785,74.118530 
	C31.986788,75.046806 31.981087,75.577881 31.975384,76.108963 
z"/>
<path fill="#127F4B" opacity="1.000000" stroke="none" 
	d="
M58.061283,78.877075 
	C57.877377,78.866577 57.693470,78.856087 57.234211,78.817841 
	C56.971096,78.093117 56.983334,77.396156 56.996719,76.348373 
	C57.492954,76.013397 57.988045,76.029236 58.853592,76.074417 
	C59.139015,76.541649 59.053974,76.979553 58.745773,77.862717 
	C58.345310,78.478607 58.191532,78.668304 58.061283,78.877075 
z"/>
<path fill="#7AC8A4" opacity="1.000000" stroke="none" 
	d="
M60.447475,83.080162 
	C60.094360,82.195984 60.028519,81.480240 59.888355,80.412552 
	C60.097408,80.259880 60.380783,80.459160 60.848953,81.291458 
	C61.102913,82.510002 61.172085,83.095535 61.241253,83.681061 
	C61.072418,83.536903 60.903580,83.392754 60.447475,83.080162 
z"/>
<path fill="#6FC99F" opacity="1.000000" stroke="none" 
	d="
M43.013027,80.998718 
	C43.032669,81.444382 43.052311,81.890045 43.098141,82.669266 
	C42.762444,83.134636 42.400555,83.266449 41.964584,82.912231 
	C41.900467,81.960098 41.910435,81.494003 42.193607,81.018898 
	C42.648880,81.006165 42.830952,81.002441 43.013027,80.998718 
z"/>
<path fill="#328C60" opacity="1.000000" stroke="none" 
	d="
M61.335945,83.734436 
	C61.172085,83.095535 61.102913,82.510002 61.023285,81.485168 
	C61.236694,81.025902 61.460564,81.005951 61.889927,81.406120 
	C62.055397,82.365715 62.015377,82.905197 61.975357,83.444679 
	C61.867130,83.676849 61.685555,83.791229 61.335945,83.734436 
z"/>
<path fill="#56A782" opacity="1.000000" stroke="none" 
	d="
M70.683716,77.947632 
	C70.217094,78.319565 69.898567,78.332657 69.452972,78.214157 
	C69.325905,78.082565 68.898621,78.062561 68.805862,77.784088 
	C68.753685,77.333160 68.794273,77.160706 69.209702,76.973740 
	C70.082733,76.923752 70.580917,76.888268 71.079109,76.852791 
	C70.996674,77.098122 70.914246,77.343452 70.683716,77.947632 
z"/>
<path fill="#2E8A5F" opacity="1.000000" stroke="none" 
	d="
M41.920403,81.027908 
	C41.910435,81.494003 41.900467,81.960098 41.805252,82.766411 
	C41.720009,83.106628 41.423702,83.111374 41.277332,83.090248 
	C41.080372,82.574944 41.029781,82.080765 41.193596,81.274567 
	C41.578800,80.984329 41.749599,81.006119 41.920403,81.027908 
z"/>
<path fill="#88D6B2" opacity="1.000000" stroke="none" 
	d="
M62.201206,83.304138 
	C62.015377,82.905197 62.055397,82.365715 62.225189,81.441620 
	C62.527077,81.267166 62.685894,81.486938 62.890602,82.113037 
	C62.949787,82.509766 62.917820,82.958214 62.917820,82.958214 
	C62.754230,83.026680 62.590641,83.095146 62.201206,83.304138 
z"/>
<path fill="#328C60" opacity="1.000000" stroke="none" 
	d="
M63.125038,82.849518 
	C62.917820,82.958214 62.949787,82.509766 62.993244,82.289185 
	C63.036701,82.068596 63.531395,82.034302 63.776505,82.071594 
	C63.811306,82.340790 63.581520,82.551430 63.125038,82.849518 
z"/>
<path fill="#087D45" opacity="1.000000" stroke="none" 
	d="
M53.432125,78.763504 
	C53.240463,78.658493 53.225792,78.488701 53.299904,78.078644 
	C53.538464,78.027573 53.704899,78.207207 53.823685,78.414185 
	C53.846912,78.454659 53.685410,78.601135 53.432125,78.763504 
z"/>
<path fill="#2E8A5F" opacity="1.000000" stroke="none" 
	d="
M39.306412,82.951294 
	C39.198650,82.904335 39.420254,82.667557 39.420254,82.667557 
	C39.420254,82.667557 39.729542,82.765259 39.803940,82.910301 
	C39.878338,83.055344 39.414177,82.998260 39.306412,82.951294 
z"/>
<path fill="#2E8A5F" opacity="1.000000" stroke="none" 
	d="
M35.618629,80.417290 
	C35.810871,80.572144 35.718803,80.780205 35.652790,80.874176 
	C35.426830,80.792198 35.280857,80.605324 35.054173,80.254761 
	C34.959484,80.101982 35.426392,80.262436 35.618629,80.417290 
z"/>
<path fill="#ABDEC3" opacity="1.000000" stroke="none" 
	d="
M29.809059,75.074562 
	C30.014122,75.235641 29.992971,75.504700 29.982525,76.178589 
	C29.831041,76.481461 29.668859,76.379501 29.256222,76.136703 
	C29.198126,75.724747 29.390484,75.453644 29.809059,75.074562 
z"/>
<path fill="#047B42" opacity="1.000000" stroke="none" 
	d="
M78.064072,38.517612 
	C78.108322,39.534958 78.083054,40.345016 78.072830,41.558662 
	C77.934868,42.021748 77.652794,42.071217 77.647285,42.142166 
	C77.295555,46.670563 76.966309,51.200710 76.918312,55.916748 
	C76.780266,57.835545 76.358940,59.568295 75.714447,61.875916 
	C75.326653,62.915997 75.162025,63.381207 74.997391,63.846413 
	C74.775627,64.067680 74.562492,64.296974 74.251404,64.742950 
	C73.807190,65.433525 73.469582,65.915428 72.752556,66.715767 
	C71.583191,67.357323 70.793236,67.680443 69.673653,67.894791 
	C66.884811,65.843414 64.425606,63.900814 61.940079,61.629082 
	C60.605751,60.876049 59.297733,60.452152 57.900574,59.736496 
	C57.203049,58.967293 56.594666,58.489845 55.531525,57.901054 
	C54.765850,57.762367 54.454926,57.735023 54.089134,57.471577 
	C54.207893,56.655159 54.381512,56.074844 54.641972,55.091530 
	C54.518826,53.129173 54.308838,51.569817 54.047947,49.634628 
	C54.034874,48.503292 54.072701,47.747784 54.269978,46.854343 
	C54.623684,46.513084 54.796913,46.293182 55.076294,45.762291 
	C54.759331,43.956379 54.315189,42.444893 53.902641,40.689754 
	C53.934231,40.446102 53.845982,39.962715 53.892857,39.722313 
	C53.939732,39.481907 53.830849,39.004292 53.958603,38.678444 
	C54.341522,37.246063 54.596687,36.139530 54.851856,35.032997 
	C55.018963,35.010586 55.186069,34.988171 55.995422,35.031044 
	C58.750824,35.890026 61.173157,36.269573 62.910580,37.566593 
	C66.182907,40.009434 67.002365,37.973854 67.451477,35.442726 
	C67.877220,33.043335 67.834785,30.560871 67.998245,28.114941 
	C68.165146,28.133802 68.332054,28.152662 68.896774,28.334038 
	C69.500038,28.689043 69.722633,28.859087 69.962387,29.006683 
	C70.515526,29.527821 71.068657,30.048958 71.853539,31.138195 
	C73.137604,32.410297 74.189919,33.114300 75.242241,33.818306 
	C75.242241,33.818306 75.202789,33.890400 75.172684,34.203236 
	C75.793617,35.323444 76.444656,36.130817 77.095695,36.938190 
	C77.095695,36.938190 77.037415,36.974514 77.130508,37.130962 
	C77.366638,37.532928 77.540672,37.754044 77.745697,37.950764 
	C77.745697,37.950764 77.994545,38.310326 78.064072,38.517612 
z"/>
<path fill="#087D45" opacity="1.000000" stroke="none" 
	d="
M61.966393,61.958221 
	C64.425606,63.900814 66.884811,65.843414 69.679565,68.155731 
	C70.021439,68.699371 70.027756,68.873291 70.034081,69.047218 
	C69.773041,69.520485 69.511993,69.993744 68.941895,70.970161 
	C68.384430,72.049736 68.136017,72.626152 67.857224,73.348633 
	C67.826851,73.494698 67.834267,73.794228 67.831039,73.823257 
	C67.827805,73.852295 67.784256,73.891258 67.618332,73.882507 
	C67.452400,73.873756 67.123543,73.921585 67.123543,73.921585 
	C66.698929,73.949257 66.274323,73.976929 65.297958,73.837906 
	C63.818752,72.777733 62.891289,71.884254 61.932739,70.780136 
	C61.901653,70.569504 61.871807,70.144730 61.766396,69.917145 
	C61.427750,69.450600 61.194511,69.211624 60.952209,68.736374 
	C60.943142,68.500092 60.985920,68.029121 60.963104,67.737839 
	C60.627293,66.965248 60.314301,66.483955 59.801636,65.832474 
	C59.425106,65.363976 59.248245,65.065643 59.107937,64.436325 
	C60.085125,63.389629 61.025761,62.673923 61.966393,61.958221 
z"/>
<path fill="#127F4B" opacity="1.000000" stroke="none" 
	d="
M70.364677,69.034111 
	C70.027756,68.873291 70.021439,68.699371 70.009201,68.264511 
	C70.793236,67.680443 71.583191,67.357323 72.702110,67.014709 
	C73.325821,67.288277 73.620567,67.581337 73.915314,67.874405 
	C72.841965,68.256599 71.768616,68.638802 70.364677,69.034111 
z"/>
<path fill="#B7EDD5" opacity="1.000000" stroke="none" 
	d="
M73.277451,72.775047 
	C72.731995,73.186195 72.186539,73.597343 71.194489,73.837631 
	C70.495239,73.446167 70.242584,73.225548 70.108299,72.774246 
	C70.520981,72.120735 70.815300,71.697914 71.109612,71.275085 
	C71.109612,71.275085 71.489426,71.091370 71.847115,71.299316 
	C72.562355,71.929855 72.919899,72.352455 73.277451,72.775047 
z"/>
<path fill="#7FC2A3" opacity="1.000000" stroke="none" 
	d="
M70.751892,71.235504 
	C70.815300,71.697914 70.520981,72.120735 69.811737,72.805061 
	C69.198624,73.082504 69.000443,73.098442 68.570557,73.104797 
	C68.338844,73.095230 67.887604,73.202568 67.887604,73.202568 
	C68.136017,72.626152 68.384430,72.049736 68.806854,71.204391 
	C69.451973,71.022285 69.923065,71.109108 70.751892,71.235504 
z"/>
<path fill="#3A7D5F" opacity="1.000000" stroke="none" 
	d="
M73.471664,72.788666 
	C72.919899,72.352455 72.562355,71.929855 72.056320,71.272232 
	C72.546089,71.461098 73.184349,71.884995 73.936325,72.587318 
	C74.050056,72.865753 73.665886,72.802292 73.471664,72.788666 
z"/>
<path fill="#80AC96" opacity="1.000000" stroke="none" 
	d="
M77.130646,65.305817 
	C77.600685,65.212570 78.246986,65.362785 78.963966,65.734924 
	C78.458733,65.820992 77.882828,65.685127 77.130646,65.305817 
z"/>
<path fill="#E1F8ED" opacity="1.000000" stroke="none" 
	d="
M60.985920,68.029121 
	C60.985920,68.029121 60.943142,68.500092 60.769688,68.870651 
	C61.021423,69.542389 61.446613,69.843559 61.871807,70.144730 
	C61.871807,70.144730 61.901653,70.569504 61.497147,70.816574 
	C55.067638,71.114235 49.042629,71.164825 43.017624,71.215416 
	C42.563404,71.162170 42.109188,71.108932 41.417389,70.675049 
	C42.494621,67.631355 43.809437,64.968307 45.124245,62.305260 
	C45.520588,62.291706 45.916931,62.278156 46.882065,62.604961 
	C51.324368,63.552650 55.197876,64.159981 59.071384,64.767319 
	C59.248245,65.065643 59.425106,65.363976 59.805725,66.128540 
	C60.334961,67.072891 60.660439,67.551010 60.985920,68.029121 
z"/>
<path fill="#95CFB3" opacity="1.000000" stroke="none" 
	d="
M54.555130,55.494526 
	C54.381512,56.074844 54.207893,56.655159 53.992611,57.699753 
	C53.072067,59.361893 52.193188,60.559753 51.314308,61.757614 
	C50.524082,60.170177 49.733856,58.582737 48.943626,56.995300 
	C48.978085,56.550777 49.012543,56.106255 49.076157,54.959461 
	C49.053299,53.505993 49.001289,52.754795 48.949276,52.003597 
	C49.261093,48.618668 49.572906,45.233738 50.282028,41.424751 
	C51.477184,41.008636 52.275032,41.016579 53.054726,41.392731 
	C53.387672,43.172684 53.738773,44.584423 54.048820,46.246147 
	C54.042015,46.661510 54.076271,46.826893 54.110531,46.992271 
	C54.072701,47.747784 54.034874,48.503292 53.969379,50.033611 
	C54.146187,52.370453 54.350658,53.932491 54.555130,55.494526 
z"/>
<path fill="#1F8152" opacity="1.000000" stroke="none" 
	d="
M48.710823,57.272652 
	C49.733856,58.582737 50.524082,60.170177 51.314308,61.757614 
	C52.193188,60.559753 53.072067,59.361893 54.047470,57.935852 
	C54.454926,57.735023 54.765850,57.762367 55.625046,58.189381 
	C56.778790,59.068783 57.384251,59.548519 57.989716,60.028255 
	C59.297733,60.452152 60.605751,60.876049 61.940083,61.629082 
	C61.025761,62.673923 60.085125,63.389629 59.107937,64.436325 
	C55.197876,64.159981 51.324368,63.552650 47.173904,62.664383 
	C47.423969,60.772301 47.950993,59.161156 48.710823,57.272652 
z"/>
<path fill="#127F4B" opacity="1.000000" stroke="none" 
	d="
M45.087288,61.895805 
	C43.809437,64.968307 42.494621,67.631355 41.075546,70.638062 
	C40.971279,70.981728 40.496822,71.027893 40.259224,71.043953 
	C40.420609,68.824196 40.819584,66.588387 41.282116,63.996433 
	C39.914944,63.155865 38.341526,62.188496 36.768108,61.221127 
	C36.692642,60.728977 36.617172,60.236828 36.541702,59.744678 
	C38.289753,59.179607 40.114330,58.028423 41.760532,58.243370 
	C42.977528,58.402275 43.962166,60.340721 45.087288,61.895805 
z"/>
<path fill="#127C49" opacity="1.000000" stroke="none" 
	d="
M40.574104,32.062634 
	C41.431267,32.603130 41.919262,33.225208 42.700329,33.948235 
	C41.389900,35.882362 39.786400,37.715534 37.686047,40.116726 
	C35.979935,38.494900 34.068268,36.677670 31.541876,34.276081 
	C34.918983,33.445023 37.561962,32.794621 40.574104,32.062634 
z"/>
<path fill="#80C2A1" opacity="1.000000" stroke="none" 
	d="
M32.330254,76.133186 
	C31.981087,75.577881 31.986788,75.046806 31.979290,73.725388 
	C31.967154,72.137489 31.968218,71.339943 31.969282,70.542389 
	C31.969282,70.542389 31.965509,70.125092 31.978020,69.916733 
	C33.440304,70.759148 34.890076,71.809929 36.834717,73.158264 
	C37.908150,73.919800 38.486721,74.383789 39.189789,75.206886 
	C39.554596,76.549522 39.794899,77.533051 40.035198,78.516571 
	C39.879333,78.638214 39.712440,78.742134 39.403820,78.895401 
	C38.633656,78.986984 37.994186,79.011513 36.976604,78.848801 
	C36.301304,78.447899 36.004112,78.234222 35.706921,78.020554 
	C34.699657,77.399506 33.692390,76.778458 32.330254,76.133186 
z"/>
<path fill="#91CDAF" opacity="1.000000" stroke="none" 
	d="
M54.517166,34.963917 
	C54.596687,36.139530 54.341522,37.246063 53.707527,38.529057 
	C52.794888,38.469048 52.261074,38.232578 51.590881,38.005409 
	C51.454510,38.014713 51.181808,37.995499 50.947231,38.123116 
	C50.476101,38.511410 50.239548,38.772083 50.005600,39.014061 
	C50.008205,38.995365 50.033321,39.025375 49.798370,39.015461 
	C49.563419,39.005547 49.093693,39.029129 49.093689,39.029129 
	C48.883270,37.754562 48.672848,36.480000 48.704391,34.971336 
	C50.691734,34.789776 52.437107,34.842304 54.517166,34.963917 
z"/>
<path fill="#127F4B" opacity="1.000000" stroke="none" 
	d="
M39.065289,74.847771 
	C38.486721,74.383789 37.908150,73.919800 37.160076,73.229141 
	C37.742638,73.001923 38.494705,73.001373 39.622757,73.000443 
	C40.929634,73.793121 41.860523,74.586182 42.895157,75.669662 
	C42.543438,75.898460 42.087975,75.836853 41.121361,75.500359 
	C40.095230,75.099579 39.580261,74.973671 39.065289,74.847771 
z"/>
<path fill="#7AB399" opacity="1.000000" stroke="none" 
	d="
M51.181808,37.995499 
	C51.181808,37.995499 51.454510,38.014713 51.646500,38.324398 
	C52.507656,39.076958 53.176819,39.519836 53.845982,39.962715 
	C53.845982,39.962715 53.934231,40.446102 53.703362,40.714874 
	C53.472496,40.983643 53.072880,41.024521 53.072880,41.024521 
	C52.275032,41.016579 51.477184,41.008636 50.279152,41.011936 
	C49.524208,40.950325 49.275558,40.747437 49.349548,40.094589 
	C49.879845,39.623459 50.035591,39.373692 50.033321,39.025375 
	C50.033321,39.025375 50.008205,38.995365 50.271725,38.935715 
	C50.750767,38.582539 50.966286,38.289021 51.181808,37.995499 
z"/>
<path fill="#1F8152" opacity="1.000000" stroke="none" 
	d="
M48.783192,52.227547 
	C49.001289,52.754795 49.053299,53.505993 49.027527,54.627674 
	C48.838863,54.149273 48.727985,53.300385 48.783192,52.227547 
z"/>
<path fill="#1D7F51" opacity="1.000000" stroke="none" 
	d="
M24.321226,40.002106 
	C24.111271,39.755081 24.156261,39.463047 24.421661,39.009293 
	C24.659018,39.103298 24.786882,39.366043 24.829407,39.641933 
	C24.842054,39.723991 24.615082,39.842979 24.321226,40.002106 
z"/>
<path fill="#6BBD97" opacity="1.000000" stroke="none" 
	d="
M26.281305,62.058285 
	C26.020910,61.890640 26.013628,61.711151 26.002323,61.262131 
	C26.305317,61.149170 26.612329,61.305744 26.979288,61.732101 
	C26.870964,62.016731 26.702692,62.031586 26.281305,62.058285 
z"/>
<path fill="#2C845D" opacity="1.000000" stroke="none" 
	d="
M25.246613,54.903416 
	C25.122589,54.862499 25.068947,54.690945 25.029896,54.250046 
	C25.287037,54.193451 25.377871,54.457478 25.246613,54.903416 
z"/>
<path fill="#B2E8CF" opacity="1.000000" stroke="none" 
	d="
M49.798370,39.015461 
	C50.035591,39.373692 49.879845,39.623459 49.345482,39.845642 
	C49.124893,39.916607 49.027634,39.475716 49.060661,39.252422 
	C49.093693,39.029129 49.563419,39.005547 49.798370,39.015461 
z"/>
<path fill="#127C49" opacity="1.000000" stroke="none" 
	d="
M42.695702,30.970818 
	C42.921745,30.964485 42.607853,31.211430 42.607853,31.211430 
	C42.607853,31.211430 42.222557,31.173460 42.120064,31.081528 
	C42.017567,30.989594 42.469662,30.977150 42.695702,30.970818 
z"/>
<path fill="#087D45" opacity="1.000000" stroke="none" 
	d="
M67.815582,27.880646 
	C67.834785,30.560871 67.877220,33.043335 67.451477,35.442726 
	C67.002365,37.973854 66.182907,40.009434 62.910580,37.566593 
	C61.173157,36.269573 58.750824,35.890026 56.246178,34.998112 
	C55.907055,34.260147 55.959423,33.620399 56.303436,32.572216 
	C57.457508,32.107533 58.319931,32.051285 59.182358,31.995033 
	C60.777153,30.226295 62.371952,28.457556 64.308319,26.341274 
	C65.066948,26.009134 65.484009,26.024536 65.901070,26.039936 
	C66.478355,26.575409 67.055641,27.110880 67.815582,27.880646 
z"/>
<path fill="#087D45" opacity="1.000000" stroke="none" 
	d="
M60.006104,24.991697 
	C58.339161,25.150679 56.482975,28.488693 55.020897,24.390350 
	C55.249973,23.877657 55.489567,23.650480 56.104321,23.205841 
	C56.499283,23.009260 56.987549,23.009251 56.987549,23.009251 
	C57.733341,23.022318 58.479130,23.035387 59.607113,23.374203 
	C59.994904,24.130535 60.000504,24.561115 60.006104,24.991697 
z"/>
<path fill="#087D45" opacity="1.000000" stroke="none" 
	d="
M75.219757,33.538403 
	C74.189919,33.114300 73.137604,32.410297 72.047668,31.347519 
	C72.010056,30.988745 72.507164,30.989416 72.755760,30.990940 
	C73.401054,31.008511 73.797760,31.024559 74.489136,31.061136 
	C74.838974,31.257141 74.894150,31.432617 75.017609,31.875420 
	C75.123024,32.514660 75.160149,32.886581 75.219757,33.538403 
z"/>
<path fill="#127C49" opacity="1.000000" stroke="none" 
	d="
M53.247013,24.004995 
	C52.715660,23.272675 52.430668,22.540777 52.089344,21.524815 
	C52.666679,21.945969 53.300343,22.651188 53.960045,23.681282 
	C53.986080,24.006159 53.493370,24.005419 53.247013,24.004995 
z"/>
<path fill="#127C49" opacity="1.000000" stroke="none" 
	d="
M65.908218,25.768005 
	C65.484009,26.024536 65.066948,26.009134 64.336678,25.985409 
	C63.996590,25.614233 63.969711,25.251381 63.908943,24.620911 
	C64.555153,24.734219 65.235260,25.115145 65.908218,25.768005 
z"/>
<path fill="#127C49" opacity="1.000000" stroke="none" 
	d="
M60.281021,24.934879 
	C60.000504,24.561115 59.994904,24.130535 59.980057,23.377953 
	C60.508949,23.250547 61.047096,23.445143 61.791161,23.845253 
	C61.516705,24.326530 61.036324,24.602295 60.281021,24.934879 
z"/>
<path fill="#127C49" opacity="1.000000" stroke="none" 
	d="
M56.879631,22.910963 
	C56.987549,23.009251 56.499283,23.009260 56.255272,23.009909 
	C56.223209,22.749382 56.476696,22.683422 56.879631,22.910963 
z"/>
<path fill="#127C49" opacity="1.000000" stroke="none" 
	d="
M69.829575,28.840893 
	C69.722633,28.859087 69.500038,28.689043 69.148346,28.347851 
	C69.265900,28.310745 69.497444,28.469397 69.829575,28.840893 
z"/>
<path fill="#087D45" opacity="1.000000" stroke="none" 
	d="
M75.269424,63.761116 
	C75.162025,63.381207 75.326653,62.915997 75.644348,62.254135 
	C75.712097,62.596928 75.626770,63.136375 75.269424,63.761116 
z"/>
<path fill="#087D45" opacity="1.000000" stroke="none" 
	d="
M79.506531,54.287689 
	C79.445457,54.263157 79.564606,54.419392 79.641342,54.480339 
	C79.718086,54.541283 79.774094,54.533932 79.746536,54.521294 
	C79.718971,54.508656 79.567612,54.312222 79.506531,54.287689 
z"/>
<path fill="#087D45" opacity="1.000000" stroke="none" 
	d="
M52.902943,28.595217 
	C51.830391,29.009840 50.656078,29.172108 49.244442,29.160686 
	C50.271809,28.772285 51.536491,28.557575 52.902943,28.595217 
z"/>
<path fill="#6FC99F" opacity="1.000000" stroke="none" 
	d="
M59.068447,31.735872 
	C58.319931,32.051285 57.457508,32.107533 56.318665,32.250198 
	C56.312172,31.738373 56.582100,31.140137 57.201653,30.307449 
	C57.551281,30.073000 57.954693,30.120966 57.954693,30.120966 
	C58.287975,30.572880 58.621254,31.024796 59.068447,31.735872 
z"/>
<path fill="#087D45" opacity="1.000000" stroke="none" 
	d="
M57.888649,29.847391 
	C57.954693,30.120966 57.551281,30.073000 57.348427,30.083248 
	C56.581753,29.867050 56.017929,29.640608 55.228836,29.206913 
	C55.943245,29.191050 56.882927,29.382433 57.888649,29.847391 
z"/>
<path fill="#127C49" opacity="1.000000" stroke="none" 
	d="
M80.372795,47.305874 
	C80.356682,47.342167 80.009560,47.109646 80.009560,47.109646 
	C80.009560,47.109646 80.273186,47.079628 80.363800,47.152161 
	C80.454422,47.224689 80.388908,47.269581 80.372795,47.305874 
z"/>
<path fill="#ABDEC3" opacity="1.000000" stroke="none" 
	d="
M31.651670,70.667496 
	C31.968218,71.339943 31.967154,72.137489 31.967583,73.328194 
	C31.493324,74.082047 31.017570,74.442749 30.269445,74.923035 
	C29.699995,74.477600 29.402914,73.912582 28.878296,73.114090 
	C29.545191,72.184616 30.439625,71.488617 31.651670,70.667496 
z"/>
<path fill="#66A284" opacity="1.000000" stroke="none" 
	d="
M26.824207,65.794922 
	C26.209578,65.790619 25.531988,65.504295 24.507595,64.850479 
	C24.160791,64.482971 24.045649,64.014359 24.045649,64.014359 
	C24.045649,64.014359 24.004395,63.983944 24.326015,64.019676 
	C25.081842,64.031578 25.516047,64.007751 25.950253,63.983925 
	C26.220585,64.493584 26.490915,65.003242 26.824207,65.794922 
z"/>
<path fill="#91CDAF" opacity="1.000000" stroke="none" 
	d="
M25.960867,63.750938 
	C25.516047,64.007751 25.081842,64.031578 24.321114,64.044830 
	C24.442242,63.743618 24.889893,63.452988 25.606400,63.111946 
	C25.875254,63.061535 25.971481,63.517956 25.960867,63.750938 
z"/>
<path fill="#067D43" opacity="1.000000" stroke="none" 
	d="
M28.367992,67.508209 
	C28.405268,67.495918 28.437103,67.478424 28.415810,67.472702 
	C28.394516,67.466980 28.330719,67.520500 28.367992,67.508209 
z"/>
<path fill="#127C49" opacity="1.000000" stroke="none" 
	d="
M27.881140,71.833687 
	C27.984434,71.607178 28.077507,71.530319 27.966812,71.770149 
	C27.746721,72.170265 27.637321,72.330544 27.527920,72.490829 
	C27.527920,72.490829 27.777845,72.060196 27.881140,71.833687 
z"/>
<path fill="#ABDEC3" opacity="1.000000" stroke="none" 
	d="
M27.480804,72.486221 
	C27.637321,72.330544 27.746721,72.170265 27.957104,71.735428 
	C27.919920,71.590263 27.781750,71.719643 27.490343,72.092323 
	C27.337109,72.335617 27.433689,72.481621 27.480804,72.486221 
z"/>
<path fill="#91CDAF" opacity="1.000000" stroke="none" 
	d="
M23.803747,64.051224 
	C24.045649,64.014359 24.160791,64.482971 24.270565,64.700668 
	C23.823118,64.949837 23.265898,64.981323 22.708679,65.012810 
	C22.993069,64.704575 23.277456,64.396332 23.803747,64.051224 
z"/>
<path fill="#087D45" opacity="1.000000" stroke="none" 
	d="
M77.036461,36.628742 
	C76.444656,36.130817 75.793617,35.323444 75.157631,34.165001 
	C75.774208,34.649048 76.375717,35.484169 77.036461,36.628742 
z"/>
<path fill="#087D45" opacity="1.000000" stroke="none" 
	d="
M77.728935,37.721748 
	C77.540672,37.754044 77.366638,37.532928 77.130882,37.096630 
	C77.358101,36.992096 77.582771,37.187725 77.728935,37.721748 
z"/>
<path fill="#127F4B" opacity="1.000000" stroke="none" 
	d="
M43.384968,71.394936 
	C49.042629,71.164825 55.067638,71.114235 61.528236,71.027206 
	C62.891289,71.884254 63.818752,72.777733 64.981735,73.904846 
	C65.217255,74.138481 65.124626,74.146439 64.851845,74.138802 
	C64.104942,74.313728 63.630821,74.496300 63.156700,74.678864 
	C62.623379,74.963814 62.090054,75.248756 61.261589,75.599701 
	C61.154030,72.812233 59.559002,72.009224 57.004120,71.981415 
	C52.585899,71.933319 48.169483,71.719025 43.384968,71.394936 
z"/>
<path fill="#66B690" opacity="1.000000" stroke="none" 
	d="
M39.189789,75.206886 
	C39.580261,74.973671 40.095230,75.099579 40.787010,75.412323 
	C41.646355,76.903702 42.328888,78.208237 43.066414,79.889008 
	C43.121407,80.265236 43.127369,80.640854 43.070198,80.819786 
	C42.830952,81.002441 42.648880,81.006165 42.193607,81.018898 
	C41.749599,81.006119 41.578800,80.984329 41.154732,80.903992 
	C40.688942,80.218613 40.476425,79.591774 40.149551,78.740753 
	C39.794899,77.533051 39.554596,76.549522 39.189789,75.206886 
z"/>
<path fill="#66B690" opacity="1.000000" stroke="none" 
	d="
M50.706764,81.603729 
	C50.182213,81.685066 49.745724,81.546646 49.309235,81.408226 
	C49.500805,81.007614 49.692375,80.607002 49.883942,80.206383 
	C50.187569,80.598915 50.491196,80.991447 50.706764,81.603729 
z"/>
<path fill="#91DDB9" opacity="1.000000" stroke="none" 
	d="
M45.387947,81.699516 
	C45.171356,80.807472 45.103760,79.788658 45.017586,78.384857 
	C45.257675,78.218147 45.516346,78.436432 45.917458,79.172043 
	C46.053478,80.117546 46.047058,80.545700 46.040638,80.973862 
	C45.882557,81.181747 45.714661,81.381371 45.387947,81.699516 
z"/>
<path fill="#66B690" opacity="1.000000" stroke="none" 
	d="
M46.184361,80.804825 
	C46.047058,80.545700 46.053478,80.117546 46.077393,79.369263 
	C46.172619,79.578026 46.250351,80.106911 46.184361,80.804825 
z"/>
<path fill="#95CFB3" opacity="1.000000" stroke="none" 
	d="
M68.834854,76.988243 
	C68.794273,77.160706 68.753685,77.333160 68.595612,77.744919 
	C67.851257,77.155670 67.224396,76.327126 67.030724,75.424805 
	C67.651619,75.448402 67.839333,75.545784 68.055435,75.840706 
	C68.334175,76.354912 68.584518,76.671577 68.834854,76.988243 
z"/>
<path fill="#087D45" opacity="1.000000" stroke="none" 
	d="
M63.426231,74.694031 
	C63.630821,74.496300 64.104942,74.313728 64.834373,74.095718 
	C64.625038,74.276581 64.160400,74.492882 63.426231,74.694031 
z"/>
<path fill="#0D7A45" opacity="1.000000" stroke="none" 
	d="
M58.173096,79.066452 
	C58.191532,78.668304 58.345310,78.478607 58.661442,78.186676 
	C58.826965,78.481354 58.853661,78.897339 58.856979,79.625771 
	C58.640179,79.719215 58.457279,79.491753 58.173096,79.066452 
z"/>
<path fill="#328C60" opacity="1.000000" stroke="none" 
	d="
M68.027039,75.643166 
	C67.839333,75.545784 67.651619,75.448402 67.192184,75.186996 
	C66.947136,74.838272 66.973808,74.653580 67.062012,74.195236 
	C67.123543,73.921585 67.452400,73.873756 67.684479,74.320007 
	C67.953392,75.058571 67.990219,75.350868 68.027039,75.643166 
z"/>
<path fill="#67A987" opacity="1.000000" stroke="none" 
	d="
M35.552906,78.088516 
	C36.004112,78.234222 36.301304,78.447899 36.716103,78.911407 
	C36.833706,79.161240 36.532810,79.212273 36.386505,79.253418 
	C35.959763,78.915207 35.679325,78.535843 35.552906,78.088516 
z"/>
<path fill="#6EB593" opacity="1.000000" stroke="none" 
	d="
M68.055435,75.840706 
	C67.990219,75.350868 67.953392,75.058571 67.850403,74.328766 
	C67.784256,73.891258 67.827805,73.852295 68.038757,73.784744 
	C68.524963,73.599686 68.709152,73.398743 68.802269,73.114372 
	C69.000443,73.098442 69.198624,73.082504 69.693359,73.035751 
	C70.242584,73.225548 70.495239,73.446167 70.848297,73.902298 
	C70.987144,74.818047 71.025604,75.498291 71.071587,76.515656 
	C70.580917,76.888268 70.082733,76.923752 69.209702,76.973740 
	C68.584518,76.671577 68.334175,76.354912 68.055435,75.840706 
z"/>
<path fill="#087D45" opacity="1.000000" stroke="none" 
	d="
M53.054726,41.392731 
	C53.072880,41.024521 53.472496,40.983643 53.671776,40.958527 
	C54.315189,42.444893 54.759331,43.956379 54.861862,45.746193 
	C54.520256,46.024525 54.089878,45.996166 54.089878,45.996166 
	C53.738773,44.584423 53.387672,43.172684 53.054726,41.392731 
z"/>
<path fill="#1F8152" opacity="1.000000" stroke="none" 
	d="
M54.641968,55.091530 
	C54.350658,53.932491 54.146187,52.370453 54.020283,50.409439 
	C54.308838,51.569817 54.518826,53.129173 54.641968,55.091530 
z"/>
<path fill="#087D45" opacity="1.000000" stroke="none" 
	d="
M57.900574,59.736496 
	C57.384251,59.548519 56.778790,59.068783 56.079803,58.300720 
	C56.594666,58.489845 57.203049,58.967293 57.900574,59.736496 
z"/>
<path fill="#B2E8CF" opacity="1.000000" stroke="none" 
	d="
M53.892857,39.722313 
	C53.176819,39.519836 52.507656,39.076958 51.782875,38.315094 
	C52.261074,38.232578 52.794888,38.469048 53.579773,38.854904 
	C53.830849,39.004292 53.939732,39.481907 53.892857,39.722313 
z"/>
<path fill="#1F8152" opacity="1.000000" stroke="none" 
	d="
M54.048820,46.246147 
	C54.089878,45.996166 54.520256,46.024525 54.734684,46.040619 
	C54.796913,46.293182 54.623684,46.513084 54.269978,46.854343 
	C54.076271,46.826893 54.042015,46.661510 54.048820,46.246147 
z"/>
<path fill="#1F8152" opacity="1.000000" stroke="none" 
	d="
M61.766396,69.917145 
	C61.446613,69.843559 61.021423,69.542389 60.778755,69.106934 
	C61.194511,69.211624 61.427750,69.450600 61.766396,69.917145 
z"/>
<path fill="#1F8152" opacity="1.000000" stroke="none" 
	d="
M60.963104,67.737839 
	C60.660439,67.551010 60.334961,67.072891 60.005394,66.298721 
	C60.314301,66.483955 60.627293,66.965248 60.963104,67.737839 
z"/>
<path fill="#328C60" opacity="1.000000" stroke="none" 
	d="
M68.570557,73.104797 
	C68.709152,73.398743 68.524963,73.599686 68.041992,73.755707 
	C67.834267,73.794228 67.826851,73.494698 67.857224,73.348633 
	C67.887604,73.202568 68.338844,73.095230 68.570557,73.104797 
z"/>
<path fill="#B2E8CF" opacity="1.000000" stroke="none" 
	d="
M50.947231,38.123116 
	C50.966286,38.289021 50.750767,38.582539 50.269119,38.954407 
	C50.239548,38.772083 50.476101,38.511410 50.947231,38.123116 
z"/>
</svg>