<?xml version="1.0" standalone="no"?>
<!DOCTYPE svg PUBLIC "-//W3C//DTD SVG 20010904//EN"
 "http://www.w3.org/TR/2001/REC-SVG-20010904/DTD/svg10.dtd">
<svg version="1.0" xmlns="http://www.w3.org/2000/svg"
 width="100.000000pt" height="100.000000pt" viewBox="0 0 100.000000 100.000000"
 preserveAspectRatio="xMidYMid meet">

<g transform="translate(0.000000,100.000000) scale(0.100000,-0.100000)"
fill="#000000" stroke="none">
<path d="M0 500 l0 -500 500 0 500 0 0 500 0 500 -500 0 -500 0 0 -500z m784
283 l116 -116 0 -166 0 -166 -117 -117 -118 -118 -165 0 -165 0 -118 118 -117
117 0 165 0 165 117 117 118 118 166 0 167 0 116 -117z"/>
<path d="M237 762 l-107 -107 0 -155 0 -155 108 -108 107 -107 155 0 155 0
108 108 107 107 0 155 0 155 -108 108 -107 107 -155 0 -155 0 -108 -108z m233
43 c0 -33 -1 -34 -21 -23 -17 11 -22 10 -35 -6 -8 -11 -14 -16 -14 -10 0 5 -4
4 -8 -3 -12 -19 -36 2 -28 23 6 14 9 16 15 5 6 -10 11 -6 19 15 6 16 11 23 11
17 1 -18 31 -16 31 2 0 8 7 15 15 15 10 0 15 -11 15 -35z m105 12 c-3 16 0 20
11 16 16 -6 18 -32 3 -53 -8 -11 -12 -12 -16 -3 -3 8 -14 11 -29 7 -15 -4 -24
-2 -24 5 0 6 -10 12 -22 12 -20 1 -20 2 -4 6 15 4 16 7 5 15 -10 7 -8 8 8 3
12 -3 25 -1 29 6 5 8 13 4 25 -12 18 -24 18 -24 14 -2z m88 -16 c10 -4 19 -11
20 -16 1 -6 8 -8 16 -7 12 3 13 1 2 -11 -10 -13 -9 -17 6 -25 10 -5 23 -7 30
-5 17 6 26 -16 13 -32 -10 -12 -9 -15 9 -15 15 0 20 4 15 13 -6 10 -4 10 7 0
10 -10 10 -16 1 -25 -16 -16 -15 -29 1 -25 6 1 11 -6 10 -17 0 -10 11 -29 25
-42 22 -19 24 -23 10 -24 -20 0 -24 -16 -6 -22 13 -5 4 -38 -11 -38 -5 0 -12
18 -16 41 -4 22 -20 66 -36 96 -24 46 -27 58 -17 72 11 14 11 14 -3 4 -12 -10
-22 -10 -47 -1 -18 7 -32 18 -32 24 0 6 -13 17 -29 24 -19 7 -28 17 -24 26 6
15 27 17 56 5z m-315 -34 c2 -8 -6 -21 -17 -27 -17 -9 -21 -8 -21 5 0 8 3 14
8 14 20 -3 23 2 11 18 -12 14 -12 16 1 11 8 -2 16 -12 18 -21z m-40 -39 c18
-18 15 -27 -8 -21 -11 3 -20 12 -20 19 0 17 12 18 28 2z m-34 -40 c-7 -24 -47
-87 -55 -88 -3 0 -14 7 -25 15 -18 13 -18 14 5 8 18 -5 22 -3 16 7 -5 8 2 21
19 35 15 13 23 26 17 29 -6 4 -8 13 -4 22 8 23 35 -4 27 -28z m224 28 c22 1
31 -19 12 -31 -5 -3 -10 -1 -10 4 0 14 -12 14 -47 -1 -39 -16 -53 -18 -53 -7
0 5 7 9 15 9 8 0 14 3 14 8 -3 20 3 23 18 11 15 -12 16 -12 10 5 -6 14 -4 16
5 9 7 -5 23 -8 36 -7z m86 -30 c6 -21 7 -21 22 4 8 14 13 17 10 8 -3 -10 -1
-18 4 -18 6 0 10 5 10 12 0 9 3 9 11 1 24 -24 -19 -40 -61 -23 -3 1 -9 2 -13
1 -5 -1 -5 3 -2 9 4 7 0 10 -10 8 -10 -2 -20 2 -21 7 -2 6 7 11 20 11 17 1 26
-5 30 -20z m-202 -19 c-1 -4 -5 -13 -8 -21 -8 -21 -31 -27 -44 -11 -8 10 -8
15 1 21 8 5 9 3 4 -6 -5 -8 -3 -11 6 -8 8 3 13 12 11 21 -2 10 4 14 15 13 10
-2 17 -6 15 -9z m151 -27 c0 -14 -2 -79 -3 -145 l-2 -120 27 -3 c19 -3 30 -13
41 -37 16 -40 17 -48 4 -40 -5 3 -52 6 -105 6 -52 0 -95 2 -95 5 0 23 34 62
57 67 l28 5 -5 139 c-6 143 -3 155 35 151 14 -2 20 -10 18 -28z m125 8 c-2 -6
-10 -14 -16 -16 -7 -2 -10 2 -6 12 7 18 28 22 22 4z m-440 -75 c-4 -22 -22
-20 -26 1 -2 10 3 16 13 16 10 0 15 -7 13 -17z m-8 -42 c0 -15 -16 -22 -35
-15 -13 5 -14 8 -3 15 18 12 38 11 38 0z m580 -39 c0 -5 14 -6 31 -4 28 4 31
3 24 -17 -3 -12 -8 -34 -10 -49 -4 -33 -20 -71 -39 -95 -13 -17 -16 -17 -39
-2 -14 9 -24 21 -23 28 7 34 30 97 36 97 4 0 5 11 2 25 -2 15 0 25 7 25 6 0
11 -4 11 -8z m-550 -19 c0 -10 3 -29 7 -42 6 -22 4 -23 -28 -17 -25 5 -30 4
-19 -3 12 -9 11 -11 -7 -11 -15 0 -24 6 -25 18 -6 75 -8 72 33 72 30 0 39 -4
39 -17z m220 -69 c0 -10 -13 -14 -45 -14 -32 0 -45 4 -45 14 0 10 13 14 45 14
32 0 45 -4 45 -14z m154 -3 c-12 -12 -18 -13 -21 -3 -3 6 -9 10 -14 6 -5 -3
-9 -1 -9 4 0 5 14 9 30 9 29 0 30 -2 14 -16z m-358 -18 c-4 -10 -4 -14 0 -11
4 4 20 -11 36 -33 32 -44 74 -74 131 -91 35 -11 37 -13 31 -42 -10 -47 -24
-55 -19 -10 l5 39 -12 -33 c-10 -29 -15 -33 -37 -27 -14 3 -32 13 -38 22 -7 9
-13 14 -13 10 0 -4 -9 -3 -21 3 -13 7 -18 17 -15 27 5 13 4 14 -9 3 -14 -12
-20 -7 -15 15 1 5 -2 7 -6 3 -8 -9 -34 10 -34 24 0 6 7 8 15 5 14 -6 28 7 31
30 1 6 -5 14 -13 17 -7 3 -12 2 -9 -3 9 -14 -22 -34 -40 -27 -10 4 -14 12 -10
23 4 10 4 14 0 10 -4 -4 -12 3 -19 16 -10 19 -8 24 9 34 32 19 59 17 52 -4z
m464 -59 c0 -8 -5 -12 -10 -9 -6 4 -8 11 -5 16 9 14 15 11 15 -7z m40 -19 c9
-11 8 -19 -4 -37 -9 -12 -16 -18 -16 -13 0 5 -7 -1 -16 -13 -15 -22 -94 -69
-94 -56 0 4 -7 1 -15 -6 -12 -10 -17 -6 -30 22 -15 32 -15 27 -1 -19 5 -14 3
-23 -3 -23 -6 0 -11 7 -11 15 0 21 -18 19 -23 -2 -3 -10 -5 -3 -6 15 -1 45 -1
45 50 63 26 9 61 27 78 40 l31 23 27 -25 c20 -17 23 -18 10 -3 -9 11 -14 24
-10 27 10 11 19 8 33 -8z m-246 -107 c-4 -32 -21 -51 -37 -41 -7 4 -1 57 9 75
12 19 31 -6 28 -34z"/>
<path d="M800 470 c-12 -8 -10 -10 8 -10 13 0 20 4 17 10 -7 12 -6 12 -25 0z"/>
<path d="M372 210 c0 -14 2 -19 5 -12 2 6 2 18 0 25 -3 6 -5 1 -5 -13z"/>
<path d="M666 272 c-3 -5 1 -9 9 -9 8 0 12 4 9 9 -3 4 -7 8 -9 8 -2 0 -6 -4
-9 -8z"/>
</g>
</svg>
