<?xml version="1.0" standalone="no"?>
<!DOCTYPE svg PUBLIC "-//W3C//DTD SVG 20010904//EN"
 "http://www.w3.org/TR/2001/REC-SVG-20010904/DTD/svg10.dtd">
<svg version="1.0" xmlns="http://www.w3.org/2000/svg"
 width="100.000000pt" height="100.000000pt" viewBox="0 0 100.000000 100.000000"
 preserveAspectRatio="xMidYMid meet">

<g transform="translate(0.000000,100.000000) scale(0.100000,-0.100000)"
fill="#000000" stroke="none">
<path d="M240 679 c-28 -22 -49 -46 -47 -52 2 -7 31 -13 75 -15 62 -2 72 -5
72 -21 0 -26 -23 -32 -110 -31 -119 2 -140 1 -140 -10 0 -11 347 -15 374 -4
21 8 23 84 2 84 -9 0 -16 -12 -18 -32 -3 -30 -6 -33 -38 -33 -31 0 -35 3 -40
30 -5 29 -7 30 -75 35 l-70 5 43 34 c40 33 52 51 33 51 -5 0 -32 -18 -61 -41z"/>
<path d="M510 642 c0 -47 5 -83 12 -90 17 -17 349 -17 366 0 18 18 16 78 -3
78 -10 0 -15 -10 -15 -30 0 -16 -3 -31 -7 -31 -49 -8 -58 -3 -61 29 -4 41 -32
45 -32 3 0 -23 -6 -30 -26 -35 -42 -11 -64 1 -64 35 0 16 -4 29 -10 29 -5 0
-10 -13 -10 -30 0 -33 -22 -44 -81 -38 l-34 3 -3 78 c-2 59 -6 77 -17 77 -12
0 -15 -16 -15 -78z"/>
<path d="M400 505 c-18 -21 -3 -32 16 -13 10 9 12 18 6 22 -5 3 -15 -1 -22 -9z"/>
</g>
</svg>
