<svg version="1.1" id="Layer_1" xmlns="http://www.w3.org/2000/svg" xmlns:xlink="http://www.w3.org/1999/xlink" x="0px" y="0px"
	 width="100%" viewBox="0 0 100 100" enable-background="new 0 0 100 100" xml:space="preserve">
<path fill="#FFFFFF" opacity="1.000000" stroke="none" 
	d="
M1.000000,43.000000 
	C1.000000,29.015444 1.000000,15.030887 1.000000,1.023165 
	C34.281105,1.023165 67.562233,1.023165 100.921677,1.023165 
	C100.921677,34.244194 100.921677,67.488617 100.921677,100.866524 
	C67.666985,100.866524 34.333580,100.866524 1.000088,100.872169 
	C1.000000,82.897652 1.000000,64.917480 1.410623,46.520134 
	C4.345888,46.333313 6.870530,46.563675 9.755814,46.820343 
	C11.076933,46.831070 12.037409,46.815495 13.327457,46.885426 
	C14.104159,46.915749 14.551288,46.860573 15.395369,46.871864 
	C16.862131,46.895454 17.931942,46.852577 19.395042,46.897316 
	C20.855507,46.923512 21.922684,46.862091 23.444843,46.863068 
	C27.265516,46.997646 30.631201,47.069828 33.997688,47.570782 
	C34.010258,56.423645 34.010258,56.423645 42.968933,54.480034 
	C43.549194,58.698948 40.957577,59.242538 37.918823,59.081528 
	C34.136292,58.881111 31.813087,59.628876 33.977669,64.282921 
	C33.939823,64.522285 33.817822,64.991348 33.481052,65.039505 
	C32.031719,65.758926 30.649078,66.209915 29.875816,67.157936 
	C28.936085,68.310051 27.599380,70.356544 28.030710,71.182838 
	C29.382145,73.771759 31.349092,73.206947 33.378304,71.030891 
	C36.884262,71.341675 39.950935,71.644936 43.012810,72.339134 
	C43.638535,74.027603 44.269062,75.325127 44.899593,76.622658 
	C45.598442,75.391685 46.380173,74.197861 46.956478,72.911957 
	C47.196407,72.376617 46.998508,71.645042 47.425934,71.008133 
	C49.556107,71.051788 51.260052,71.090012 52.976650,71.483192 
	C53.257938,72.753113 53.526569,73.668068 53.795200,74.583031 
	C54.076141,74.534950 54.357079,74.486870 54.638020,74.438782 
	C54.769325,73.328796 54.900635,72.218811 55.402702,71.084679 
	C56.516338,71.045898 57.259212,71.031273 58.038651,71.318924 
	C59.046337,71.425636 60.017456,71.230064 61.448906,71.033600 
	C65.299377,71.074295 68.691315,71.191193 72.078552,71.110733 
	C73.071114,71.087151 74.050354,70.502754 75.247124,70.095352 
	C75.458557,70.015305 75.898026,69.908958 76.137650,69.969986 
	C76.377274,70.031013 76.858162,70.146416 77.003265,70.518623 
	C81.456886,70.929359 85.765404,70.967880 90.403839,71.060120 
	C91.808640,72.043533 92.883530,72.973228 94.095230,74.021263 
	C99.045128,70.314926 95.584198,64.441612 94.497711,63.034439 
	C90.505707,57.864174 85.656204,52.035301 78.185310,55.763699 
	C77.725494,52.412636 77.364868,49.784470 77.415283,47.075211 
	C79.217186,47.047287 80.608040,47.100460 82.055771,47.471424 
	C83.075966,47.574368 84.039291,47.359516 85.396759,47.067825 
	C86.860397,47.004787 87.929893,47.018593 89.005035,47.409279 
	C89.953041,50.089485 90.895393,52.392803 91.837746,54.696125 
	C92.428925,54.647869 93.020096,54.599609 93.611275,54.551353 
	C93.906898,51.550682 93.604156,48.322327 94.638924,45.602905 
	C96.176826,41.561214 94.891335,39.820316 91.028137,38.776573 
	C90.797569,38.255547 90.751900,37.941708 90.819199,37.217445 
	C88.570282,34.819256 86.666985,31.878542 82.882401,34.337742 
	C82.122704,34.831390 80.736809,34.467888 79.657570,34.343735 
	C76.100922,33.934597 72.552498,33.453949 68.613762,32.999889 
	C66.838120,32.365261 65.455002,31.719419 64.059952,31.100456 
	C61.710468,30.058031 59.353413,29.032661 56.789059,27.718294 
	C54.410053,26.260283 51.970707,24.370848 52.033459,29.370501 
	C52.003132,29.590221 51.812469,29.990765 51.478912,30.061768 
	C49.592041,31.392555 48.038723,32.652340 46.437798,33.950729 
	C46.565998,35.086960 46.706059,36.328289 46.692421,37.618713 
	C46.374660,37.812157 46.190807,37.923977 45.724678,38.223175 
	C45.012878,39.555641 44.563576,40.668209 44.114273,41.780777 
	C42.525230,40.540524 41.539032,39.073502 41.815323,37.904984 
	C42.850063,33.528709 42.198807,32.285675 37.994537,33.254017 
	C33.861664,34.205921 33.002716,32.534637 32.935692,28.981285 
	C32.900036,27.090878 32.182262,25.213335 31.772381,23.329987 
	C31.377542,23.395060 30.982704,23.460131 30.587868,23.525202 
	C30.125746,24.970919 29.663626,26.416634 29.201506,27.862350 
	C28.700279,27.954929 28.199055,28.047510 27.697828,28.140091 
	C26.798016,25.142902 25.898203,22.145716 24.998390,19.148527 
	C24.493525,19.107338 23.988659,19.066149 23.483793,19.024961 
	C23.330793,23.357498 21.135286,24.731567 16.567984,23.174242 
	C19.521023,27.623196 22.083496,31.285021 18.587875,35.551144 
	C18.844038,35.752552 19.100199,35.953960 19.258614,36.460884 
	C19.038816,37.176117 18.916767,37.585831 18.421761,38.053276 
	C14.370085,39.534618 8.768621,38.417969 8.597906,44.978439 
	C5.812393,44.319675 3.406196,43.659840 1.000000,43.000000 
M13.442555,36.360146 
	C12.558416,35.973209 11.674278,35.586273 10.790139,35.199333 
	C10.694146,35.618881 10.598153,36.038425 10.502159,36.457973 
	C11.321340,36.567375 12.140520,36.676781 13.442555,36.360146 
z"/>
<path fill="#F9FDFB" opacity="1.000000" stroke="none" 
	d="
M1.000000,43.375000 
	C3.406196,43.659840 5.812393,44.319675 8.610278,44.990585 
	C9.001966,45.001663 9.025853,45.024517 9.044888,45.375740 
	C9.085522,45.960461 9.107121,46.193958 9.240080,46.486576 
	C9.351439,46.545696 9.395172,46.794033 9.395172,46.794037 
	C6.870530,46.563675 4.345888,46.333313 1.410623,46.051476 
	C1.000000,45.250000 1.000000,44.500000 1.000000,43.375000 
z"/>
<path fill="#F9FDFB" opacity="1.000000" stroke="none" 
	d="
M34.015511,64.043556 
	C31.813087,59.628876 34.136292,58.881111 37.918823,59.081528 
	C40.957577,59.242538 43.549194,58.698948 42.968933,54.480034 
	C34.010258,56.423645 34.010258,56.423645 34.441315,47.488434 
	C37.584801,46.915051 40.285461,46.852787 43.242481,46.854721 
	C43.669128,46.873722 43.839417,46.828526 44.410084,46.844162 
	C46.244869,45.756588 48.573513,44.812344 48.893784,43.409565 
	C49.321541,41.535999 50.699261,38.340622 46.846119,37.569618 
	C46.706059,36.328289 46.565998,35.086960 46.437798,33.950729 
	C48.038723,32.652340 49.592041,31.392555 51.527168,30.527290 
	C51.916569,34.733639 52.062923,38.551735 51.891052,42.355453 
	C51.732731,45.859379 53.292522,47.023529 56.635643,46.986389 
	C63.423710,46.910988 70.214546,47.085060 77.004242,47.156307 
	C77.364868,49.784470 77.725494,52.412636 78.185310,55.763699 
	C85.656204,52.035301 90.505707,57.864174 94.497711,63.034439 
	C95.584198,64.441612 99.045128,70.314926 94.095230,74.021263 
	C92.883530,72.973228 91.808640,72.043533 90.394310,70.841476 
	C90.054863,70.569115 90.043716,70.131828 90.173569,69.861626 
	C90.343727,69.395851 90.384033,69.200279 90.563560,68.713959 
	C90.115959,67.147751 89.272018,65.926849 88.987740,64.587181 
	C87.874939,59.343166 85.262909,58.404709 80.967606,61.757099 
	C80.117378,62.420677 79.000931,62.743149 77.895355,62.929417 
	C77.167755,62.104660 76.552055,61.573414 75.970154,61.025955 
	C76.003960,61.009747 75.946762,61.059250 75.955574,60.664085 
	C75.507484,58.574867 75.050575,56.880814 74.593666,55.186760 
	C73.996277,55.218842 73.398888,55.250927 72.801498,55.283009 
	C72.525696,57.176975 72.249901,59.070938 71.982918,60.972980 
	C71.991737,60.981056 71.963356,60.975758 71.632248,61.008137 
	C70.487320,61.387356 69.673508,61.734196 68.533096,61.928741 
	C66.809692,61.448586 65.412895,61.120724 64.001503,60.379372 
	C63.950565,58.341591 64.251770,56.603729 63.757137,55.133625 
	C63.436619,54.181000 61.953545,53.619526 60.740753,53.001251 
	C60.276676,53.413284 60.063229,53.706856 59.630669,54.167858 
	C58.963032,54.894958 58.514511,55.454628 57.770668,55.815041 
	C55.474663,54.212193 53.473980,52.808601 50.909389,51.009399 
	C48.990131,53.352509 47.069767,55.696968 45.149403,58.041428 
	C45.552067,58.390812 45.954727,58.740200 46.357388,59.089588 
	C47.451710,57.788418 48.546032,56.487251 49.616062,55.214958 
	C51.947945,56.231430 54.045090,57.145576 56.101292,58.377647 
	C55.993343,59.118294 55.926331,59.541016 55.674133,60.068726 
	C55.235737,60.340145 55.081982,60.572433 54.692558,60.828804 
	C53.908386,60.754505 53.459339,60.721981 52.884521,60.561745 
	C52.495369,60.595623 52.231987,60.757214 51.809944,61.101856 
	C51.406372,61.497372 51.182041,61.729710 50.743874,61.964066 
	C50.509460,61.946213 50.043865,62.011765 49.800640,62.104317 
	C49.379921,62.485233 49.202427,62.773598 48.988182,63.277569 
	C48.951435,63.493172 48.866196,63.922211 48.619083,64.022842 
	C47.936241,64.423630 47.500515,64.723793 46.755371,65.037170 
	C46.243576,65.091286 46.041199,65.132187 45.924576,65.109398 
	C46.010330,65.045700 45.834126,65.161171 45.872131,64.736206 
	C45.850082,63.745731 45.790031,63.180222 45.721882,62.279991 
	C44.664032,61.427418 43.409813,60.255936 42.601181,60.508892 
	C39.658665,61.429375 36.865181,62.826279 34.015511,64.043556 
z"/>
<path fill="#2E5BAA" opacity="1.000000" stroke="none" 
	d="
M42.986122,46.790527 
	C40.285461,46.852787 37.584801,46.915051 34.440514,47.059662 
	C30.631201,47.069828 27.265516,46.997646 23.213984,46.645630 
	C21.352674,46.513763 20.177214,46.661732 19.001751,46.809700 
	C17.931942,46.852577 16.862131,46.895454 15.238310,46.680904 
	C14.122160,46.548958 13.560022,46.674438 12.997885,46.799919 
	C12.037409,46.815495 11.076933,46.831070 9.755814,46.820339 
	C9.395172,46.794033 9.351439,46.545696 9.458463,46.300644 
	C9.700757,45.700722 9.836027,45.345848 10.374258,44.892349 
	C15.187627,44.509300 19.598036,44.224880 24.335182,44.028370 
	C25.105238,44.056992 25.548559,43.997707 26.363712,44.024288 
	C27.492107,44.055607 28.248669,44.001057 29.415476,44.037369 
	C31.467543,43.636417 33.109364,43.144604 34.751186,42.652786 
	C34.166988,41.811596 33.582790,40.970406 32.743416,40.066975 
	C32.316582,40.039261 32.144917,40.073792 31.566280,40.032722 
	C29.783539,40.016998 28.407764,40.076878 26.612505,40.056664 
	C23.726921,39.316231 21.260820,38.655888 18.794720,37.995544 
	C18.916767,37.585831 19.038816,37.176117 19.576073,36.354820 
	C23.470879,33.724880 26.476904,30.412722 30.786118,30.110491 
	C30.994625,30.506376 31.203133,30.902260 31.411640,31.298143 
	C29.377361,33.022949 27.343081,34.747753 25.166048,36.593594 
	C30.172459,38.823063 38.976692,32.826458 38.191273,43.808853 
	C40.980690,43.808853 43.377888,43.808853 45.987167,43.808853 
	C45.987167,41.633213 45.987167,39.818241 45.987167,38.003273 
	C46.190807,37.923977 46.374660,37.812157 46.692421,37.618713 
	C50.699261,38.340622 49.321541,41.535999 48.893784,43.409565 
	C48.573513,44.812344 46.244869,45.756588 44.310833,46.703396 
	C43.536175,46.598038 43.261150,46.694283 42.986122,46.790527 
z"/>
<path fill="#2F5DAD" opacity="1.000000" stroke="none" 
	d="
M77.415283,47.075211 
	C70.214546,47.085060 63.423710,46.910988 56.635643,46.986389 
	C53.292522,47.023529 51.732731,45.859379 51.891052,42.355453 
	C52.062923,38.551735 51.916569,34.733639 51.860722,30.456287 
	C51.812469,29.990765 52.003132,29.590221 52.464912,29.303183 
	C53.647697,30.149460 54.906441,31.244480 54.990387,32.423168 
	C55.258240,36.184048 55.089710,39.975998 55.089710,43.927559 
	C57.395142,43.927559 59.189293,43.927559 61.315414,44.012199 
	C62.097385,44.042202 62.547398,43.987568 63.412487,44.020058 
	C64.670273,43.412327 65.910751,42.876190 66.265663,41.986702 
	C66.848190,40.526772 66.855988,38.837524 67.410225,37.240116 
	C68.119545,37.221581 68.524780,37.207909 69.085892,37.556023 
	C69.522476,39.844101 69.803177,41.770393 70.090454,43.741848 
	C72.720642,43.741848 75.238060,43.741848 77.626740,43.741848 
	C77.896187,41.292454 78.114059,39.311951 78.331924,37.331444 
	C78.923332,37.272732 79.514732,37.214020 80.106133,37.155308 
	C80.631294,39.389778 81.156456,41.624249 81.751923,44.157871 
	C83.652565,44.073982 85.528648,43.991177 86.293716,43.957409 
	C89.276604,41.900497 85.106232,36.818130 90.795029,37.614948 
	C90.751900,37.941708 90.797569,38.255547 90.957390,39.185776 
	C90.321617,42.220860 89.660500,44.626629 88.999382,47.032402 
	C87.929893,47.018593 86.860397,47.004787 85.025391,46.987473 
	C83.506210,47.040516 82.752556,47.097073 81.998901,47.153633 
	C80.608040,47.100460 79.217186,47.047287 77.415283,47.075211 
z"/>
<path fill="#F9FDFB" opacity="1.000000" stroke="none" 
	d="
M45.724678,38.223175 
	C45.987167,39.818241 45.987167,41.633213 45.987167,43.808853 
	C43.377888,43.808853 40.980690,43.808853 38.191273,43.808853 
	C38.976692,32.826458 30.172459,38.823063 25.166048,36.593594 
	C27.343081,34.747753 29.377361,33.022949 31.411640,31.298143 
	C31.203133,30.902260 30.994625,30.506376 30.786118,30.110491 
	C26.476904,30.412722 23.470879,33.724880 19.673820,36.049305 
	C19.100199,35.953960 18.844038,35.752552 18.587875,35.551144 
	C22.083496,31.285021 19.521023,27.623196 16.567984,23.174242 
	C21.135286,24.731567 23.330793,23.357498 23.483793,19.024961 
	C23.988659,19.066149 24.493525,19.107338 24.998390,19.148527 
	C25.898203,22.145716 26.798016,25.142902 27.697828,28.140091 
	C28.199055,28.047510 28.700279,27.954929 29.201506,27.862350 
	C29.663626,26.416634 30.125746,24.970919 30.587868,23.525202 
	C30.982704,23.460131 31.377542,23.395060 31.772381,23.329987 
	C32.182262,25.213335 32.900036,27.090878 32.935692,28.981285 
	C33.002716,32.534637 33.861664,34.205921 37.994537,33.254017 
	C42.198807,32.285675 42.850063,33.528709 41.815323,37.904984 
	C41.539032,39.073502 42.525230,40.540524 44.114273,41.780777 
	C44.563576,40.668209 45.012878,39.555641 45.724678,38.223175 
z"/>
<path fill="#F9FDFB" opacity="1.000000" stroke="none" 
	d="
M90.819199,37.217445 
	C85.106232,36.818130 89.276604,41.900497 86.293716,43.957409 
	C85.528648,43.991177 83.652565,44.073982 81.751923,44.157871 
	C81.156456,41.624249 80.631294,39.389778 80.106133,37.155308 
	C79.514732,37.214020 78.923332,37.272732 78.331924,37.331444 
	C78.114059,39.311951 77.896187,41.292454 77.626740,43.741848 
	C75.238060,43.741848 72.720642,43.741848 70.090454,43.741848 
	C69.803177,41.770393 69.522476,39.844101 69.106232,37.136940 
	C68.980759,35.237637 68.990837,34.119198 69.000916,33.000763 
	C72.552498,33.453949 76.100922,33.934597 79.657570,34.343735 
	C80.736809,34.467888 82.122704,34.831390 82.882401,34.337742 
	C86.666985,31.878542 88.570282,34.819256 90.819199,37.217445 
z"/>
<path fill="#F9FDFB" opacity="1.000000" stroke="none" 
	d="
M31.973248,40.108322 
	C32.144917,40.073792 32.316582,40.039261 32.734108,40.425980 
	C31.655056,41.880322 30.330143,42.913414 29.005230,43.946503 
	C28.248669,44.001057 27.492107,44.055607 26.216148,43.808533 
	C25.133984,43.651424 24.571215,43.795944 24.008446,43.940460 
	C19.598036,44.224880 15.187627,44.509300 10.137892,44.900566 
	C9.498568,45.007408 9.025853,45.024517 9.025853,45.024517 
	C9.025853,45.024517 9.001966,45.001663 8.989595,44.989513 
	C8.768621,38.417969 14.370085,39.534618 18.421761,38.053276 
	C21.260820,38.655888 23.726921,39.316231 26.853363,40.299820 
	C29.000217,40.451485 30.486732,40.279903 31.973248,40.108322 
z"/>
<path fill="#FEFDFE" opacity="1.000000" stroke="none" 
	d="
M68.613762,32.999889 
	C68.990837,34.119198 68.980759,35.237637 68.950348,36.775154 
	C68.524780,37.207909 68.119545,37.221581 67.253036,36.906723 
	C65.080383,35.732418 63.369003,34.886646 60.602417,33.519390 
	C61.621418,37.950062 62.309414,40.941498 62.997406,43.932938 
	C62.547398,43.987568 62.097385,44.042202 61.075867,43.753819 
	C57.371834,42.894508 55.147953,42.174900 57.300018,38.097019 
	C58.979553,34.914524 58.924427,31.312590 56.999546,28.000116 
	C59.353413,29.032661 61.710468,30.058031 64.059952,31.100456 
	C65.455002,31.719419 66.838120,32.365261 68.613762,32.999889 
z"/>
<path fill="#F2B94E" opacity="1.000000" stroke="none" 
	d="
M33.977669,64.282921 
	C36.865181,62.826279 39.658665,61.429375 42.601181,60.508892 
	C43.409813,60.255936 44.664032,61.427418 45.352592,62.354038 
	C43.548939,63.000355 42.106468,63.237904 40.664001,63.475449 
	C40.685471,63.767113 40.706940,64.058777 40.728413,64.350433 
	C42.430317,64.620682 44.132221,64.890930 45.834126,65.161171 
	C45.834126,65.161171 46.010330,65.045700 45.959549,65.496353 
	C45.990578,66.990921 46.072384,68.034828 45.877434,69.129303 
	C45.420864,69.233246 45.241058,69.286621 44.626728,69.242767 
	C41.092518,68.417885 37.992832,67.690224 34.839970,66.681000 
	C34.463802,65.930069 34.140812,65.460709 33.817822,64.991348 
	C33.817822,64.991348 33.939823,64.522285 33.977669,64.282921 
z"/>
<path fill="#F9FDFB" opacity="1.000000" stroke="none" 
	d="
M89.005035,47.409283 
	C89.660500,44.626629 90.321617,42.220860 91.053482,39.405884 
	C94.891335,39.820316 96.176826,41.561214 94.638924,45.602905 
	C93.604156,48.322327 93.906898,51.550682 93.611275,54.551353 
	C93.020096,54.599609 92.428925,54.647869 91.837746,54.696125 
	C90.895393,52.392803 89.953041,50.089485 89.005035,47.409283 
z"/>
<path fill="#F9FDFB" opacity="1.000000" stroke="none" 
	d="
M56.789059,27.718294 
	C58.924427,31.312590 58.979553,34.914524 57.300018,38.097019 
	C55.147953,42.174900 57.371834,42.894508 60.743904,43.669182 
	C59.189293,43.927559 57.395142,43.927559 55.089710,43.927559 
	C55.089710,39.975998 55.258240,36.184048 54.990387,32.423168 
	C54.906441,31.244480 53.647697,30.149460 52.495239,29.083462 
	C51.970707,24.370848 54.410053,26.260283 56.789059,27.718294 
z"/>
<path fill="#FDFCF2" opacity="1.000000" stroke="none" 
	d="
M33.481052,65.039505 
	C34.140812,65.460709 34.463802,65.930069 34.489616,66.765198 
	C33.774635,68.428429 33.356831,69.725891 32.939026,71.023361 
	C31.349092,73.206947 29.382145,73.771759 28.030710,71.182838 
	C27.599380,70.356544 28.936085,68.310051 29.875816,67.157936 
	C30.649078,66.209915 32.031719,65.758926 33.481052,65.039505 
z"/>
<path fill="#FFF6CA" opacity="1.000000" stroke="none" 
	d="
M33.378307,71.030891 
	C33.356831,69.725891 33.774635,68.428429 34.542793,67.046761 
	C37.992832,67.690224 41.092518,68.417885 44.580704,69.529129 
	C44.318676,70.591202 43.668140,71.269699 43.017609,71.948196 
	C39.950935,71.644936 36.884262,71.341675 33.378307,71.030891 
z"/>
<path fill="#FFF6CA" opacity="1.000000" stroke="none" 
	d="
M68.859688,62.081036 
	C69.673508,61.734196 70.487320,61.387356 71.683113,61.403900 
	C73.055283,64.569984 74.045486,67.372688 75.035690,70.175400 
	C74.050354,70.502754 73.071114,71.087151 72.078552,71.110733 
	C68.691315,71.191193 65.299377,71.074295 61.447701,70.774048 
	C60.989498,70.342621 60.992840,70.169853 61.455780,70.019066 
	C65.141174,70.041054 68.366966,70.041054 73.248604,70.041054 
	C71.345993,66.590355 70.102844,64.335693 68.859688,62.081036 
z"/>
<path fill="#E6B55A" opacity="1.000000" stroke="none" 
	d="
M75.247124,70.095352 
	C74.045486,67.372688 73.055283,64.569984 72.014221,61.371521 
	C71.963356,60.975758 71.991737,60.981056 72.381714,60.947151 
	C73.830055,60.961914 74.888405,61.010582 75.946762,61.059250 
	C75.946762,61.059250 76.003960,61.009747 75.996071,61.469757 
	C75.958130,64.589500 75.928078,67.249229 75.898026,69.908958 
	C75.898026,69.908958 75.458557,70.015305 75.247124,70.095352 
z"/>
<path fill="#FFF6CA" opacity="1.000000" stroke="none" 
	d="
M90.043716,70.131828 
	C90.043716,70.131828 90.054863,70.569115 90.064392,70.787758 
	C85.765404,70.967880 81.456886,70.929359 77.105728,70.414284 
	C77.063080,69.937737 77.266785,69.732613 77.697998,69.829330 
	C82.100716,69.994644 86.072212,70.063240 90.043716,70.131828 
z"/>
<path fill="#FDFCF2" opacity="1.000000" stroke="none" 
	d="
M43.012806,72.339134 
	C43.668140,71.269699 44.318676,70.591202 45.015236,69.626350 
	C45.241058,69.286621 45.420864,69.233246 46.005486,69.142090 
	C46.410301,69.104301 46.669231,69.107971 46.782230,69.294662 
	C46.895229,69.481346 47.053936,69.887909 47.035229,70.166351 
	C47.010910,70.630775 47.005302,70.816742 46.999695,71.002701 
	C46.998508,71.645042 47.196407,72.376617 46.956478,72.911957 
	C46.380173,74.197861 45.598442,75.391685 44.899593,76.622658 
	C44.269062,75.325127 43.638535,74.027603 43.012806,72.339134 
z"/>
<path fill="#FFF6CA" opacity="1.000000" stroke="none" 
	d="
M76.137650,69.969986 
	C75.928078,67.249229 75.958130,64.589500 75.962265,61.485970 
	C76.552055,61.573414 77.167755,62.104660 77.899689,63.228783 
	C78.016144,64.226631 78.016365,64.631599 77.940804,65.378632 
	C77.665604,67.057999 77.466194,68.395302 77.266785,69.732613 
	C77.266785,69.732613 77.063080,69.937737 76.960617,70.042076 
	C76.858162,70.146416 76.377274,70.031013 76.137650,69.969986 
z"/>
<path fill="#FFF6CA" opacity="1.000000" stroke="none" 
	d="
M47.425930,71.008133 
	C47.005302,70.816742 47.010910,70.630775 47.486198,70.201141 
	C51.299980,69.965340 54.644089,69.973198 57.995796,70.239899 
	C58.002964,70.671371 58.002522,70.844009 58.002083,71.016640 
	C57.259212,71.031273 56.516338,71.045898 55.057991,71.057449 
	C53.883011,71.078995 53.423500,71.103615 52.963993,71.128235 
	C51.260052,71.090012 49.556107,71.051788 47.425930,71.008133 
z"/>
<path fill="#FDFCF2" opacity="1.000000" stroke="none" 
	d="
M58.038651,71.318924 
	C58.002522,70.844009 58.002964,70.671371 57.997574,70.249619 
	C57.991749,70.000504 57.975185,69.988846 58.203548,69.929527 
	C58.714867,69.716087 58.937176,69.499687 59.336746,69.158585 
	C59.574654,69.096176 60.052441,68.979111 60.226616,69.013252 
	C60.400795,69.047394 60.751453,69.102615 60.806976,69.327782 
	C60.862503,69.552948 60.996178,69.997078 60.996178,69.997078 
	C60.992840,70.169853 60.989498,70.342621 60.987366,70.774933 
	C60.017456,71.230064 59.046337,71.425636 58.038651,71.318924 
z"/>
<path fill="#FDFCF2" opacity="1.000000" stroke="none" 
	d="
M52.976650,71.483192 
	C53.423500,71.103615 53.883011,71.078995 54.687229,71.081604 
	C54.900635,72.218811 54.769325,73.328796 54.638020,74.438782 
	C54.357079,74.486870 54.076141,74.534950 53.795200,74.583031 
	C53.526569,73.668068 53.257938,72.753113 52.976650,71.483192 
z"/>
<path fill="#F9FDFB" opacity="1.000000" stroke="none" 
	d="
M13.201128,36.573166 
	C12.140520,36.676781 11.321340,36.567375 10.502159,36.457973 
	C10.598153,36.038425 10.694146,35.618881 10.790139,35.199333 
	C11.674278,35.586273 12.558416,35.973209 13.201128,36.573166 
z"/>
<path fill="#F9FDFB" opacity="1.000000" stroke="none" 
	d="
M82.055771,47.471424 
	C82.752556,47.097073 83.506210,47.040516 84.631241,47.064316 
	C84.039291,47.359516 83.075966,47.574368 82.055771,47.471424 
z"/>
<path fill="#4671BD" opacity="1.000000" stroke="none" 
	d="
M19.395042,46.897316 
	C20.177214,46.661732 21.352674,46.513763 22.758999,46.583233 
	C21.922684,46.862091 20.855507,46.923512 19.395042,46.897316 
z"/>
<path fill="#4671BD" opacity="1.000000" stroke="none" 
	d="
M13.327457,46.885422 
	C13.560022,46.674438 14.122160,46.548958 14.841356,46.614437 
	C14.551288,46.860573 14.104159,46.915749 13.327457,46.885422 
z"/>
<path fill="#FFFFFF" opacity="1.000000" stroke="none" 
	d="
M9.044888,45.375740 
	C9.025853,45.024517 9.498568,45.007408 9.734933,44.999191 
	C9.836027,45.345848 9.700757,45.700722 9.347103,46.241524 
	C9.107121,46.193958 9.085522,45.960461 9.044888,45.375740 
z"/>
<path fill="#FBECB9" opacity="1.000000" stroke="none" 
	d="
M78.016594,65.036568 
	C78.016365,64.631599 78.016144,64.226631 78.011589,63.522293 
	C79.000931,62.743149 80.117378,62.420677 80.967606,61.757099 
	C85.262909,58.404709 87.874939,59.343166 88.987740,64.587181 
	C89.272018,65.926849 90.115959,67.147751 90.145126,68.571274 
	C85.904182,66.946083 80.734261,69.843712 78.016594,65.036568 
z"/>
<path fill="#E3B257" opacity="1.000000" stroke="none" 
	d="
M61.455780,70.019066 
	C60.996178,69.997078 60.862503,69.552948 60.915230,69.299500 
	C60.967953,69.046059 61.176292,68.966194 61.460190,68.959808 
	C62.166325,68.621475 62.588566,68.289520 63.006840,67.560966 
	C63.002869,66.103600 63.002865,65.042824 63.310692,63.802532 
	C63.751041,62.679634 63.883564,61.736248 64.016090,60.792862 
	C65.412895,61.120724 66.809692,61.448586 68.533096,61.928741 
	C70.102844,64.335693 71.345993,66.590355 73.248604,70.041054 
	C68.366966,70.041054 65.141174,70.041054 61.455780,70.019066 
z"/>
<path fill="#FFFFFF" opacity="1.000000" stroke="none" 
	d="
M56.142231,58.059723 
	C54.045090,57.145576 51.947945,56.231430 49.616062,55.214958 
	C48.546032,56.487251 47.451710,57.788418 46.357388,59.089588 
	C45.954727,58.740200 45.552067,58.390812 45.149403,58.041428 
	C47.069767,55.696968 48.990131,53.352509 50.909389,51.009399 
	C53.473980,52.808601 55.474663,54.212193 57.743980,56.100986 
	C57.968132,56.966602 57.923645,57.347023 57.589973,57.788284 
	C56.914604,57.919323 56.528419,57.989521 56.142231,58.059723 
z"/>
<path fill="#E1AE57" opacity="1.000000" stroke="none" 
	d="
M77.940804,65.378632 
	C80.734261,69.843712 85.904182,66.946083 90.005905,68.862015 
	C90.384033,69.200279 90.343727,69.395851 90.173569,69.861626 
	C86.072212,70.063240 82.100716,69.994644 77.697998,69.829330 
	C77.466194,68.395302 77.665604,67.057999 77.940804,65.378632 
z"/>
<path fill="#E1A849" opacity="1.000000" stroke="none" 
	d="
M57.989971,69.990784 
	C54.644089,69.973198 51.299980,69.965340 47.504906,69.922699 
	C47.053936,69.887909 46.895229,69.481346 46.840755,68.886993 
	C46.879116,67.203079 46.971951,66.113518 47.064789,65.023949 
	C47.500515,64.723793 47.936241,64.423630 48.875343,64.157318 
	C49.606155,64.496773 49.833591,64.802376 50.041935,65.421585 
	C50.021610,66.154961 50.020378,66.574722 49.868053,67.254692 
	C51.776768,67.633621 53.836578,67.752350 56.138451,67.878098 
	C56.380516,67.885124 56.864780,67.877304 57.006969,68.116898 
	C57.440727,68.578438 57.732296,68.800385 58.024467,69.264603 
	C58.025066,69.506874 57.975185,69.988846 57.975185,69.988846 
	C57.975185,69.988846 57.991749,70.000504 57.989971,69.990784 
z"/>
<path fill="#FFF6CA" opacity="1.000000" stroke="none" 
	d="
M75.955574,60.664085 
	C74.888405,61.010582 73.830055,60.961914 72.372894,60.939079 
	C72.249901,59.070938 72.525696,57.176975 72.801498,55.283009 
	C73.398888,55.250927 73.996277,55.218842 74.593666,55.186760 
	C75.050575,56.880814 75.507484,58.574867 75.955574,60.664085 
z"/>
<path fill="#FFF0AA" opacity="1.000000" stroke="none" 
	d="
M64.001503,60.379372 
	C63.883564,61.736248 63.751041,62.679634 63.313721,63.434017 
	C62.688931,62.147652 62.368942,61.050285 61.999847,59.549316 
	C61.644669,57.216454 61.338596,55.287193 61.024723,53.238934 
	C61.016922,53.119930 60.991390,52.882786 60.991390,52.882786 
	C61.953545,53.619526 63.436619,54.181000 63.757137,55.133625 
	C64.251770,56.603729 63.950565,58.341591 64.001503,60.379372 
z"/>
<path fill="#FFF9BB" opacity="1.000000" stroke="none" 
	d="
M57.879158,57.727440 
	C57.923645,57.347023 57.968132,56.966602 58.039303,56.300240 
	C58.514511,55.454628 58.963032,54.894958 59.787521,54.166359 
	C60.163486,53.997429 60.476143,53.971695 60.399620,54.358566 
	C60.319969,55.791466 60.316837,56.837502 60.234890,58.184452 
	C60.187637,58.690334 60.219200,58.895298 60.220715,59.405716 
	C60.208721,60.119228 60.226780,60.527290 60.159588,61.375771 
	C60.067036,64.203827 60.059738,66.591469 60.052441,68.979111 
	C60.052441,68.979111 59.574654,69.096176 59.294754,69.079788 
	C59.014851,69.063408 58.929970,68.910271 58.954041,68.465790 
	C58.962814,65.022125 58.947521,62.022938 58.829353,58.757858 
	C58.444038,58.237125 58.161602,57.982285 57.879158,57.727440 
z"/>
<path fill="#F1CC7C" opacity="1.000000" stroke="none" 
	d="
M57.589977,57.788284 
	C58.161602,57.982285 58.444038,58.237125 58.598732,58.749535 
	C58.470985,59.007103 58.008663,59.018089 57.697624,59.275322 
	C57.212650,62.314137 57.038715,65.095718 56.864777,67.877304 
	C56.864780,67.877304 56.380516,67.885124 56.162712,67.539932 
	C55.679005,66.169792 55.413101,65.144836 55.101414,63.745102 
	C55.079853,62.868649 55.104076,62.366966 55.356720,61.709930 
	C55.676529,61.024296 55.767925,60.494015 55.859322,59.963734 
	C55.926331,59.541016 55.993343,59.118294 56.101292,58.377647 
	C56.528419,57.989521 56.914604,57.919323 57.589977,57.788284 
z"/>
<path fill="#ECA82B" opacity="1.000000" stroke="none" 
	d="
M55.128304,61.865288 
	C55.104076,62.366966 55.079853,62.868649 55.029366,64.019440 
	C54.429317,65.008980 53.855534,65.349419 53.216835,65.415970 
	C52.831867,64.502457 52.511810,63.862816 51.947079,63.060135 
	C51.461037,62.592030 51.219662,62.286972 50.978287,61.981915 
	C51.182041,61.729710 51.406372,61.497372 52.085571,61.113457 
	C52.683334,60.857830 52.846817,60.773647 53.010296,60.689461 
	C53.459339,60.721981 53.908386,60.754505 54.698776,61.079491 
	C55.069515,61.536400 55.098911,61.700844 55.128304,61.865288 
z"/>
<path fill="#FFF6CA" opacity="1.000000" stroke="none" 
	d="
M45.872131,64.736206 
	C44.132221,64.890930 42.430317,64.620682 40.728413,64.350433 
	C40.706940,64.058777 40.685471,63.767113 40.664001,63.475449 
	C42.106468,63.237904 43.548939,63.000355 45.360695,62.688759 
	C45.790031,63.180222 45.850082,63.745731 45.872131,64.736206 
z"/>
<path fill="#E8B45B" opacity="1.000000" stroke="none" 
	d="
M50.743874,61.964066 
	C51.219662,62.286972 51.461037,62.592030 51.774681,63.289036 
	C51.251644,64.156647 50.656338,64.632317 50.061031,65.107979 
	C49.833591,64.802376 49.606155,64.496773 49.122456,64.056686 
	C48.866196,63.922211 48.951435,63.493172 49.217476,63.164467 
	C49.670300,62.561100 49.857082,62.286430 50.043865,62.011765 
	C50.043865,62.011765 50.509460,61.946213 50.743874,61.964066 
z"/>
<path fill="#FFF6CA" opacity="1.000000" stroke="none" 
	d="
M46.755371,65.037170 
	C46.971951,66.113518 46.879116,67.203079 46.727757,68.700310 
	C46.669231,69.107971 46.410301,69.104301 46.282246,69.091522 
	C46.072384,68.034828 45.990578,66.990921 45.873795,65.560059 
	C46.041199,65.132187 46.243576,65.091286 46.755371,65.037170 
z"/>
<path fill="#FFF2CD" opacity="1.000000" stroke="none" 
	d="
M55.356720,61.709930 
	C55.098911,61.700844 55.069515,61.536400 55.033905,61.121269 
	C55.081982,60.572433 55.235737,60.340145 55.674137,60.068726 
	C55.767925,60.494015 55.676529,61.024296 55.356720,61.709930 
z"/>
<path fill="#FFF2CD" opacity="1.000000" stroke="none" 
	d="
M49.800640,62.104317 
	C49.857082,62.286430 49.670300,62.561100 49.254227,62.948868 
	C49.202427,62.773598 49.379921,62.485233 49.800640,62.104317 
z"/>
<path fill="#FFF2CD" opacity="1.000000" stroke="none" 
	d="
M52.884521,60.561745 
	C52.846817,60.773647 52.683334,60.857830 52.244232,60.930412 
	C52.231987,60.757214 52.495369,60.595623 52.884521,60.561745 
z"/>
<path fill="#EFC178" opacity="1.000000" stroke="none" 
	d="
M60.006638,53.998928 
	C60.063229,53.706856 60.276676,53.413284 60.740753,53.001251 
	C60.991390,52.882786 61.016922,53.119930 60.960781,53.366261 
	C60.807346,53.786640 60.664513,53.906342 60.476143,53.971695 
	C60.476143,53.971695 60.163486,53.997429 60.006638,53.998928 
z"/>
<path fill="#4671BD" opacity="1.000000" stroke="none" 
	d="
M43.242481,46.854721 
	C43.261150,46.694283 43.536175,46.598038 43.910454,46.642563 
	C43.839417,46.828526 43.669128,46.873722 43.242481,46.854721 
z"/>
<path fill="#EFFAFE" opacity="1.000000" stroke="none" 
	d="
M29.415476,44.037369 
	C30.330143,42.913414 31.655056,41.880322 32.989281,40.488220 
	C33.582790,40.970406 34.166988,41.811596 34.751186,42.652786 
	C33.109364,43.144604 31.467543,43.636417 29.415476,44.037369 
z"/>
<path fill="#EFFAFE" opacity="1.000000" stroke="none" 
	d="
M31.566280,40.032722 
	C30.486732,40.279903 29.000217,40.451485 27.272846,40.379913 
	C28.407764,40.076878 29.783539,40.016998 31.566280,40.032722 
z"/>
<path fill="#EFFAFE" opacity="1.000000" stroke="none" 
	d="
M24.335182,44.028366 
	C24.571215,43.795944 25.133984,43.651424 25.844315,43.722664 
	C25.548559,43.997707 25.105238,44.056992 24.335182,44.028366 
z"/>
<path fill="#F9FDFB" opacity="1.000000" stroke="none" 
	d="
M63.412487,44.020058 
	C62.309414,40.941498 61.621418,37.950062 60.602417,33.519390 
	C63.369003,34.886646 65.080383,35.732418 66.948944,36.911583 
	C66.855988,38.837524 66.848190,40.526772 66.265663,41.986702 
	C65.910751,42.876190 64.670273,43.412327 63.412487,44.020058 
z"/>
<path fill="#EFC178" opacity="1.000000" stroke="none" 
	d="
M60.226616,69.013252 
	C60.059738,66.591469 60.067036,64.203827 60.391747,61.692619 
	C60.864872,64.034767 61.020580,66.500481 61.176292,68.966194 
	C61.176292,68.966194 60.967953,69.046059 60.859703,69.074341 
	C60.751453,69.102615 60.400795,69.047394 60.226616,69.013252 
z"/>
<path fill="#FFF6CA" opacity="1.000000" stroke="none" 
	d="
M58.203548,69.929527 
	C57.975185,69.988846 58.025066,69.506874 58.027962,69.277374 
	C58.030861,69.047874 58.058762,69.045120 58.279453,69.030075 
	C58.500145,69.015038 58.929970,68.910271 58.929970,68.910271 
	C58.929970,68.910271 59.014851,69.063408 59.056847,69.142197 
	C58.937176,69.499687 58.714867,69.716087 58.203548,69.929527 
z"/>
<path fill="#E7A735" opacity="1.000000" stroke="none" 
	d="
M61.460190,68.959808 
	C61.020580,66.500481 60.864872,64.034767 60.477001,61.252205 
	C60.226780,60.527290 60.208721,60.119228 60.361374,59.285255 
	C60.577847,58.744183 60.688213,58.605713 60.656727,58.518417 
	C60.576012,58.294662 60.432259,58.093643 60.313705,57.883533 
	C60.316837,56.837502 60.319969,55.791466 60.399620,54.358566 
	C60.664513,53.906342 60.807346,53.786640 60.968582,53.485264 
	C61.338596,55.287193 61.644669,57.216454 61.989838,59.982216 
	C62.356224,63.198334 62.683514,65.577950 63.010807,67.957558 
	C62.588566,68.289520 62.166325,68.621475 61.460190,68.959808 
z"/>
<path fill="#FAC152" opacity="1.000000" stroke="none" 
	d="
M63.006836,67.560966 
	C62.683514,65.577950 62.356224,63.198334 62.038940,60.385822 
	C62.368942,61.050285 62.688931,62.147652 63.005890,63.613529 
	C63.002865,65.042824 63.002869,66.103600 63.006836,67.560966 
z"/>
<path fill="#FFF8AD" opacity="1.000000" stroke="none" 
	d="
M53.281750,65.689850 
	C53.855534,65.349419 54.429317,65.008980 55.075150,64.394211 
	C55.413101,65.144836 55.679005,66.169792 55.920647,67.532913 
	C53.836578,67.752350 51.776768,67.633621 50.243301,67.254990 
	C51.607014,66.559998 52.444382,66.124924 53.281750,65.689850 
z"/>
<path fill="#E6A52F" opacity="1.000000" stroke="none" 
	d="
M57.006966,68.116898 
	C57.038715,65.095718 57.212650,62.314137 57.697395,59.728241 
	C58.025059,62.964325 58.041908,66.004723 58.058762,69.045120 
	C58.058762,69.045120 58.030861,69.047874 58.027363,69.035095 
	C57.732296,68.800385 57.440727,68.578438 57.006966,68.116898 
z"/>
<path fill="#FFF6C2" opacity="1.000000" stroke="none" 
	d="
M53.216835,65.415970 
	C52.444382,66.124924 51.607014,66.559998 50.394394,66.994781 
	C50.020378,66.574722 50.021610,66.154961 50.041935,65.421585 
	C50.656338,64.632317 51.251644,64.156647 52.019352,63.452084 
	C52.511810,63.862816 52.831867,64.502457 53.216835,65.415970 
z"/>
<path fill="#F9BB4C" opacity="1.000000" stroke="none" 
	d="
M58.279453,69.030075 
	C58.041908,66.004723 58.025059,62.964325 58.008438,59.471008 
	C58.008663,59.018089 58.470985,59.007103 58.701607,59.015427 
	C58.947521,62.022938 58.962814,65.022125 58.954041,68.465790 
	C58.929970,68.910271 58.500145,69.015038 58.279453,69.030075 
z"/>
<path fill="#EFC178" opacity="1.000000" stroke="none" 
	d="
M60.234894,58.184452 
	C60.432259,58.093643 60.576012,58.294662 60.656727,58.518417 
	C60.688213,58.605713 60.577847,58.744183 60.391426,58.979801 
	C60.219200,58.895298 60.187637,58.690334 60.234894,58.184452 
z"/>
</svg>