<svg version="1.1" id="Layer_1" xmlns="http://www.w3.org/2000/svg" xmlns:xlink="http://www.w3.org/1999/xlink" x="0px" y="0px"
	 width="100%" viewBox="0 0 100 100" enable-background="new 0 0 100 100" xml:space="preserve">
<path fill="#FFFEFE" opacity="1.000000" stroke="none" 
	d="
M58.000000,101.000000 
	C38.666672,101.000000 19.833340,101.000000 1.000008,101.000000 
	C1.000005,67.666679 1.000005,34.333351 1.000003,1.000021 
	C34.333317,1.000014 67.666634,1.000014 100.999969,1.000007 
	C100.999977,34.333313 100.999977,67.666626 100.999985,100.999969 
	C86.833336,101.000000 72.666664,101.000000 58.000000,101.000000 
M58.647606,37.546227 
	C58.296146,37.442379 57.944683,37.338531 56.832142,37.056198 
	C51.447353,34.655342 46.730156,35.865505 42.377800,39.579006 
	C41.062386,40.701336 39.476467,41.506634 37.460892,41.989708 
	C32.919781,34.713806 29.788727,33.705345 17.480158,36.281071 
	C22.502064,40.843422 26.954344,44.888271 31.278221,49.662720 
	C26.386127,55.004910 21.494034,60.347095 16.297211,66.022049 
	C24.092876,66.295166 31.912432,68.397186 37.148293,60.339996 
	C37.687786,59.509808 39.062016,59.222069 40.139736,59.332470 
	C40.743694,59.951073 41.347652,60.569679 41.998360,61.934177 
	C43.115810,62.547760 44.233261,63.161343 45.705570,63.895313 
	C45.705570,63.895313 45.975700,64.155014 46.217686,64.594810 
	C46.523212,64.706825 46.828735,64.818840 47.563477,64.992210 
	C47.563477,64.992210 47.953735,65.181114 48.136036,65.875816 
	C51.068188,67.267632 53.997837,70.364906 57.346867,65.469589 
	C58.089806,65.232407 58.832741,64.995224 60.200428,64.727043 
	C60.424294,64.400246 60.648163,64.073441 61.117928,63.348614 
	C61.357002,63.127178 61.639137,63.005936 62.453674,62.867554 
	C62.646133,62.603622 62.838593,62.339687 63.256752,61.619774 
	C63.530685,61.427975 63.804619,61.236179 64.782257,61.051014 
	C65.485680,61.022499 66.189110,60.993984 67.188675,61.615784 
	C72.227905,68.047508 79.118652,66.033707 86.617149,66.032074 
	C82.622612,61.628319 79.240807,57.900066 75.934830,53.415333 
	C77.303711,50.639771 78.672592,47.864212 80.277992,44.630581 
	C80.556648,44.438221 80.835304,44.245865 81.837646,44.031902 
	C82.446007,43.250332 83.054367,42.468758 83.894974,41.906937 
	C83.894974,41.906937 83.694824,41.657604 84.447479,41.822029 
	C88.709763,39.477577 90.536507,35.027332 88.134315,34.690109 
	C83.030334,33.973606 77.739799,34.553185 72.530907,34.743176 
	C72.332832,34.750401 72.188484,36.230961 72.000084,36.999168 
	C72.000084,36.999168 72.027786,37.015850 71.548470,37.160801 
	C71.360550,37.426594 71.172630,37.692387 71.001732,38.000141 
	C71.001732,38.000141 70.961792,37.978836 70.220329,37.982010 
	C69.629158,38.774830 69.037994,39.567646 68.366051,40.371040 
	C68.366051,40.371040 68.359039,40.452198 67.661903,40.229351 
	C67.145668,40.867252 66.629433,41.505154 65.989311,42.038074 
	C65.989311,42.038074 66.127792,42.122051 65.396156,42.050076 
	C64.907349,42.062294 64.418549,42.074512 63.355453,41.793468 
	C62.227814,40.792709 61.100174,39.791954 59.764744,38.401348 
	C59.557434,38.162968 59.295822,38.045891 58.981613,38.014130 
	C58.981613,38.014130 58.948643,38.028679 58.647606,37.546227 
z"/>
<path fill="#BC1C39" opacity="1.000000" stroke="none" 
	d="
M38.014458,42.457150 
	C39.476467,41.506634 41.062386,40.701336 42.377800,39.579006 
	C46.730156,35.865505 51.447353,34.655342 57.361946,37.383202 
	C58.244049,37.816364 58.596344,37.922523 58.948643,38.028679 
	C58.948643,38.028679 58.981613,38.014130 59.063614,38.250122 
	C59.349628,38.781868 59.625267,38.883560 59.972534,38.791195 
	C61.100174,39.791954 62.227814,40.792709 63.557274,42.208359 
	C63.566170,43.112755 63.373241,43.602261 63.006874,44.372540 
	C61.208866,46.419952 59.584293,48.186592 57.613197,49.964767 
	C55.859310,48.257164 54.451950,46.538021 52.515755,44.172890 
	C49.835503,47.681915 47.788086,50.362427 45.455482,53.171928 
	C43.463169,55.094826 41.756039,56.888725 40.048912,58.682625 
	C39.062016,59.222069 37.687786,59.509808 37.148293,60.339996 
	C31.912432,68.397186 24.092876,66.295166 16.297211,66.022049 
	C21.494034,60.347095 26.386127,55.004910 31.631451,49.202324 
	C33.994606,46.647007 36.004532,44.552078 38.014458,42.457150 
z"/>
<path fill="#F7A51D" opacity="1.000000" stroke="none" 
	d="
M40.094322,59.007545 
	C41.756039,56.888725 43.463169,55.094826 45.843033,53.223259 
	C48.494102,54.070889 50.472439,54.996178 53.258041,56.299038 
	C54.661602,54.404667 56.310661,52.178947 57.959724,49.953232 
	C59.584293,48.186592 61.208866,46.419952 63.325523,44.359184 
	C64.587669,43.417389 65.357727,42.769718 66.127792,42.122051 
	C66.127792,42.122051 65.989311,42.038074 66.358994,42.056431 
	C67.272125,41.533924 67.815582,40.993061 68.359039,40.452198 
	C68.359039,40.452198 68.366051,40.371040 68.684341,40.271564 
	C69.655685,39.441006 70.308739,38.709923 70.961792,37.978836 
	C70.961792,37.978836 71.001732,38.000141 71.243797,37.923229 
	C71.666504,37.569492 71.847145,37.292671 72.027786,37.015850 
	C72.027786,37.015850 72.000084,36.999168 72.402901,36.870529 
	C77.572777,36.379097 82.339844,36.016304 88.288277,35.563606 
	C86.170868,38.372711 84.932846,40.015156 83.694824,41.657600 
	C83.694824,41.657604 83.894974,41.906937 83.491028,41.880329 
	C82.429367,42.586979 81.771660,43.320240 81.113953,44.053501 
	C80.835304,44.245865 80.556648,44.438221 79.843140,44.957802 
	C76.953377,47.868465 74.498466,50.451904 71.903336,53.329765 
	C70.120369,55.361248 68.477615,57.098312 66.522202,58.883224 
	C65.499199,59.635506 64.788872,60.339943 64.078552,61.044380 
	C63.804619,61.236179 63.530685,61.427975 62.894711,61.897812 
	C62.343224,62.445530 62.153774,62.715210 61.964325,62.984894 
	C61.639137,63.005936 61.357002,63.127178 60.723591,63.636448 
	C60.078060,64.202202 59.826870,64.480118 59.575680,64.758034 
	C58.832741,64.995224 58.089806,65.232407 56.719879,65.662521 
	C53.379841,65.630676 50.666786,65.405891 47.953735,65.181107 
	C47.953735,65.181114 47.563477,64.992210 47.232147,64.734024 
	C46.592442,64.368889 46.284073,64.261955 45.975700,64.155014 
	C45.975700,64.155014 45.705570,63.895313 45.367374,63.559845 
	C44.003323,62.545681 42.977467,61.866982 41.951611,61.188286 
	C41.347652,60.569679 40.743694,59.951073 40.094322,59.007545 
z"/>
<path fill="#F4A828" opacity="1.000000" stroke="none" 
	d="
M37.737675,42.223427 
	C36.004532,44.552078 33.994606,46.647007 31.695652,48.837524 
	C26.954344,44.888271 22.502064,40.843422 17.480158,36.281071 
	C29.788727,33.705345 32.919781,34.713806 37.737675,42.223427 
z"/>
<path fill="#B51D3A" opacity="1.000000" stroke="none" 
	d="
M66.834869,58.835377 
	C68.477615,57.098312 70.120369,55.361248 72.246811,53.321342 
	C73.773338,53.402939 74.816162,53.787376 75.858994,54.171814 
	C79.240807,57.900066 82.622612,61.628319 86.617149,66.032074 
	C79.118652,66.033707 72.227905,68.047508 67.125214,60.938667 
	C66.986130,59.786156 66.910500,59.310768 66.834869,58.835377 
z"/>
<path fill="#FEF2D7" opacity="1.000000" stroke="none" 
	d="
M84.071152,41.739815 
	C84.932846,40.015156 86.170868,38.372711 88.288277,35.563606 
	C82.339844,36.016304 77.572777,36.379097 72.412407,36.883427 
	C72.188484,36.230961 72.332832,34.750401 72.530907,34.743176 
	C77.739799,34.553185 83.030334,33.973606 88.134315,34.690109 
	C90.536507,35.027332 88.709763,39.477577 84.071152,41.739815 
z"/>
<path fill="#FEF2D7" opacity="1.000000" stroke="none" 
	d="
M75.896912,53.793571 
	C74.816162,53.787376 73.773338,53.402939 72.387024,53.026924 
	C74.498466,50.451904 76.953377,47.868465 79.724884,45.186836 
	C78.672592,47.864212 77.303711,50.639771 75.896912,53.793571 
z"/>
<path fill="#FFF3CA" opacity="1.000000" stroke="none" 
	d="
M48.044884,65.528458 
	C50.666786,65.405891 53.379841,65.630676 56.515739,65.872086 
	C53.997837,70.364906 51.068188,67.267632 48.044884,65.528458 
z"/>
<path fill="#FFF3CA" opacity="1.000000" stroke="none" 
	d="
M41.974983,61.561234 
	C42.977467,61.866982 44.003323,62.545681 45.189945,63.499649 
	C44.233261,63.161343 43.115810,62.547760 41.974983,61.561234 
z"/>
<path fill="#FEF2D7" opacity="1.000000" stroke="none" 
	d="
M81.475800,44.042702 
	C81.771660,43.320240 82.429367,42.586979 83.374893,41.770454 
	C83.054367,42.468758 82.446007,43.250332 81.475800,44.042702 
z"/>
<path fill="#FEF2D7" opacity="1.000000" stroke="none" 
	d="
M70.591064,37.980423 
	C70.308739,38.709923 69.655685,39.441006 68.724731,40.266277 
	C69.037994,39.567646 69.629158,38.774830 70.591064,37.980423 
z"/>
<path fill="#FFF3CA" opacity="1.000000" stroke="none" 
	d="
M66.522202,58.883224 
	C66.910500,59.310768 66.986130,59.786156 66.977142,60.613510 
	C66.189110,60.993984 65.485680,61.022499 64.430405,61.047699 
	C64.788872,60.339943 65.499199,59.635506 66.522202,58.883224 
z"/>
<path fill="#FEF2D7" opacity="1.000000" stroke="none" 
	d="
M65.761978,42.086063 
	C65.357727,42.769718 64.587669,43.417389 63.498955,44.078407 
	C63.373241,43.602261 63.566170,43.112755 63.844421,42.354992 
	C64.418549,42.074512 64.907349,42.062294 65.761978,42.086063 
z"/>
<path fill="#FEF2D7" opacity="1.000000" stroke="none" 
	d="
M68.010468,40.340775 
	C67.815582,40.993061 67.272125,41.533924 66.420929,42.108921 
	C66.629433,41.505154 67.145668,40.867252 68.010468,40.340775 
z"/>
<path fill="#FEF2D7" opacity="1.000000" stroke="none" 
	d="
M59.868637,38.596272 
	C59.625267,38.883560 59.349628,38.781868 59.062759,38.268112 
	C59.295822,38.045891 59.557434,38.162968 59.868637,38.596272 
z"/>
<path fill="#FEF2D7" opacity="1.000000" stroke="none" 
	d="
M71.788132,37.088326 
	C71.847145,37.292671 71.666504,37.569492 71.235291,37.902248 
	C71.172630,37.692387 71.360550,37.426594 71.788132,37.088326 
z"/>
<path fill="#FFF3CA" opacity="1.000000" stroke="none" 
	d="
M62.209000,62.926224 
	C62.153774,62.715210 62.343224,62.445530 62.781860,62.125801 
	C62.838593,62.339687 62.646133,62.603622 62.209000,62.926224 
z"/>
<path fill="#FFF3CA" opacity="1.000000" stroke="none" 
	d="
M46.096695,64.374908 
	C46.284073,64.261955 46.592442,64.368889 47.017540,64.703339 
	C46.828735,64.818840 46.523212,64.706825 46.096695,64.374908 
z"/>
<path fill="#FFF3CA" opacity="1.000000" stroke="none" 
	d="
M59.888054,64.742538 
	C59.826870,64.480118 60.078060,64.202202 60.600643,63.835464 
	C60.648163,64.073441 60.424294,64.400246 59.888054,64.742538 
z"/>
<path fill="#FEF2D7" opacity="1.000000" stroke="none" 
	d="
M58.798126,37.787453 
	C58.596344,37.922523 58.244049,37.816364 57.742485,37.472446 
	C57.944683,37.338531 58.296146,37.442379 58.798126,37.787453 
z"/>
<path fill="#FFF1E5" opacity="1.000000" stroke="none" 
	d="
M57.613197,49.964767 
	C56.310661,52.178947 54.661602,54.404667 53.258041,56.299038 
	C50.472439,54.996178 48.494102,54.070889 46.128220,53.094265 
	C47.788086,50.362427 49.835503,47.681915 52.515755,44.172890 
	C54.451950,46.538021 55.859310,48.257164 57.613197,49.964767 
z"/>
</svg>