<?xml version="1.0" standalone="no"?>
<!DOCTYPE svg PUBLIC "-//W3C//DTD SVG 20010904//EN"
 "http://www.w3.org/TR/2001/REC-SVG-20010904/DTD/svg10.dtd">
<svg version="1.0" xmlns="http://www.w3.org/2000/svg"
 width="100.000000pt" height="100.000000pt" viewBox="0 0 100.000000 100.000000"
 preserveAspectRatio="xMidYMid meet">

<g transform="translate(0.000000,100.000000) scale(0.100000,-0.100000)"
fill="#000000" stroke="none">
<path d="M445 631 c-16 -10 -88 -78 -160 -150 l-130 -131 75 0 75 0 105 105
104 105 23 -22 24 -22 36 36 36 36 -48 31 c-56 36 -97 39 -140 12z"/>
<path d="M697 442 l-37 -38 28 -28 c27 -25 35 -27 94 -24 l66 3 -57 63 -56 63
-38 -39z"/>
</g>
</svg>
